<?xml version="1.0" encoding="utf-8"?>
<svg width="902.2191162109375" height="384.93487548828125" viewBox="110.072 249.438 902.219 384.935" xmlns="http://www.w3.org/2000/svg">
  <g transform="matrix(0.1333329975605011, 0, 0, -0.1333329975605011, 110.07154846191402, 610.1795043945312)" id="g12">
    <path id="path40" style="fill:#64b72a;fill-opacity:1;fill-rule:nonzero;stroke:none" d="M 3542.58 2401.55 C 3178.03 2534.538 2896.628 2592.172 2679.031 2590.603 C 2148.841 2586.78 1997.443 2231.479 1944.99 1758.32 C 1826.91 1418.48 577.711 888.922 298.441 1573.37 C 298.441 1573.37 261.449 1538.45 241.02 1557.62 C 548.371 953.719 1857.87 1338.11 1917.9 1027.88 C 1965.78 170.992 2449.8 -181.449 3287.25 89.719 C 4201.02 385.91 5851.8 1188.53 6644.25 2113.19 C 5600.61 1629.8 4290.84 2128.58 3542.58 2401.55"/>
    <path id="path42" style="fill:#ffffff;fill-opacity:1;fill-rule:nonzero;stroke:none" d="M 3489.03,2275.1 C 2302.65,2705.57 2052.99,2316.41 1989.9,1707.2 1877.04,1395.17 642.781,927.891 337.41,1604.24 l -67.051,-29.52 C 566.461,941.57 1918.71,1326.68 1971.81,1034 2028.24,255.859 2499.3,-39.8789 3285.99,200.781 4145.76,464.121 5749.11,1224.98 6452.82,1975.31 5570.64,1606.67 4197.96,2017.88 3489.03,2275.1"/>
    <g>
      <path id="path44" style="fill:#64b72a;fill-opacity:1;fill-rule:nonzero;stroke:none" d="M 2800.32 119.16 C 2362.79 119.16 2084.02 365.488 1996.11 840.691 C 2084.06 365.5 2362.78 119.18 2800.36 119.18 C 2945.21 119.18 3107.47 146.172 3285.99 200.781 C 4145.76 464.121 5749.11 1224.98 6452.82 1975.31 L 6452.82 1975.31 C 5749.11 1224.98 4145.76 464.121 3285.99 200.781 C 3107.42 146.148 2945.21 119.16 2800.32 119.16 M 1996.11 840.711 C 1995.72 842.801 1995.34 844.852 1994.96 846.949 C 1995.34 844.871 1995.72 842.781 1996.11 840.711 M 1994.95 847.051 C 1994.6 848.988 1994.25 850.93 1993.91 852.871 C 1994.25 850.91 1994.59 849 1994.95 847.051 M 1993.74 853.809 C 1993.44 855.539 1993.14 857.25 1992.84 859 C 1993.13 857.281 1993.44 855.512 1993.74 853.809 M 1992.61 860.301 C 1992.34 861.879 1992.07 863.492 1991.8 865.082 C 1992.07 863.492 1992.34 861.891 1992.61 860.301 M 1991.52 866.738 C 1991.26 868.289 1990.99 869.93 1990.73 871.48 C 1990.99 869.922 1991.26 868.289 1991.52 866.738 M 1990.47 873.082 C 1990.22 874.59 1989.99 876.051 1989.74 877.57 C 1989.98 876.09 1990.23 874.551 1990.47 873.082 M 1989.42 879.57 C 1989.2 880.961 1988.98 882.352 1988.76 883.75 C 1988.98 882.352 1989.2 880.961 1989.42 879.57 M 1988.4 886.109 C 1988.2 887.371 1988.02 888.539 1987.83 889.809 C 1988.01 888.59 1988.21 887.332 1988.4 886.109 M 1987.41 892.52 C 1987.24 893.672 1987.07 894.789 1986.9 895.941 C 1987.07 894.84 1987.25 893.621 1987.41 892.52 M 1986.43 899.129 C 1986.32 899.898 1986.2 900.68 1986.09 901.449 C 1986.2 900.699 1986.32 899.879 1986.43 899.129 M 1985.47 905.719 C 1985.41 906.141 1985.36 906.52 1985.3 906.949 C 1985.36 906.551 1985.42 906.109 1985.47 905.719"/>
      <path id="path46" style="fill:#eef7e3;fill-opacity:1;fill-rule:nonzero;stroke:none" d="M 1686.53 1154.94 C 1470.57 1173.14 1165.1 1162.09 888.184 1206.78 C 906.617 1204.29 925.273 1202.01 943.867 1199.94 C 1190 1166.99 1452.21 1172.68 1650.42 1159.32 C 1662.75 1157.99 1674.85 1156.53 1686.53 1154.94 M 617.129 1277.46 C 607.438 1280.66 597.91 1284.07 588.473 1287.72 C 557.793 1300.64 528.434 1314.98 500.469 1331.03 C 492.203 1336.09 484.125 1341.36 476.164 1346.9 C 519.465 1319.62 566.844 1296.71 617.129 1277.46 M 277.305 1558.26 C 276.512 1559.81 275.727 1561.37 274.949 1562.93 C 275.434 1562.66 275.93 1562.41 276.43 1562.18 C 277.016 1561.01 277.578 1559.9 278.172 1558.73 C 277.887 1558.57 277.594 1558.42 277.305 1558.26"/>
      <path id="path48" style="fill:#64b72a;fill-opacity:1;fill-rule:nonzero;stroke:none" d="M 1978.19 963.59 C 1976.39 974.141 1974.42 993.109 1972.26 1022.39 C 1965.79 1109.65 1852.65 1140.95 1686.53 1154.94 C 1674.85 1156.53 1662.75 1157.99 1650.42 1159.32 C 1829.47 1147.26 1956.27 1119.66 1971.81 1034 C 1973.55 1010.06 1975.67 986.621 1978.19 963.59 M 943.867 1199.94 C 925.273 1202.01 906.617 1204.29 888.184 1206.78 C 781.871 1223.93 679.688 1249.33 588.473 1287.72 C 597.91 1284.07 607.438 1280.66 617.129 1277.46 C 717.059 1239.21 828.684 1215.35 943.867 1199.94 M 500.469 1331.03 C 405.734 1385.38 328.027 1458.77 277.305 1558.26 C 277.594 1558.42 277.887 1558.57 278.172 1558.73 C 324.301 1468.25 392.781 1399.43 476.164 1346.9 C 484.125 1341.36 492.203 1336.09 500.469 1331.03"/>
      <path id="path50" style="fill:#eef7e3;fill-opacity:1;fill-rule:nonzero;stroke:none" d="M 1024.27 1258.69 C 1067.83 1262.33 1111.85 1268.01 1155.75 1275.46 C 1139.85 1271.82 1123.94 1268.44 1108.01 1265.33 C 1080.01 1262.24 1052.08 1260.01 1024.27 1258.69"/>
      <path id="path52" style="fill:#64b72a;fill-opacity:1;fill-rule:nonzero;stroke:none" d="M 1108.01 1265.33 C 1123.94 1268.44 1139.85 1271.82 1155.75 1275.46 C 1548.56 1342.14 1936.02 1551.2 1990.53 1713.68 C 2012.52 1920.87 2056.49 2102.25 2152.22 2234.01 C 2055.5 2100.88 2011.64 1917.1 1989.9 1707.2 C 1926.84 1532.86 1513.59 1310.05 1108.01 1265.33 M 2152.35 2234.19 C 2153.08 2235.2 2153.84 2236.23 2154.58 2237.24 C 2153.84 2236.23 2153.09 2235.2 2152.35 2234.19 M 2154.63 2237.3 C 2155.38 2238.33 2156.12 2239.32 2156.89 2240.34 C 2156.14 2239.34 2155.37 2238.31 2154.63 2237.3 M 2157.05 2240.56 C 2157.8 2241.55 2158.54 2242.54 2159.29 2243.53 C 2158.53 2242.53 2157.8 2241.56 2157.05 2240.56 M 2159.39 2243.66 C 2160.11 2244.6 2160.79 2245.49 2161.51 2246.43 C 2160.8 2245.51 2160.09 2244.58 2159.39 2243.66 M 2162.05 2247.13 C 2162.67 2247.94 2163.33 2248.78 2163.95 2249.57 C 2163.31 2248.75 2162.69 2247.96 2162.05 2247.13 M 2164.48 2250.24 C 2165.08 2251.02 2165.66 2251.75 2166.27 2252.52 C 2165.66 2251.75 2165.08 2251.02 2164.48 2250.24 M 2167.03 2253.47 C 2167.61 2254.2 2168.21 2254.95 2168.79 2255.67 C 2168.2 2254.95 2167.61 2254.2 2167.03 2253.47 M 2169.43 2256.47 C 2170.01 2257.19 2170.59 2257.89 2171.17 2258.61 C 2170.6 2257.91 2170 2257.17 2169.43 2256.47 M 2172 2259.61 C 2172.55 2260.28 2173.12 2260.98 2173.67 2261.65 C 2173.1 2260.96 2172.57 2260.31 2172 2259.61 M 2174.56 2262.71 C 2175.07 2263.33 2175.56 2263.91 2176.08 2264.53 C 2175.58 2263.93 2175.06 2263.31 2174.56 2262.71 M 2177.12 2265.76 C 2177.65 2266.38 2178.17 2266.99 2178.7 2267.61 C 2178.17 2266.99 2177.65 2266.38 2177.12 2265.76 M 2179.69 2268.76 C 2180.16 2269.31 2180.61 2269.83 2181.08 2270.38 C 2180.61 2269.83 2180.16 2269.31 2179.69 2268.76 M 2182.36 2271.84 C 2182.81 2272.36 2183.25 2272.86 2183.7 2273.38 C 2183.25 2272.86 2182.81 2272.36 2182.36 2271.84 M 2184.99 2274.83 C 2185.39 2275.29 2185.78 2275.72 2186.18 2276.17 C 2185.78 2275.72 2185.4 2275.29 2184.99 2274.83 M 2187.66 2277.81 C 2188.06 2278.26 2188.43 2278.67 2188.84 2279.12 C 2188.45 2278.69 2188.04 2278.24 2187.66 2277.81 M 2190.33 2280.75 C 2190.68 2281.13 2191.01 2281.5 2191.36 2281.88 C 2191.01 2281.5 2190.68 2281.13 2190.33 2280.75 M 2193.02 2283.67 C 2193.37 2284.05 2193.7 2284.4 2194.05 2284.78 C 2193.72 2284.42 2193.35 2284.03 2193.02 2283.67 M 2195.72 2286.55 C 2196.03 2286.88 2196.35 2287.22 2196.66 2287.55 C 2196.35 2287.21 2196.03 2286.88 2195.72 2286.55 M 2198.36 2289.32 C 2198.74 2289.72 2199.09 2290.09 2199.47 2290.48 C 2199.09 2290.09 2198.74 2289.72 2198.36 2289.32 M 2201.12 2292.18 C 2201.42 2292.49 2201.75 2292.83 2202.05 2293.13 C 2201.73 2292.8 2201.45 2292.51 2201.12 2292.18 M 2203.86 2294.97 C 2204.18 2295.3 2204.55 2295.67 2204.88 2296 C 2204.53 2295.65 2204.2 2295.32 2203.86 2294.97 M 2206.65 2297.76 C 2206.95 2298.07 2207.25 2298.37 2207.56 2298.67 C 2207.25 2298.37 2206.95 2298.07 2206.65 2297.76 M 2209.39 2300.47 C 2209.74 2300.82 2210.08 2301.15 2210.43 2301.49 C 2210.08 2301.14 2209.74 2300.82 2209.39 2300.47 M 2212.28 2303.28 C 2212.55 2303.54 2212.83 2303.81 2213.1 2304.07 C 2212.83 2303.81 2212.55 2303.54 2212.28 2303.28 M 2215.09 2305.97 C 2215.38 2306.25 2215.7 2306.54 2215.99 2306.82 C 2215.7 2306.54 2215.38 2306.25 2215.09 2305.97 M 2218 2308.71 C 2218.26 2308.95 2218.49 2309.17 2218.75 2309.4 C 2218.52 2309.19 2218.24 2308.93 2218 2308.71 M 2220.86 2311.35 C 2221.11 2311.59 2221.41 2311.86 2221.66 2312.09 C 2221.39 2311.84 2221.13 2311.61 2220.86 2311.35 M 2223.87 2314.1 C 2224.04 2314.25 2224.24 2314.44 2224.41 2314.59 C 2224.22 2314.42 2224.06 2314.27 2223.87 2314.1 M 2226.81 2316.74 C 2226.98 2316.89 2227.16 2317.05 2227.33 2317.2 C 2227.16 2317.05 2226.98 2316.89 2226.81 2316.74 M 2229.79 2319.37 C 2229.94 2319.5 2230.07 2319.61 2230.22 2319.74 C 2230.07 2319.61 2229.94 2319.5 2229.79 2319.37 M 2232.73 2321.92 C 2232.89 2322.05 2233.06 2322.2 2233.21 2322.33 C 2233.06 2322.2 2232.89 2322.05 2232.73 2321.92 M 2235.78 2324.52 C 2235.89 2324.62 2236.01 2324.71 2236.12 2324.81 C 2236.01 2324.71 2235.89 2324.62 2235.78 2324.52 M 2238.72 2326.99 C 2238.9 2327.14 2239.03 2327.25 2239.21 2327.4 C 2239.05 2327.27 2238.87 2327.12 2238.72 2326.99 M 2241.85 2329.58 C 2241.94 2329.66 2242.02 2329.72 2242.11 2329.79 C 2242.05 2329.74 2241.92 2329.64 2241.85 2329.58 M 2244.92 2332.07 C 2245.01 2332.15 2245.07 2332.19 2245.16 2332.27 C 2245.09 2332.21 2244.99 2332.13 2244.92 2332.07"/>
      <g>
        <path id="path54" style="fill:#eef7e3;fill-opacity:1;fill-rule:nonzero;stroke:none" d="M 2800.36 119.18 C 2362.78 119.18 2084.06 365.5 1996.11 840.691 L 1996.11 840.711 C 1995.72 842.781 1995.34 844.871 1994.96 846.949 L 1994.95 847.051 C 1994.59 849 1994.25 850.91 1993.91 852.871 C 1993.85 853.211 1993.8 853.48 1993.74 853.809 C 1993.44 855.512 1993.13 857.281 1992.84 859 C 1992.77 859.41 1992.68 859.891 1992.61 860.301 C 1992.34 861.891 1992.07 863.492 1991.8 865.082 C 1991.7 865.66 1991.62 866.16 1991.52 866.738 C 1991.26 868.289 1990.99 869.922 1990.73 871.48 C 1990.64 872.02 1990.56 872.539 1990.47 873.082 C 1990.23 874.551 1989.98 876.09 1989.74 877.57 C 1989.64 878.238 1989.53 878.898 1989.42 879.57 C 1989.2 880.961 1988.98 882.352 1988.76 883.75 C 1988.65 884.512 1988.51 885.352 1988.4 886.109 C 1988.21 887.332 1988.01 888.59 1987.83 889.809 C 1987.69 890.699 1987.55 891.629 1987.41 892.52 C 1987.25 893.621 1987.07 894.84 1986.9 895.941 C 1986.74 897 1986.58 898.07 1986.43 899.129 C 1986.32 899.879 1986.2 900.699 1986.09 901.449 C 1985.89 902.859 1985.68 904.309 1985.47 905.719 C 1985.42 906.109 1985.36 906.551 1985.3 906.949 C 1982.67 925.48 1980.3 944.359 1978.2 963.531 C 1978.2 963.551 1978.19 963.57 1978.19 963.59 C 1975.67 986.621 1973.55 1010.06 1971.81 1034 C 1956.27 1119.66 1829.47 1147.26 1650.42 1159.32 C 1452.21 1172.68 1190 1166.99 943.867 1199.94 C 828.684 1215.35 717.059 1239.21 617.129 1277.46 C 566.844 1296.71 519.465 1319.62 476.164 1346.9 C 392.781 1399.43 324.301 1468.25 278.172 1558.73 C 277.578 1559.9 277.016 1561.01 276.43 1562.18 C 279.152 1560.96 282.113 1560.44 285.18 1560.44 C 302.117 1560.44 322.199 1576.25 322.199 1576.25 C 418.043 1340.63 651.742 1254.02 915.152 1254.02 C 951.074 1254.02 987.516 1255.63 1024.27 1258.69 C 1052.08 1260.01 1080.01 1262.24 1108.01 1265.33 C 1513.59 1310.05 1926.84 1532.86 1989.9 1707.2 C 2011.64 1917.1 2055.5 2100.88 2152.22 2234.01 C 2152.27 2234.08 2152.3 2234.12 2152.35 2234.19 C 2153.09 2235.2 2153.84 2236.23 2154.58 2237.24 C 2154.6 2237.26 2154.61 2237.27 2154.63 2237.3 C 2155.37 2238.31 2156.14 2239.34 2156.89 2240.34 C 2156.94 2240.41 2157 2240.49 2157.05 2240.56 C 2157.8 2241.56 2158.53 2242.53 2159.29 2243.53 C 2159.31 2243.55 2159.37 2243.64 2159.39 2243.66 C 2160.09 2244.58 2160.8 2245.51 2161.51 2246.43 C 2161.69 2246.66 2161.88 2246.91 2162.05 2247.13 C 2162.69 2247.96 2163.31 2248.75 2163.95 2249.57 C 2164.13 2249.8 2164.3 2250.02 2164.48 2250.24 C 2165.08 2251.02 2165.66 2251.75 2166.27 2252.52 C 2166.52 2252.84 2166.78 2253.16 2167.03 2253.47 C 2167.61 2254.2 2168.2 2254.95 2168.79 2255.67 C 2169 2255.94 2169.21 2256.2 2169.43 2256.47 C 2170 2257.17 2170.6 2257.91 2171.17 2258.61 C 2171.45 2258.94 2171.72 2259.28 2172 2259.61 C 2172.57 2260.31 2173.1 2260.96 2173.67 2261.65 C 2173.97 2262 2174.26 2262.35 2174.56 2262.71 C 2175.06 2263.31 2175.58 2263.93 2176.08 2264.53 C 2176.42 2264.93 2176.79 2265.37 2177.12 2265.76 C 2177.65 2266.38 2178.17 2266.99 2178.7 2267.61 C 2179.03 2268 2179.35 2268.37 2179.69 2268.76 C 2180.16 2269.31 2180.61 2269.83 2181.08 2270.38 C 2181.5 2270.86 2181.94 2271.36 2182.36 2271.84 C 2182.81 2272.36 2183.25 2272.86 2183.7 2273.38 C 2184.12 2273.85 2184.57 2274.36 2184.99 2274.83 C 2185.4 2275.29 2185.78 2275.72 2186.18 2276.17 C 2186.66 2276.71 2187.17 2277.28 2187.66 2277.81 C 2188.04 2278.24 2188.45 2278.69 2188.84 2279.12 C 2189.32 2279.65 2189.84 2280.22 2190.33 2280.75 C 2190.68 2281.13 2191.01 2281.5 2191.36 2281.88 C 2191.91 2282.47 2192.47 2283.08 2193.02 2283.67 C 2193.35 2284.03 2193.72 2284.42 2194.05 2284.78 C 2194.61 2285.37 2195.16 2285.96 2195.72 2286.55 C 2196.03 2286.88 2196.35 2287.21 2196.66 2287.55 C 2197.22 2288.13 2197.8 2288.74 2198.36 2289.32 C 2198.74 2289.72 2199.09 2290.09 2199.47 2290.48 C 2200.03 2291.06 2200.56 2291.61 2201.12 2292.18 C 2201.45 2292.51 2201.73 2292.8 2202.05 2293.13 C 2202.66 2293.75 2203.25 2294.36 2203.86 2294.97 C 2204.2 2295.32 2204.53 2295.65 2204.88 2296 C 2205.47 2296.59 2206.05 2297.17 2206.65 2297.76 C 2206.95 2298.07 2207.25 2298.37 2207.56 2298.67 C 2208.17 2299.28 2208.77 2299.87 2209.39 2300.47 C 2209.74 2300.82 2210.08 2301.14 2210.43 2301.49 C 2211.05 2302.09 2211.66 2302.68 2212.28 2303.28 C 2212.55 2303.54 2212.83 2303.81 2213.1 2304.07 C 2213.76 2304.71 2214.42 2305.33 2215.09 2305.97 C 2215.38 2306.25 2215.7 2306.54 2215.99 2306.82 C 2216.66 2307.46 2217.33 2308.08 2218 2308.71 C 2218.24 2308.93 2218.52 2309.19 2218.75 2309.4 C 2219.45 2310.05 2220.16 2310.71 2220.86 2311.35 C 2221.13 2311.61 2221.39 2311.84 2221.66 2312.09 C 2222.41 2312.78 2223.12 2313.42 2223.87 2314.1 C 2224.06 2314.27 2224.22 2314.42 2224.41 2314.59 C 2225.21 2315.31 2226.01 2316.02 2226.81 2316.74 C 2226.98 2316.89 2227.16 2317.05 2227.33 2317.2 C 2228.16 2317.93 2228.96 2318.64 2229.79 2319.37 C 2229.94 2319.5 2230.07 2319.61 2230.22 2319.74 C 2231.05 2320.47 2231.9 2321.2 2232.73 2321.92 C 2232.89 2322.05 2233.06 2322.2 2233.21 2322.33 C 2234.07 2323.07 2234.92 2323.79 2235.78 2324.52 C 2235.89 2324.62 2236.01 2324.71 2236.12 2324.81 C 2236.98 2325.54 2237.85 2326.27 2238.72 2326.99 C 2238.87 2327.12 2239.05 2327.27 2239.21 2327.4 C 2240.08 2328.12 2240.98 2328.86 2241.85 2329.58 C 2241.92 2329.64 2242.05 2329.74 2242.11 2329.79 C 2243.03 2330.55 2243.99 2331.33 2244.92 2332.07 C 2244.99 2332.13 2245.09 2332.21 2245.16 2332.27 C 2344.17 2411.97 2479.71 2457.46 2665.9 2457.46 C 2871.9 2457.46 3139.93 2401.76 3489.03 2275.1 C 3995.93 2091.18 4842.18 1828.54 5605.83 1828.54 C 5910.18 1828.54 6201.42 1870.26 6452.82 1975.31 C 5749.11 1224.98 4145.76 464.121 3285.99 200.781 C 3107.47 146.172 2945.21 119.18 2800.36 119.18"/>
      </g>
      <path id="path56" style="fill:#64b72a;fill-opacity:1;fill-rule:nonzero;stroke:none" d="M 6087.42 1761.23 C 4731.36 1066.03 3236.87 1500.79 2538.13 1523.04 C 1770.09 1547.55 1445.67 1094.93 690.52 1273.73 C 1325.96 1068.98 1930.62 1509.75 2637.22 1443.83 C 3423.47 1370.54 5152.01 1140.9 6087.42 1761.23"/>
      <path id="path58" style="fill:#231f20;fill-opacity:1;fill-rule:nonzero;stroke:none" d="M 707.477 1601.75 C 630.227 1647.61 532.832 1690.6 429.668 1690.6 C 243.484 1690.6 134.672 1530.16 134.672 1366.88 L 134.672 527.371 C 134.672 487.309 111.715 464.352 71.566 464.352 L 62.961 464.352 C 22.871 464.352 0 487.309 0 527.371 L 0 1366.88 C 0 1604.62 171.859 1816.69 429.668 1816.69 C 572.98 1816.69 704.723 1756.55 776.348 1707.82 C 804.898 1687.76 816.492 1650.42 796.438 1621.78 C 776.348 1590.28 739.102 1581.72 707.477 1601.75"/>
      <path id="path60" style="fill:#231f20;fill-opacity:1;fill-rule:nonzero;stroke:none" d="M 1672.02 1366.88 C 1672.02 1530.16 1563.18 1690.6 1376.97 1690.6 C 1190.7 1690.6 1081.94 1530.16 1081.94 1366.88 L 1081.94 1306.7 C 1081.94 1226.41 1127.74 1180.61 1207.92 1180.61 L 1546.05 1180.61 C 1626.2 1180.61 1672.02 1226.41 1672.02 1306.7 Z M 1680.63 1071.82 L 1207.92 1071.82 C 1127.74 1071.82 1081.94 1025.93 1081.94 945.641 L 1081.94 885.609 C 1081.94 722.18 1190.7 561.859 1376.97 561.859 C 1520.28 561.859 1591.9 650.59 1637.65 716.48 C 1657.71 748.039 1697.82 756.57 1726.55 736.539 C 1755.24 716.48 1763.71 679.281 1746.52 647.84 C 1695.01 547.43 1571.76 435.738 1376.97 435.738 C 1119.19 435.738 947.184 647.84 947.184 885.609 L 947.184 1366.88 C 947.184 1604.62 1119.19 1816.69 1376.97 1816.69 C 1634.89 1816.69 1806.75 1604.62 1806.75 1366.88 L 1806.75 1197.77 C 1806.75 1117.62 1760.84 1071.82 1680.63 1071.82"/>
      <path id="path62" style="fill:#231f20;fill-opacity:1;fill-rule:nonzero;stroke:none" d="M 2872.15 2201.26 C 2790.19 2238.07 2682.29 2257.87 2579.27 2257.87 C 2393.09 2257.87 2284.18 2097.4 2284.18 1934.12 L 2284.18 1914.03 C 2284.18 1833.85 2329.89 1787.99 2410.16 1787.99 L 2799.97 1787.99 C 2840.06 1787.99 2862.9 1765.09 2862.9 1733.53 C 2862.9 1702.02 2840.06 1679.12 2799.97 1679.12 L 2410.16 1679.12 C 2329.89 1679.12 2284.18 1633.33 2284.18 1553.03 L 2284.18 527.371 C 2284.18 487.309 2261.2 464.352 2221.05 464.352 L 2212.53 464.352 C 2172.29 464.352 2149.51 487.309 2149.51 527.371 L 2149.51 1553.03 C 2149.51 1633.33 2103.68 1679.12 2023.39 1679.12 L 1980.63 1679.12 C 1940.34 1679.12 1917.47 1702.02 1917.47 1733.53 C 1917.47 1765.09 1940.34 1787.99 1980.63 1787.99 L 2023.39 1787.99 C 2103.68 1787.99 2149.51 1833.85 2149.51 1914.03 L 2149.51 1934.12 C 2149.51 2171.92 2321.37 2383.9 2579.27 2383.9 C 2722.43 2383.9 2851.89 2354.61 2928.58 2314.2 C 2959.27 2297.63 2974.94 2261.94 2958.16 2231.22 C 2941.79 2197.54 2905.83 2184.9 2872.15 2201.26"/>
      <path id="path64" style="fill:#231f20;fill-opacity:1;fill-rule:nonzero;stroke:none" d="M 3612.42 1601.75 C 3535.15 1647.61 3437.67 1690.6 3334.62 1690.6 C 3148.38 1690.6 3039.36 1530.16 3039.36 1366.88 L 3039.36 527.371 C 3039.36 487.309 3016.52 464.352 2976.46 464.352 L 2967.82 464.352 C 2927.68 464.352 2904.83 487.309 2904.83 527.371 L 2904.83 1366.88 C 2904.83 1604.62 3076.78 1816.69 3334.62 1816.69 C 3477.79 1816.69 3609.58 1756.55 3681.25 1707.82 C 3709.8 1687.76 3721.38 1650.42 3701.32 1621.78 C 3681.25 1590.28 3644 1581.72 3612.42 1601.75"/>
      <path id="path66" style="fill:#231f20;fill-opacity:1;fill-rule:nonzero;stroke:none" d="M 4458.55 1366.88 C 4458.55 1530.16 4349.57 1690.6 4163.41 1690.6 C 3977.18 1690.6 3868.33 1530.16 3868.33 1366.88 L 3868.33 1306.7 C 3868.33 1226.41 3914.19 1180.61 3994.25 1180.61 L 4332.5 1180.61 C 4412.57 1180.61 4458.55 1226.41 4458.55 1306.7 Z M 4467.03 1071.82 L 3994.25 1071.82 C 3914.19 1071.82 3868.33 1025.93 3868.33 945.641 L 3868.33 885.609 C 3868.33 722.18 3977.18 561.859 4163.41 561.859 C 4306.71 561.859 4378.2 650.59 4424.27 716.48 C 4444.16 748.039 4484.21 756.57 4512.73 736.539 C 4541.54 716.48 4550.13 679.281 4533.02 647.84 C 4481.36 547.43 4358.24 435.738 4163.41 435.738 C 3905.6 435.738 3733.51 647.84 3733.51 885.609 L 3733.51 1366.88 C 3733.51 1604.62 3905.6 1816.69 4163.41 1816.69 C 4421.19 1816.69 4593.22 1604.62 4593.22 1366.88 L 4593.22 1197.77 C 4593.22 1117.62 4547.28 1071.82 4467.03 1071.82"/>
      <path id="path68" style="fill:#231f20;fill-opacity:1;fill-rule:nonzero;stroke:none" d="M 5250.07 435.738 C 5060.99 435.738 4920.7 547.43 4851.91 659.191 C 4834.7 687.781 4831.89 725.02 4863.28 748.039 C 4889.16 768.07 4926.28 765.082 4949.31 733.699 C 5012.32 647.84 5118.41 561.859 5250.07 561.859 C 5462.1 561.859 5545.25 710.801 5545.25 848.359 C 5545.25 1094.69 5250.07 1100.38 5250.07 1100.38 C 4997.98 1114.72 4851.91 1252.23 4851.91 1458.53 C 4851.91 1633.33 4986.52 1816.69 5250.07 1816.69 C 5364.78 1816.69 5476.46 1767.93 5539.57 1704.92 C 5565.31 1679.12 5565.31 1638.97 5539.57 1616.05 C 5513.71 1593.18 5479.33 1593.18 5442.03 1621.78 C 5390.5 1664.71 5330.37 1693.44 5250.07 1693.44 C 5035.23 1693.44 4980.95 1535.87 4980.95 1458.53 C 4980.95 1243.69 5247.22 1223.66 5247.22 1223.66 C 5476.46 1209.25 5679.98 1109.1 5679.98 848.359 C 5679.98 613.34 5519.45 435.738 5250.07 435.738"/>
      <path id="path70" style="fill:#231f20;fill-opacity:1;fill-rule:nonzero;stroke:none" d="M 6703.55 464.352 L 6695.01 464.352 C 6654.92 464.352 6631.93 487.309 6631.93 527.371 L 6631.93 1366.88 C 6631.93 1530.16 6523.18 1690.6 6336.85 1690.6 C 6150.64 1690.6 6041.77 1530.16 6041.77 1366.88 L 6041.77 527.371 C 6041.77 487.309 6018.84 464.352 5978.67 464.352 L 5970.13 464.352 C 5929.94 464.352 5907.14 487.309 5907.14 527.371 L 5907.14 2292.25 C 5907.14 2332.31 5929.94 2355.24 5970.13 2355.24 L 5978.67 2355.24 C 6018.84 2355.24 6041.77 2332.31 6041.77 2292.25 L 6041.77 1842.47 C 6041.77 1785.09 6087.61 1745 6147.77 1773.65 C 6213.59 1805.21 6273.82 1816.69 6336.85 1816.69 C 6594.8 1816.69 6766.66 1604.62 6766.66 1366.88 L 6766.66 527.371 C 6766.66 487.309 6743.65 464.352 6703.55 464.352"/>
    </g>
  </g>
</svg>