<?xml version="1.0" encoding="UTF-8" standalone="no"?>
<svg
   xmlns:dc="http://purl.org/dc/elements/1.1/"
   xmlns:cc="http://creativecommons.org/ns#"
   xmlns:rdf="http://www.w3.org/1999/02/22-rdf-syntax-ns#"
   xmlns:svg="http://www.w3.org/2000/svg"
   xmlns="http://www.w3.org/2000/svg"
   viewBox="0 0 511.53333 86.959999"
   height="86.959999"
   width="511.53333"
   xml:space="preserve"
   id="svg2"
   version="1.1"><metadata
     id="metadata8"><rdf:RDF><cc:Work
         rdf:about=""><dc:format>image/svg+xml</dc:format><dc:type
           rdf:resource="http://purl.org/dc/dcmitype/StillImage" /></cc:Work></rdf:RDF></metadata><defs
     id="defs6"><clipPath
       id="clipPath22"
       clipPathUnits="userSpaceOnUse"><path
         id="path20"
         d="m 1328.04,26.6563 c -5.4,3.0585 -16.2,9.9882 -22.95,19.4414 -7.56,10.5273 -10.8,32.5781 -10.8,32.7578 V 576.465 c 0.09,0 3.33,21.691 10.8,32.133 7.02,9.898 18.45,16.918 23.49,19.707 -0.81,-3.239 -1.26,-6.66 -1.26,-10.078 V 34.0352 c 0,-2.5196 0.27,-4.9493 0.72,-7.3789" /></clipPath><linearGradient
       id="linearGradient28"
       spreadMethod="pad"
       gradientTransform="matrix(150.378,-561.218,-561.218,-150.378,1243.52,605.561)"
       gradientUnits="userSpaceOnUse"
       y2="0"
       x2="1"
       y1="0"
       x1="0"><stop
         id="stop24"
         offset="0"
         style="stop-opacity:1;stop-color:#c2c1c1" /><stop
         id="stop26"
         offset="1"
         style="stop-opacity:1;stop-color:#7f7d7e" /></linearGradient><clipPath
       id="clipPath114"
       clipPathUnits="userSpaceOnUse"><path
         id="path112"
         d="m 1564.47,64.0977 c -6.93,0 -11.97,6.207 -11.97,14.6679 v 29.6994 c 0,9.992 7.11,19.351 15.57,20.34 l 25.2,3.152 1.44,0.09 c 6.66,0 11.79,-6.301 11.79,-14.762 V 88.8477 c 0,-9.6329 -6.75,-18.9024 -14.67,-20.25 l -25.2,-4.3204 -2.16,-0.1796" /></clipPath><linearGradient
       id="linearGradient120"
       spreadMethod="pad"
       gradientTransform="matrix(16.6893,-62.2852,-62.2852,-16.6893,1570.99,129.726)"
       gradientUnits="userSpaceOnUse"
       y2="0"
       x2="1"
       y1="0"
       x1="0"><stop
         id="stop116"
         offset="0"
         style="stop-opacity:1;stop-color:#ffffff" /><stop
         id="stop118"
         offset="1"
         style="stop-opacity:1;stop-color:#d3d2d2" /></linearGradient><clipPath
       id="clipPath130"
       clipPathUnits="userSpaceOnUse"><path
         id="path128"
         d="m 1515.51,414.375 h -0.81 l -27.81,1.531 c -9.63,0.449 -17.37,9.539 -17.37,20.16 v 31.231 c 0,9.719 6.48,17.008 15.12,17.008 l 1.44,-0.09 27.9,-2.789 c 9,-0.899 16.29,-9.899 16.29,-20.16 v -29.879 c 0,-4.77 -1.62,-9.09 -4.41,-12.242 -2.79,-3.059 -6.48,-4.77 -10.35,-4.77" /></clipPath><linearGradient
       id="linearGradient136"
       spreadMethod="pad"
       gradientTransform="matrix(19.783,-73.8311,-73.8311,-19.783,1489.84,486.186)"
       gradientUnits="userSpaceOnUse"
       y2="0"
       x2="1"
       y1="0"
       x1="0"><stop
         id="stop132"
         offset="0"
         style="stop-opacity:1;stop-color:#ffffff" /><stop
         id="stop134"
         offset="1"
         style="stop-opacity:1;stop-color:#d3d2d2" /></linearGradient><clipPath
       id="clipPath146"
       clipPathUnits="userSpaceOnUse"><path
         id="path144"
         d="m 1640.07,159.586 h -1.08 c -6.57,0 -11.43,6.301 -11.43,14.762 v 28.257 c 0,9.27 6.21,17.461 13.5,18 l 22.86,1.532 c 6.93,0 11.79,-6.481 11.79,-14.762 v -27.18 c 0,-8.91 -5.76,-17.097 -12.69,-17.91 l -22.95,-2.699" /></clipPath><linearGradient
       id="linearGradient152"
       spreadMethod="pad"
       gradientTransform="matrix(16.1332,-60.21,-60.21,-16.1332,1643.45,221.435)"
       gradientUnits="userSpaceOnUse"
       y2="0"
       x2="1"
       y1="0"
       x1="0"><stop
         id="stop148"
         offset="0"
         style="stop-opacity:1;stop-color:#ffffff" /><stop
         id="stop150"
         offset="1"
         style="stop-opacity:1;stop-color:#d3d2d2" /></linearGradient><clipPath
       id="clipPath162"
       clipPathUnits="userSpaceOnUse"><path
         id="path160"
         d="m 1593.54,410.324 -0.63,0.094 -25.2,1.258 c -8.28,0.449 -15.21,9.09 -15.21,18.898 v 29.703 c 0,9.09 5.67,15.93 13.23,15.93 l 1.17,-0.09 25.29,-2.429 c 7.83,-0.813 14.31,-9.27 14.31,-18.903 v -28.437 c 0,-4.5 -1.44,-8.641 -4.05,-11.703 -2.34,-2.7 -5.58,-4.321 -8.91,-4.321" /></clipPath><linearGradient
       id="linearGradient168"
       spreadMethod="pad"
       gradientTransform="matrix(18.5268,-69.1429,-69.1429,-18.5268,1570.08,477.808)"
       gradientUnits="userSpaceOnUse"
       y2="0"
       x2="1"
       y1="0"
       x1="0"><stop
         id="stop164"
         offset="0"
         style="stop-opacity:1;stop-color:#ffffff" /><stop
         id="stop166"
         offset="1"
         style="stop-opacity:1;stop-color:#d3d2d2" /></linearGradient><clipPath
       id="clipPath178"
       clipPathUnits="userSpaceOnUse"><path
         id="path176"
         d="m 1486.62,324.555 h -0.09 c -9.36,0 -17.01,8.461 -17.01,18.902 v 31.32 c 0,10.078 7.11,18.09 16.2,18.09 l 28.53,-1.262 c 8.82,-0.359 16.02,-8.91 16.02,-18.898 v -29.973 c 0,-9.898 -7.11,-18.089 -15.84,-18.089 l -27.81,-0.09" /></clipPath><linearGradient
       id="linearGradient184"
       spreadMethod="pad"
       gradientTransform="matrix(19.2244,-71.7464,-71.7464,-19.2244,1490.13,394.551)"
       gradientUnits="userSpaceOnUse"
       y2="0"
       x2="1"
       y1="0"
       x1="0"><stop
         id="stop180"
         offset="0"
         style="stop-opacity:1;stop-color:#ffffff" /><stop
         id="stop182"
         offset="1"
         style="stop-opacity:1;stop-color:#d3d2d2" /></linearGradient><clipPath
       id="clipPath194"
       clipPathUnits="userSpaceOnUse"><path
         id="path192"
         d="m 1567.44,324.824 h -0.09 c -8.19,0 -14.85,8.012 -14.85,17.821 v 29.703 c 0,9.449 6.21,16.918 14.13,16.918 l 25.83,-1.078 c 7.74,-0.364 14.04,-8.282 14.04,-17.731 v -28.531 c 0,-9.36 -6.21,-16.918 -13.86,-16.918 l -25.2,-0.184" /></clipPath><linearGradient
       id="linearGradient200"
       spreadMethod="pad"
       gradientTransform="matrix(18.0289,-67.2847,-67.2847,-18.0289,1570.32,390.713)"
       gradientUnits="userSpaceOnUse"
       y2="0"
       x2="1"
       y1="0"
       x1="0"><stop
         id="stop196"
         offset="0"
         style="stop-opacity:1;stop-color:#ffffff" /><stop
         id="stop198"
         offset="1"
         style="stop-opacity:1;stop-color:#d3d2d2" /></linearGradient><clipPath
       id="clipPath210"
       clipPathUnits="userSpaceOnUse"><path
         id="path208"
         d="m 1567.17,237.977 h -0.72 c -7.83,0 -13.95,7.378 -13.95,16.738 v 29.609 c 0,9.903 6.75,18 15.03,18.094 l 25.2,0.359 c 7.65,0 13.77,-7.472 13.77,-16.742 v -28.437 c 0,-9.543 -6.3,-17.641 -14.13,-18.09 l -25.2,-1.531" /></clipPath><linearGradient
       id="linearGradient216"
       spreadMethod="pad"
       gradientTransform="matrix(17.5638,-65.549,-65.549,-17.5638,1570.55,303.682)"
       gradientUnits="userSpaceOnUse"
       y2="0"
       x2="1"
       y1="0"
       x1="0"><stop
         id="stop212"
         offset="0"
         style="stop-opacity:1;stop-color:#ffffff" /><stop
         id="stop214"
         offset="1"
         style="stop-opacity:1;stop-color:#d3d2d2" /></linearGradient><clipPath
       id="clipPath226"
       clipPathUnits="userSpaceOnUse"><path
         id="path224"
         d="m 1638.09,76.6953 c -6.12,0 -10.53,5.8516 -10.53,13.8594 v 28.2613 c 0,9.45 6.3,18.09 13.68,19.079 l 22.95,2.793 1.17,0.089 c 5.94,0 10.35,-5.941 10.35,-13.953 V 99.6445 c 0,-9 -5.94,-17.6367 -12.96,-18.8984 l -22.95,-3.9609 -1.71,-0.0899" /></clipPath><linearGradient
       id="linearGradient232"
       spreadMethod="pad"
       gradientTransform="matrix(15.749,-58.7762,-58.7762,-15.749,1643.64,138.603)"
       gradientUnits="userSpaceOnUse"
       y2="0"
       x2="1"
       y1="0"
       x1="0"><stop
         id="stop228"
         offset="0"
         style="stop-opacity:1;stop-color:#ffffff" /><stop
         id="stop230"
         offset="1"
         style="stop-opacity:1;stop-color:#d3d2d2" /></linearGradient><clipPath
       id="clipPath242"
       clipPathUnits="userSpaceOnUse"><path
         id="path240"
         d="m 1396.62,227.805 h -1.08 c -10.26,0 -18.27,8.281 -18.27,18.902 v 33.027 c 0,11.25 8.82,20.524 19.71,20.704 l 30.96,0.359 c 10.17,0 18,-8.371 18,-18.992 v -31.5 c 0,-10.797 -8.19,-20.071 -18.36,-20.61 l -30.96,-1.89" /></clipPath><linearGradient
       id="linearGradient248"
       spreadMethod="pad"
       gradientTransform="matrix(19.9827,-74.5763,-74.5763,-19.9827,1401.46,302.217)"
       gradientUnits="userSpaceOnUse"
       y2="0"
       x2="1"
       y1="0"
       x1="0"><stop
         id="stop244"
         offset="0"
         style="stop-opacity:1;stop-color:#ffffff" /><stop
         id="stop246"
         offset="1"
         style="stop-opacity:1;stop-color:#d3d2d2" /></linearGradient><clipPath
       id="clipPath258"
       clipPathUnits="userSpaceOnUse"><path
         id="path256"
         d="m 1394.19,131.324 c -9.63,0 -16.92,7.653 -16.92,17.731 v 32.941 c 0,11.43 9,21.328 19.98,22.051 l 30.96,2.16 h 1.17 c 9.45,0 16.56,-7.652 16.56,-17.73 v -31.5 c 0,-10.891 -8.37,-20.789 -18.63,-21.961 l -30.96,-3.598 -2.16,-0.094" /></clipPath><linearGradient
       id="linearGradient264"
       spreadMethod="pad"
       gradientTransform="matrix(19.4215,-72.4822,-72.4822,-19.4215,1401.75,205.674)"
       gradientUnits="userSpaceOnUse"
       y2="0"
       x2="1"
       y1="0"
       x1="0"><stop
         id="stop260"
         offset="0"
         style="stop-opacity:1;stop-color:#ffffff" /><stop
         id="stop262"
         offset="1"
         style="stop-opacity:1;stop-color:#d3d2d2" /></linearGradient><clipPath
       id="clipPath274"
       clipPathUnits="userSpaceOnUse"><path
         id="path272"
         d="m 1392.84,34.8477 c -9,0 -15.57,6.9296 -15.57,16.4687 v 32.9414 c 0,11.4297 9.27,22.1372 20.25,23.4882 l 30.96,3.871 2.16,0.09 c 8.91,0 15.3,-6.93 15.3,-16.5625 v -31.5 c 0,-11.0703 -8.46,-21.5078 -18.9,-23.3086 l -30.96,-5.3086 c -1.08,-0.0898 -2.16,-0.1796 -3.24,-0.1796" /></clipPath><linearGradient
       id="linearGradient280"
       spreadMethod="pad"
       gradientTransform="matrix(18.8882,-70.4918,-70.4918,-18.8882,1402.01,109.15)"
       gradientUnits="userSpaceOnUse"
       y2="0"
       x2="1"
       y1="0"
       x1="0"><stop
         id="stop276"
         offset="0"
         style="stop-opacity:1;stop-color:#ffffff" /><stop
         id="stop278"
         offset="1"
         style="stop-opacity:1;stop-color:#d3d2d2" /></linearGradient><clipPath
       id="clipPath290"
       clipPathUnits="userSpaceOnUse"><path
         id="path288"
         d="m 1483.11,50.2344 c -7.83,0 -13.59,6.4804 -13.59,15.4804 v 31.3204 c 0,10.6208 8.1,20.6098 17.73,21.7808 l 27.81,3.418 1.8,0.184 c 7.65,0 13.41,-6.75 13.41,-15.66 V 76.875 c 0,-10.3477 -7.47,-20.0703 -16.65,-21.6875 l -27.9,-4.7695 -2.61,-0.1836" /></clipPath><linearGradient
       id="linearGradient296"
       spreadMethod="pad"
       gradientTransform="matrix(17.7332,-66.181,-66.181,-17.7332,1490.87,119.971)"
       gradientUnits="userSpaceOnUse"
       y2="0"
       x2="1"
       y1="0"
       x1="0"><stop
         id="stop292"
         offset="0"
         style="stop-opacity:1;stop-color:#ffffff" /><stop
         id="stop294"
         offset="1"
         style="stop-opacity:1;stop-color:#d3d2d2" /></linearGradient><clipPath
       id="clipPath306"
       clipPathUnits="userSpaceOnUse"><path
         id="path304"
         d="m 1486.35,233.207 h -0.99 c -8.91,0 -15.84,7.738 -15.84,17.731 v 31.23 c 0,10.527 7.65,19.168 17.19,19.348 l 27.81,0.269 c 8.73,0 15.75,-7.918 15.75,-17.73 v -29.969 c 0,-10.078 -7.2,-18.719 -16.11,-19.262 l -27.81,-1.617" /></clipPath><linearGradient
       id="linearGradient312"
       spreadMethod="pad"
       gradientTransform="matrix(18.7012,-69.7938,-69.7938,-18.7012,1490.38,302.969)"
       gradientUnits="userSpaceOnUse"
       y2="0"
       x2="1"
       y1="0"
       x1="0"><stop
         id="stop308"
         offset="0"
         style="stop-opacity:1;stop-color:#ffffff" /><stop
         id="stop310"
         offset="1"
         style="stop-opacity:1;stop-color:#d3d2d2" /></linearGradient><clipPath
       id="clipPath322"
       clipPathUnits="userSpaceOnUse"><path
         id="path320"
         d="m 1484.28,141.676 c -8.37,0 -14.76,7.199 -14.76,16.648 v 31.231 c 0,10.711 7.83,19.98 17.46,20.613 l 27.81,1.887 h 0.09 c 9.09,0 15.39,-7.289 15.39,-16.649 v -29.879 c 0,-10.261 -7.29,-19.441 -16.38,-20.519 l -27.9,-3.242 -1.71,-0.09" /></clipPath><linearGradient
       id="linearGradient328"
       spreadMethod="pad"
       gradientTransform="matrix(18.2033,-67.9355,-67.9355,-18.2033,1490.63,211.455)"
       gradientUnits="userSpaceOnUse"
       y2="0"
       x2="1"
       y1="0"
       x1="0"><stop
         id="stop324"
         offset="0"
         style="stop-opacity:1;stop-color:#ffffff" /><stop
         id="stop326"
         offset="1"
         style="stop-opacity:1;stop-color:#d3d2d2" /></linearGradient><clipPath
       id="clipPath338"
       clipPathUnits="userSpaceOnUse"><path
         id="path336"
         d="m 1429.11,418.875 h -0.99 l -30.96,1.621 c -10.98,0.629 -19.89,10.262 -19.89,21.692 v 32.937 c 0,10.352 7.47,18.09 17.28,18.09 l 1.89,-0.09 30.96,-3.059 c 10.26,-1.082 18.54,-10.711 18.54,-21.601 v -31.5 c 0,-4.949 -1.71,-9.629 -4.95,-12.957 -3.15,-3.332 -7.38,-5.133 -11.88,-5.133" /></clipPath><linearGradient
       id="linearGradient344"
       spreadMethod="pad"
       gradientTransform="matrix(21.2009,-79.1229,-79.1229,-21.2009,1400.85,495.532)"
       gradientUnits="userSpaceOnUse"
       y2="0"
       x2="1"
       y1="0"
       x1="0"><stop
         id="stop340"
         offset="0"
         style="stop-opacity:1;stop-color:#ffffff" /><stop
         id="stop342"
         offset="1"
         style="stop-opacity:1;stop-color:#d3d2d2" /></linearGradient><clipPath
       id="clipPath354"
       clipPathUnits="userSpaceOnUse"><path
         id="path352"
         d="m 1396.89,324.195 h -0.09 c -10.8,0 -19.53,9.09 -19.53,20.25 v 33.032 c 0,10.8 8.19,19.347 18.63,19.347 l 31.77,-1.437 c 10.08,-0.449 18.27,-9.539 18.27,-20.25 v -31.5 c 0,-10.621 -8.1,-19.352 -18.09,-19.352 l -30.96,-0.09" /></clipPath><linearGradient
       id="linearGradient360"
       spreadMethod="pad"
       gradientTransform="matrix(20.5741,-76.7836,-76.7836,-20.5741,1401.16,398.862)"
       gradientUnits="userSpaceOnUse"
       y2="0"
       x2="1"
       y1="0"
       x1="0"><stop
         id="stop356"
         offset="0"
         style="stop-opacity:1;stop-color:#ffffff" /><stop
         id="stop358"
         offset="1"
         style="stop-opacity:1;stop-color:#d3d2d2" /></linearGradient><clipPath
       id="clipPath370"
       clipPathUnits="userSpaceOnUse"><path
         id="path368"
         d="m 1707.03,246.348 h -0.45 c -5.94,0 -10.71,6.66 -10.71,14.847 v 27 c 0,8.551 5.22,15.84 11.52,15.93 l 20.88,0.27 c 5.94,0 10.62,-6.661 10.62,-14.848 v -26.012 c 0,-8.277 -4.95,-15.57 -10.89,-15.93 l -20.97,-1.257" /></clipPath><linearGradient
       id="linearGradient376"
       spreadMethod="pad"
       gradientTransform="matrix(15.6075,-58.248,-58.248,-15.6075,1709.45,304.941)"
       gradientUnits="userSpaceOnUse"
       y2="0"
       x2="1"
       y1="0"
       x1="0"><stop
         id="stop372"
         offset="0"
         style="stop-opacity:1;stop-color:#ffffff" /><stop
         id="stop374"
         offset="1"
         style="stop-opacity:1;stop-color:#d3d2d2" /></linearGradient><clipPath
       id="clipPath386"
       clipPathUnits="userSpaceOnUse"><path
         id="path384"
         d="m 1767.96,250.035 h -0.36 c -5.22,0 -9.45,6.211 -9.45,13.949 v 25.832 c 0,8.102 4.68,14.942 10.17,15.032 l 19.17,0.269 c 5.04,0 9.27,-6.39 9.27,-14.043 v -24.84 c 0,-7.828 -4.41,-14.757 -9.63,-15.027 l -19.17,-1.172" /></clipPath><linearGradient
       id="linearGradient392"
       spreadMethod="pad"
       gradientTransform="matrix(14.7658,-55.1068,-55.1068,-14.7658,1769.97,305.508)"
       gradientUnits="userSpaceOnUse"
       y2="0"
       x2="1"
       y1="0"
       x1="0"><stop
         id="stop388"
         offset="0"
         style="stop-opacity:1;stop-color:#ffffff" /><stop
         id="stop390"
         offset="1"
         style="stop-opacity:1;stop-color:#d3d2d2" /></linearGradient><clipPath
       id="clipPath402"
       clipPathUnits="userSpaceOnUse"><path
         id="path400"
         d="m 1788.03,400.336 h -0.36 l -19.17,0.988 c -5.58,0.274 -10.35,7.473 -10.35,15.66 v 25.743 c 0,7.378 4.05,13.41 9,13.41 l 19.8,-1.891 c 5.31,-0.539 9.81,-7.648 9.81,-15.57 v -24.93 c 0,-3.961 -0.99,-7.558 -2.97,-10.078 -0.9,-1.262 -2.88,-3.332 -5.76,-3.332" /></clipPath><linearGradient
       id="linearGradient408"
       spreadMethod="pad"
       gradientTransform="matrix(15.471,-57.7386,-57.7386,-15.471,1769.63,457.06)"
       gradientUnits="userSpaceOnUse"
       y2="0"
       x2="1"
       y1="0"
       x1="0"><stop
         id="stop404"
         offset="0"
         style="stop-opacity:1;stop-color:#ffffff" /><stop
         id="stop406"
         offset="1"
         style="stop-opacity:1;stop-color:#d3d2d2" /></linearGradient><clipPath
       id="clipPath418"
       clipPathUnits="userSpaceOnUse"><path
         id="path416"
         d="m 1822.41,108.195 c -3.96,0 -7.11,5.129 -7.11,11.789 v 24.75 c 0,8.641 4.95,15.211 9.45,15.75 l 17.64,2.25 h 0.09 c 4.41,0 7.56,-5.308 7.56,-11.789 v -23.937 c 0,-8.371 -4.77,-14.942 -9.09,-15.75 l -17.64,-2.973 -0.9,-0.09" /></clipPath><linearGradient
       id="linearGradient424"
       spreadMethod="pad"
       gradientTransform="matrix(13.4111,-50.0508,-50.0508,-13.4111,1825.84,160.869)"
       gradientUnits="userSpaceOnUse"
       y2="0"
       x2="1"
       y1="0"
       x1="0"><stop
         id="stop420"
         offset="0"
         style="stop-opacity:1;stop-color:#ffffff" /><stop
         id="stop422"
         offset="1"
         style="stop-opacity:1;stop-color:#d3d2d2" /></linearGradient><clipPath
       id="clipPath434"
       clipPathUnits="userSpaceOnUse"><path
         id="path432"
         d="m 1768.23,325.637 c -5.49,0 -10.08,6.84 -10.08,14.847 v 25.832 c 0,7.829 4.32,14.219 9.63,14.219 l 19.44,-0.898 c 5.22,-0.18 9.54,-7.02 9.54,-14.762 v -24.93 c 0,-7.648 -4.23,-14.218 -9.36,-14.218 l -19.17,-0.09" /></clipPath><linearGradient
       id="linearGradient440"
       spreadMethod="pad"
       gradientTransform="matrix(15.1146,-56.4086,-56.4086,-15.1146,1769.79,381.289)"
       gradientUnits="userSpaceOnUse"
       y2="0"
       x2="1"
       y1="0"
       x1="0"><stop
         id="stop436"
         offset="0"
         style="stop-opacity:1;stop-color:#ffffff" /><stop
         id="stop438"
         offset="1"
         style="stop-opacity:1;stop-color:#d3d2d2" /></linearGradient><clipPath
       id="clipPath450"
       clipPathUnits="userSpaceOnUse"><path
         id="path448"
         d="m 1823.58,180.824 h -0.63 c -4.23,0 -7.65,5.582 -7.65,12.422 v 24.75 c 0,8.461 4.86,14.762 9.18,15.031 l 17.64,1.168 c 4.41,0 7.92,-5.668 7.92,-12.507 v -23.852 c 0,-8.281 -4.68,-14.488 -8.82,-14.941 l -17.64,-2.071" /></clipPath><linearGradient
       id="linearGradient456"
       spreadMethod="pad"
       gradientTransform="matrix(13.6992,-51.1262,-51.1262,-13.6992,1825.7,233.447)"
       gradientUnits="userSpaceOnUse"
       y2="0"
       x2="1"
       y1="0"
       x1="0"><stop
         id="stop452"
         offset="0"
         style="stop-opacity:1;stop-color:#ffffff" /><stop
         id="stop454"
         offset="1"
         style="stop-opacity:1;stop-color:#d3d2d2" /></linearGradient><clipPath
       id="clipPath466"
       clipPathUnits="userSpaceOnUse"><path
         id="path464"
         d="m 1842.3,397.457 h -0.27 l -17.64,0.898 c -4.32,0.27 -9.09,6.391 -9.09,14.762 v 24.75 c 0,7.02 3.51,12.778 7.83,12.778 l 18.18,-1.797 c 4.14,-0.453 8.73,-6.571 8.73,-14.762 v -23.852 c 0,-3.777 -0.99,-7.289 -2.79,-9.718 -0.81,-1.078 -2.52,-3.059 -4.95,-3.059" /></clipPath><linearGradient
       id="linearGradient472"
       spreadMethod="pad"
       gradientTransform="matrix(14.6496,-54.6729,-54.6729,-14.6496,1825.22,451.352)"
       gradientUnits="userSpaceOnUse"
       y2="0"
       x2="1"
       y1="0"
       x1="0"><stop
         id="stop468"
         offset="0"
         style="stop-opacity:1;stop-color:#ffffff" /><stop
         id="stop470"
         offset="1"
         style="stop-opacity:1;stop-color:#d3d2d2" /></linearGradient><clipPath
       id="clipPath482"
       clipPathUnits="userSpaceOnUse"><path
         id="path480"
         d="m 1824.12,325.906 c -4.68,0 -8.82,6.481 -8.82,13.949 v 24.75 c 0,7.29 3.87,13.5 8.46,13.5 l 17.82,-0.808 c 3.96,-0.18 8.46,-5.942 8.46,-13.949 v -23.942 c 0,-7.109 -3.87,-13.41 -8.28,-13.41 l -17.64,-0.09" /></clipPath><linearGradient
       id="linearGradient488"
       spreadMethod="pad"
       gradientTransform="matrix(14.321,-53.4466,-53.4466,-14.321,1825.41,378.696)"
       gradientUnits="userSpaceOnUse"
       y2="0"
       x2="1"
       y1="0"
       x1="0"><stop
         id="stop484"
         offset="0"
         style="stop-opacity:1;stop-color:#ffffff" /><stop
         id="stop486"
         offset="1"
         style="stop-opacity:1;stop-color:#d3d2d2" /></linearGradient><clipPath
       id="clipPath498"
       clipPathUnits="userSpaceOnUse"><path
         id="path496"
         d="m 1640.43,242.387 h -0.63 c -6.84,0 -12.24,6.84 -12.24,15.66 v 28.258 c 0,9.179 6.03,16.922 13.14,17.011 l 22.95,0.27 c 6.75,0 12.06,-7.02 12.06,-15.66 v -27.18 c 0,-8.82 -5.67,-16.558 -12.42,-17.012 l -22.86,-1.347" /></clipPath><linearGradient
       id="linearGradient504"
       spreadMethod="pad"
       gradientTransform="matrix(16.5351,-61.7098,-61.7098,-16.5351,1643.25,304.326)"
       gradientUnits="userSpaceOnUse"
       y2="0"
       x2="1"
       y1="0"
       x1="0"><stop
         id="stop500"
         offset="0"
         style="stop-opacity:1;stop-color:#ffffff" /><stop
         id="stop502"
         offset="1"
         style="stop-opacity:1;stop-color:#d3d2d2" /></linearGradient><clipPath
       id="clipPath514"
       clipPathUnits="userSpaceOnUse"><path
         id="path512"
         d="m 1823.85,253.367 h -0.27 c -4.5,0 -8.28,6.028 -8.28,13.231 v 24.75 c 0,8.277 4.68,14.129 8.91,14.218 l 17.64,0.18 c 4.41,0 8.19,-6.031 8.19,-13.23 v -23.942 c 0,-8.008 -4.5,-13.859 -8.55,-14.129 l -17.64,-1.078" /></clipPath><linearGradient
       id="linearGradient520"
       spreadMethod="pad"
       gradientTransform="matrix(13.9975,-52.2392,-52.2392,-13.9975,1825.57,306.045)"
       gradientUnits="userSpaceOnUse"
       y2="0"
       x2="1"
       y1="0"
       x1="0"><stop
         id="stop516"
         offset="0"
         style="stop-opacity:1;stop-color:#ffffff" /><stop
         id="stop518"
         offset="1"
         style="stop-opacity:1;stop-color:#d3d2d2" /></linearGradient><clipPath
       id="clipPath530"
       clipPathUnits="userSpaceOnUse"><path
         id="path528"
         d="m 1705.77,167.234 c -5.58,0 -9.9,6.121 -9.9,13.954 v 27 c 0,8.73 5.4,16.468 11.79,16.917 l 20.88,1.442 c 6.03,0 10.35,-6.121 10.35,-13.949 v -26.012 c 0,-8.461 -5.13,-16.109 -11.25,-16.828 l -20.88,-2.434 -0.99,-0.09" /></clipPath><linearGradient
       id="linearGradient536"
       spreadMethod="pad"
       gradientTransform="matrix(15.2461,-56.8991,-56.8991,-15.2461,1709.63,225.791)"
       gradientUnits="userSpaceOnUse"
       y2="0"
       x2="1"
       y1="0"
       x1="0"><stop
         id="stop532"
         offset="0"
         style="stop-opacity:1;stop-color:#ffffff" /><stop
         id="stop534"
         offset="1"
         style="stop-opacity:1;stop-color:#d3d2d2" /></linearGradient><clipPath
       id="clipPath546"
       clipPathUnits="userSpaceOnUse"><path
         id="path544"
         d="m 1664.37,406.727 h -0.54 l -22.86,1.168 c -7.29,0.363 -13.41,8.46 -13.41,17.73 v 28.262 c 0,8.371 5.13,15.031 11.61,15.031 l 0.99,-0.094 22.95,-2.25 c 6.84,-0.719 12.6,-8.726 12.6,-17.636 v -27.18 c 0,-4.32 -1.26,-8.192 -3.6,-11.07 -2.07,-2.614 -4.86,-3.961 -7.74,-3.961" /></clipPath><linearGradient
       id="linearGradient552"
       spreadMethod="pad"
       gradientTransform="matrix(17.3995,-64.9359,-64.9359,-17.3995,1642.82,470.215)"
       gradientUnits="userSpaceOnUse"
       y2="0"
       x2="1"
       y1="0"
       x1="0"><stop
         id="stop548"
         offset="0"
         style="stop-opacity:1;stop-color:#ffffff" /><stop
         id="stop550"
         offset="1"
         style="stop-opacity:1;stop-color:#d3d2d2" /></linearGradient><clipPath
       id="clipPath562"
       clipPathUnits="userSpaceOnUse"><path
         id="path560"
         d="m 1705.14,88.125 c -5.31,0 -9.27,5.6719 -9.27,13.141 v 27 c 0,8.82 5.49,17.011 12.06,17.82 l 20.97,2.609 h 0.09 c 5.94,0 9.9,-5.757 9.9,-13.14 v -26.008 c 0,-8.551 -5.22,-16.6525 -11.52,-17.7306 l -20.88,-3.6016 -1.35,-0.0898" /></clipPath><linearGradient
       id="linearGradient568"
       spreadMethod="pad"
       gradientTransform="matrix(14.8998,-55.6068,-55.6068,-14.8998,1709.79,146.68)"
       gradientUnits="userSpaceOnUse"
       y2="0"
       x2="1"
       y1="0"
       x1="0"><stop
         id="stop564"
         offset="0"
         style="stop-opacity:1;stop-color:#ffffff" /><stop
         id="stop566"
         offset="1"
         style="stop-opacity:1;stop-color:#d3d2d2" /></linearGradient><clipPath
       id="clipPath578"
       clipPathUnits="userSpaceOnUse"><path
         id="path576"
         d="m 1640.7,325.188 h -0.09 c -7.2,0 -13.05,7.468 -13.05,16.648 v 28.262 c 0,8.82 5.58,16.019 12.42,16.019 l 23.4,-0.992 c 6.84,-0.359 12.33,-7.828 12.33,-16.738 v -27.18 c 0,-8.73 -5.4,-15.93 -12.15,-15.93 l -22.86,-0.089" /></clipPath><linearGradient
       id="linearGradient584"
       spreadMethod="pad"
       gradientTransform="matrix(16.9521,-63.2663,-63.2663,-16.9521,1643.05,387.241)"
       gradientUnits="userSpaceOnUse"
       y2="0"
       x2="1"
       y1="0"
       x1="0"><stop
         id="stop580"
         offset="0"
         style="stop-opacity:1;stop-color:#ffffff" /><stop
         id="stop582"
         offset="1"
         style="stop-opacity:1;stop-color:#d3d2d2" /></linearGradient><clipPath
       id="clipPath594"
       clipPathUnits="userSpaceOnUse"><path
         id="path592"
         d="m 1767.69,174.348 h -0.81 c -4.86,0 -8.73,5.757 -8.73,13.136 v 25.832 c 0,8.282 4.77,15.571 10.44,15.93 l 19.17,1.262 c 0.04,0 0.08,0 0.12,0 5.16,0 8.88,-5.906 8.88,-13.141 v -24.929 c 0,-8.012 -4.5,-15.211 -9.9,-15.84 l -19.17,-2.25" /></clipPath><linearGradient
       id="linearGradient600"
       spreadMethod="pad"
       gradientTransform="matrix(14.4398,-53.89,-53.89,-14.4398,1770.14,229.795)"
       gradientUnits="userSpaceOnUse"
       y2="0"
       x2="1"
       y1="0"
       x1="0"><stop
         id="stop596"
         offset="0"
         style="stop-opacity:1;stop-color:#ffffff" /><stop
         id="stop598"
         offset="1"
         style="stop-opacity:1;stop-color:#d3d2d2" /></linearGradient><clipPath
       id="clipPath610"
       clipPathUnits="userSpaceOnUse"><path
         id="path608"
         d="m 1766.34,98.5664 c -4.59,0 -8.19,5.4886 -8.19,12.4176 v 25.922 c 0,8.192 5.04,16.02 10.71,16.739 l 19.17,2.339 h 0.09 c 5.22,0 8.64,-5.488 8.64,-12.418 v -24.929 c 0,-8.102 -4.59,-15.66 -10.17,-16.653 l -19.17,-3.3277 -1.08,-0.0899" /></clipPath><linearGradient
       id="linearGradient616"
       spreadMethod="pad"
       gradientTransform="matrix(14.1238,-52.7109,-52.7109,-14.1238,1770.29,154.092)"
       gradientUnits="userSpaceOnUse"
       y2="0"
       x2="1"
       y1="0"
       x1="0"><stop
         id="stop612"
         offset="0"
         style="stop-opacity:1;stop-color:#ffffff" /><stop
         id="stop614"
         offset="1"
         style="stop-opacity:1;stop-color:#d3d2d2" /></linearGradient><clipPath
       id="clipPath626"
       clipPathUnits="userSpaceOnUse"><path
         id="path624"
         d="m 1707.3,325.457 c -6.21,0 -11.43,7.109 -11.43,15.66 v 27 c 0,8.278 4.86,15.028 10.89,15.028 l 21.24,-0.899 c 5.94,-0.269 10.89,-7.469 10.89,-15.66 v -26.012 c 0,-8.187 -4.86,-15.027 -10.71,-15.027 l -20.88,-0.09" /></clipPath><linearGradient
       id="linearGradient632"
       spreadMethod="pad"
       gradientTransform="matrix(15.9892,-59.6723,-59.6723,-15.9892,1709.25,384.131)"
       gradientUnits="userSpaceOnUse"
       y2="0"
       x2="1"
       y1="0"
       x1="0"><stop
         id="stop628"
         offset="0"
         style="stop-opacity:1;stop-color:#ffffff" /><stop
         id="stop630"
         offset="1"
         style="stop-opacity:1;stop-color:#d3d2d2" /></linearGradient><clipPath
       id="clipPath642"
       clipPathUnits="userSpaceOnUse"><path
         id="path640"
         d="m 1728.9,403.395 h -0.36 l -20.97,1.082 c -6.39,0.269 -11.7,7.918 -11.7,16.558 v 27 c 0,8.012 4.41,14.223 10.17,14.223 l 21.69,-2.07 c 6.03,-0.633 11.16,-8.282 11.16,-16.653 v -26.008 c 0,-4.05 -1.17,-7.832 -3.24,-10.531 -1.89,-2.34 -4.23,-3.601 -6.75,-3.601" /></clipPath><linearGradient
       id="linearGradient648"
       spreadMethod="pad"
       gradientTransform="matrix(16.3885,-61.1627,-61.1627,-16.3885,1709.05,463.345)"
       gradientUnits="userSpaceOnUse"
       y2="0"
       x2="1"
       y1="0"
       x1="0"><stop
         id="stop644"
         offset="0"
         style="stop-opacity:1;stop-color:#ffffff" /><stop
         id="stop646"
         offset="1"
         style="stop-opacity:1;stop-color:#d3d2d2" /></linearGradient><clipPath
       id="clipPath658"
       clipPathUnits="userSpaceOnUse"><path
         id="path656"
         d="m 1566.9,151.125 h -1.44 c -7.38,0 -12.96,6.66 -12.96,15.57 v 29.7 c 0,9.902 7.02,18.632 15.3,19.261 l 25.2,1.711 c 7.92,0 13.5,-6.929 13.5,-15.66 v -28.531 c 0,-9.629 -6.48,-18.18 -14.4,-19.078 l -25.2,-2.973" /></clipPath><linearGradient
       id="linearGradient664"
       spreadMethod="pad"
       gradientTransform="matrix(17.1139,-63.87,-63.87,-17.1139,1570.77,216.68)"
       gradientUnits="userSpaceOnUse"
       y2="0"
       x2="1"
       y1="0"
       x1="0"><stop
         id="stop660"
         offset="0"
         style="stop-opacity:1;stop-color:#f9ac71" /><stop
         id="stop662"
         offset="1"
         style="stop-opacity:1;stop-color:#f36917" /></linearGradient><clipPath
       id="clipPath674"
       clipPathUnits="userSpaceOnUse"><path
         id="path672"
         d="m 1842.48,471.797 h -0.54 l -447.39,49.141 c -10.98,1.167 -20.25,11.789 -20.25,23.128 v 53.372 c 0,9.628 6.57,16.648 15.66,16.648 1.08,0 2.07,-0.18 3.15,-0.27 l 447.48,-75.691 c 4.23,-0.719 9,-7.379 9,-15.66 v -38.699 c 0,-3.598 -0.9,-6.84 -2.52,-9.18 -0.99,-1.262 -2.52,-2.789 -4.59,-2.789" /></clipPath><linearGradient
       id="linearGradient680"
       spreadMethod="pad"
       gradientTransform="matrix(66.062,-246.547,-246.547,-66.062,1576.73,664.687)"
       gradientUnits="userSpaceOnUse"
       y2="0"
       x2="1"
       y1="0"
       x1="0"><stop
         id="stop676"
         offset="0"
         style="stop-opacity:1;stop-color:#f9ac71" /><stop
         id="stop678"
         offset="1"
         style="stop-opacity:1;stop-color:#f36917" /></linearGradient></defs><g
     transform="matrix(1.3333333,0,0,-1.3333333,0,86.96)"
     id="g10"><g
       transform="scale(0.1)"
       id="g12"><path
         id="path14"
         style="fill:#a7a5a6;fill-opacity:1;fill-rule:nonzero;stroke:none"
         d="M 1332.36,34.0352 V 618.227 c 0,8.097 2.43,15.211 6.48,20.789 l -9.9,-4.86 c 0,0 -17.82,-8.461 -27.9,-22.679 -8.37,-11.61 -11.7,-35.012 -11.7,-35.012 V 78.1367 c 0,0 3.33,-23.3125 11.7,-34.9219 10.08,-14.2187 27.9,-22.6796 27.9,-22.6796 l 8.19,-4.5 c -2.97,5.1328 -4.77,11.1601 -4.77,18" /><g
         id="g16"><g
           clip-path="url(#clipPath22)"
           id="g18"><path
             id="path30"
             style="fill:url(#linearGradient28);fill-opacity:1;fill-rule:nonzero;stroke:none"
             d="m 1328.04,26.6563 c -5.4,3.0585 -16.2,9.9882 -22.95,19.4414 -7.56,10.5273 -10.8,32.5781 -10.8,32.7578 V 576.465 c 0.09,0 3.33,21.691 10.8,32.133 7.02,9.898 18.45,16.918 23.49,19.707 -0.81,-3.239 -1.26,-6.66 -1.26,-10.078 V 34.0352 c 0,-2.5196 0.27,-4.9493 0.72,-7.3789" /></g></g><path
         id="path32"
         style="fill:#f36917;fill-opacity:1;fill-rule:nonzero;stroke:none"
         d="m 3809.38,429.52 c -28.11,0 -48.56,-12.782 -64.4,-40.379 v 35.769 h -62.36 V 203.066 h 62.36 v 103.758 c 0,45.504 17.36,66.985 53.16,66.985 12.78,0 17.89,-1.539 29.63,-8.172 l 8.7,58.269 c -11.75,4.594 -16.87,5.614 -27.09,5.614 z m -303.6,-177.887 c -34.24,0 -61.85,27.605 -61.85,61.851 0,34.25 27.61,61.86 61.85,61.86 34.26,0 61.85,-27.61 61.85,-61.86 0,-34.246 -27.59,-61.851 -61.85,-61.851 z m 55.22,144.16 c -21.48,25.031 -43.46,35.766 -73.62,35.766 -61.34,0 -107.86,-51.114 -107.86,-117.555 0,-67.988 47.03,-118.098 108.89,-118.098 30.66,0 52.65,10.235 73.09,35.782 v -28.622 h 61.86 V 424.91 H 3561 Z m -346.04,-144.16 c -34.25,0 -61.85,27.605 -61.85,61.851 0,34.25 27.6,61.86 61.85,61.86 34.25,0 61.85,-27.61 61.85,-61.86 0,-34.246 -27.6,-61.851 -61.85,-61.851 z m 55.21,144.16 c -21.47,25.031 -43.45,35.766 -73.61,35.766 -61.34,0 -107.87,-51.114 -107.87,-117.555 0,-67.988 47.05,-118.098 108.89,-118.098 30.67,0 52.66,10.235 73.11,35.782 v -28.622 h 61.84 v 382.875 h -62.36 z m -310.25,34.234 c -30.15,0 -50.11,-9.699 -69.51,-34.234 v 29.117 h -61.87 V 203.066 h 61.87 v 112.981 c 0,43.441 15.31,63.383 47.02,63.383 30.67,0 42.42,-15.348 42.42,-55.207 V 203.066 h 61.86 v 139.039 c 0,30.676 -4.61,46.008 -17.89,61.352 -14.33,16.871 -37.83,26.57 -63.9,26.57 z m -342.45,-87.922 c 5.62,28.122 24.54,44.477 51.63,44.477 27.6,0 46,-15.332 52.65,-44.477 z m 49.57,88.954 c -70.54,0 -115.52,-46.528 -115.52,-119.118 0,-71.05 47.02,-116.531 119.61,-116.531 51.63,0 89.47,23.508 107.86,68.485 l -57.24,9.203 c -14.32,-21.465 -29.14,-30.149 -52.15,-30.149 -34.24,0 -53.16,20.946 -54.18,59.793 h 165.62 v 8.176 c 0,74.648 -42.93,120.141 -114,120.141 z M 2442.65,203.066 h 61.85 v 382.875 h -61.85 z m -176.83,48.567 c -34.24,0 -61.86,27.605 -61.86,61.851 0,34.25 27.62,61.86 61.86,61.86 34.25,0 61.85,-27.61 61.85,-61.86 0,-34.246 -27.6,-61.851 -61.85,-61.851 z m 55.21,144.16 c -21.47,25.031 -43.46,35.766 -73.61,35.766 -61.36,0 -107.86,-51.114 -107.86,-117.555 0,-67.988 47.03,-118.098 108.88,-118.098 30.67,0 52.65,10.235 73.1,35.782 v -28.622 h 61.85 V 424.91 h -62.36 z m -394.6,-83.32 c 0,-65.95 52.64,-116.055 121.14,-116.055 20.97,0 36.81,3.57 56.75,12.793 v 60.816 c -16.88,-15.332 -30.68,-20.957 -50.61,-20.957 -36.3,0 -63.39,27.09 -63.39,64.414 0,36.809 27.09,64.414 63.89,64.414 18.43,0 32.71,-5.628 50.11,-20.453 v 60.832 c -17.89,9.196 -34.25,13.282 -55.73,13.282 -69,0 -122.16,-51.633 -122.16,-119.086 z m -765.67,29.632 c -29.14,9.715 -34.76,13.801 -34.76,24.536 0,10.746 10.23,18.925 23.51,18.925 11.76,0 23.01,-4.609 36.29,-14.824 l 30.16,35.781 c -19.93,14.817 -46.53,22.997 -75.15,22.997 -43.45,0 -75.13,-29.641 -75.13,-70.032 0,-33.734 11.74,-45.484 64.91,-64.41 28.11,-10.226 34.26,-14.812 34.26,-27.59 0,-13.3 -12.27,-23.523 -28.62,-23.523 -18.42,0 -34.78,8.176 -52.15,25.051 l -32.2,-37.328 c 21.46,-23.512 51.64,-36.278 83.32,-36.278 53.67,0 92.01,32.195 92.01,78.192 0,34.257 -17.89,52.152 -66.45,68.503 z M 891.914,251.633 c -34.258,0 -61.855,27.605 -61.855,61.851 0,33.727 27.597,61.86 61.855,61.86 34.258,0 61.856,-27.61 61.856,-61.86 0,-34.246 -27.598,-61.851 -61.856,-61.851 z m 0.508,180.445 c -75.137,0 -127.277,-48.562 -127.277,-119.109 0,-70.02 52.14,-117.559 126.769,-117.559 74.629,0 126.776,48.035 126.776,118.074 0,70.032 -52.147,118.594 -126.268,118.594 z M 657.297,203.066 h 61.844 V 424.91 h -61.844 z m 30.683,351.696 c -20.453,0 -37.316,-16.356 -37.316,-37.317 0,-20.449 16.863,-37.308 37.316,-37.308 20.946,0 37.821,16.859 37.821,37.308 0,20.961 -16.875,37.317 -37.821,37.317 z M 537.188,203.066 h 61.843 V 585.941 H 537.188 Z M 326.113,342.105 c 5.606,28.122 24.532,44.477 51.621,44.477 27.598,0 46.004,-15.332 52.657,-44.477 z m 49.571,88.954 c -70.547,0 -115.528,-46.528 -115.528,-119.118 0,-71.05 47.032,-116.531 119.61,-116.531 51.64,0 89.472,23.508 107.871,68.485 l -57.246,9.203 c -14.317,-21.465 -29.141,-30.149 -52.149,-30.149 -34.258,0 -53.164,20.946 -54.179,59.793 h 165.625 v 8.176 c 0,74.648 -42.942,120.141 -114.004,120.141 z m -244.317,-1.032 c -30.156,0 -50.0779,-9.699 -69.5115,-34.234 V 585.941 H 0 V 203.066 h 61.8555 v 112.981 c 0,43.441 15.3437,63.383 47.0315,63.383 30.664,0 42.441,-15.348 42.441,-55.207 V 203.066 h 61.836 v 139.039 c 0,30.676 -4.59,46.008 -17.891,61.352 -14.316,16.871 -37.832,26.57 -63.906,26.57" /><path
         id="path34"
         style="fill:#7b7979;fill-opacity:1;fill-rule:nonzero;stroke:none"
         d="m 1866.96,119.984 c 0,-15.839 -9.18,-30.5074 -20.7,-32.6676 L 1382.31,0.644531 C 1360.44,-3.40234 1342.35,11.5352 1342.35,34.0352 V 618.227 c 0,22.5 18.09,37.441 39.96,33.39 l 463.95,-86.762 c 11.52,-2.07 20.7,-16.738 20.7,-32.667 V 119.984" /><path
         id="path36"
         style="fill:#ffffff;fill-opacity:1;fill-rule:nonzero;stroke:none"
         d="m 1450.98,436.965 c 0,-13.41 -10.26,-23.758 -23.13,-23.039 l -30.96,1.621 c -13.5,0.629 -24.57,12.598 -24.57,26.641 v 32.937 c 0,14.043 11.07,24.301 24.57,22.949 l 30.96,-3.058 c 12.87,-1.258 23.13,-13.141 23.13,-26.551 v -31.5" /><path
         id="path38"
         style="fill:#ffffff;fill-opacity:1;fill-rule:nonzero;stroke:none"
         d="m 1535.31,431.387 c 0,-12.692 -9.27,-22.59 -20.88,-21.961 l -27.81,1.441 c -12.15,0.629 -22.14,11.879 -22.14,25.199 v 31.231 c 0,13.32 9.99,23.039 22.14,21.871 l 27.81,-2.793 c 11.61,-1.168 20.88,-12.328 20.88,-25.109 v -29.879" /><path
         id="path40"
         style="fill:#ffffff;fill-opacity:1;fill-rule:nonzero;stroke:none"
         d="m 1611.45,426.348 c 0,-12.153 -8.37,-21.512 -18.81,-20.973 l -25.2,1.352 c -10.98,0.539 -19.98,11.25 -19.98,23.847 v 29.703 c 0,12.598 9,21.957 19.98,20.879 l 25.2,-2.519 c 10.44,-1.082 18.81,-11.699 18.81,-23.852 v -28.437" /><path
         id="path42"
         style="fill:#ffffff;fill-opacity:1;fill-rule:nonzero;stroke:none"
         d="m 1680.75,421.758 c 0,-11.524 -7.65,-20.524 -17.19,-20.07 l -22.86,1.167 c -9.99,0.54 -18.09,10.711 -18.09,22.77 v 28.262 c 0,11.968 8.1,20.968 18.09,19.98 l 22.86,-2.34 c 9.54,-0.902 17.19,-11.07 17.19,-22.589 v -27.18" /><path
         id="path44"
         style="fill:#ffffff;fill-opacity:1;fill-rule:nonzero;stroke:none"
         d="m 1743.93,417.527 c 0,-10.98 -7.02,-19.621 -15.66,-19.172 l -20.97,1.083 c -9,0.449 -16.47,10.167 -16.47,21.597 v 27 c 0,11.52 7.47,20.07 16.47,19.172 l 20.97,-2.07 c 8.64,-0.903 15.66,-10.532 15.66,-21.602 v -26.008" /><path
         id="path46"
         style="fill:#ffffff;fill-opacity:1;fill-rule:nonzero;stroke:none"
         d="m 1801.8,413.746 c 0,-10.621 -6.39,-18.808 -14.4,-18.449 l -19.17,0.988 c -8.28,0.449 -15.12,9.723 -15.12,20.699 v 25.743 c 0,10.98 6.84,19.257 15.12,18.359 l 19.17,-1.891 c 8.01,-0.808 14.4,-9.988 14.4,-20.609 v -24.84" /><path
         id="path48"
         style="fill:#ffffff;fill-opacity:1;fill-rule:nonzero;stroke:none"
         d="m 1854.99,410.234 c 0,-10.168 -5.85,-18.089 -13.23,-17.726 l -17.64,0.898 c -7.56,0.36 -13.86,9.27 -13.86,19.711 v 24.75 c 0,10.528 6.3,18.449 13.86,17.731 l 17.64,-1.801 c 7.38,-0.723 13.23,-9.539 13.23,-19.711 v -23.852" /><path
         id="path50"
         style="fill:#ffffff;fill-opacity:1;fill-rule:nonzero;stroke:none"
         d="m 1450.98,343.637 c 0,-13.41 -10.26,-24.301 -23.13,-24.301 l -30.96,-0.18 c -13.5,0 -24.57,11.25 -24.57,25.289 v 33.032 c 0,13.949 11.07,24.839 24.57,24.3 l 30.96,-1.351 c 12.87,-0.629 23.13,-11.879 23.13,-25.289 v -31.5" /><path
         id="path52"
         style="fill:#ffffff;fill-opacity:1;fill-rule:nonzero;stroke:none"
         d="m 1535.31,342.734 c 0,-12.687 -9.27,-23.039 -20.88,-23.129 l -27.81,-0.089 c -12.15,0 -22.14,10.711 -22.14,23.941 v 31.32 c 0,13.231 9.99,23.578 22.14,23.039 l 27.81,-1.171 c 11.61,-0.54 20.88,-11.25 20.88,-23.938 v -29.973" /><path
         id="path54"
         style="fill:#ffffff;fill-opacity:1;fill-rule:nonzero;stroke:none"
         d="m 1611.45,341.926 c 0,-12.059 -8.37,-21.961 -18.81,-21.961 l -25.2,-0.09 c -10.98,-0.09 -19.98,10.172 -19.98,22.77 v 29.703 c 0,12.597 9,22.41 19.98,21.957 l 25.2,-1.168 c 10.44,-0.449 18.81,-10.621 18.81,-22.68 v -28.531" /><path
         id="path56"
         style="fill:#ffffff;fill-opacity:1;fill-rule:nonzero;stroke:none"
         d="m 1680.75,341.207 c 0,-11.519 -7.65,-20.883 -17.19,-20.973 l -22.86,-0.089 c -9.99,0 -18.09,9.632 -18.09,21.691 v 28.262 c 0,12.058 8.1,21.418 18.09,20.968 l 22.86,-0.992 c 9.54,-0.449 17.19,-10.078 17.19,-21.687 v -27.18" /><path
         id="path58"
         style="fill:#ffffff;fill-opacity:1;fill-rule:nonzero;stroke:none"
         d="m 1743.93,340.574 c 0,-11.066 -7.02,-20.066 -15.66,-20.066 l -20.97,-0.09 c -9,0 -16.47,9.27 -16.47,20.699 v 27 c 0,11.43 7.47,20.43 16.47,20.071 l 20.97,-0.903 c 8.64,-0.449 15.66,-9.719 15.66,-20.699 v -26.012" /><path
         id="path60"
         style="fill:#ffffff;fill-opacity:1;fill-rule:nonzero;stroke:none"
         d="m 1801.8,339.945 c 0,-10.527 -6.39,-19.168 -14.4,-19.168 l -19.17,-0.089 c -8.28,-0.09 -15.12,8.82 -15.12,19.796 v 25.832 c 0,10.981 6.84,19.532 15.12,19.168 l 19.17,-0.808 c 8.01,-0.36 14.4,-9.27 14.4,-19.801 v -24.93" /><path
         id="path62"
         style="fill:#ffffff;fill-opacity:1;fill-rule:nonzero;stroke:none"
         d="m 1854.99,339.406 c 0,-10.172 -5.85,-18.449 -13.23,-18.449 l -17.64,-0.09 c -7.56,0 -13.86,8.457 -13.86,18.988 v 24.75 c 0,10.532 6.3,18.813 13.86,18.45 l 17.64,-0.809 c 7.38,-0.269 13.23,-8.82 13.23,-18.898 v -23.942" /><path
         id="path64"
         style="fill:#ffffff;fill-opacity:1;fill-rule:nonzero;stroke:none"
         d="m 1450.98,250.305 c 0,-13.41 -10.26,-24.84 -23.13,-25.649 l -30.96,-1.801 c -13.5,-0.808 -24.57,9.903 -24.57,23.852 v 33.027 c 0,14.043 11.07,25.473 24.57,25.653 l 30.96,0.359 c 12.87,0.18 23.13,-10.531 23.13,-23.941 v -31.5" /><path
         id="path66"
         style="fill:#ffffff;fill-opacity:1;fill-rule:nonzero;stroke:none"
         d="m 1535.31,254.086 c 0,-12.691 -9.27,-23.578 -20.88,-24.211 l -27.81,-1.707 c -12.15,-0.723 -22.14,9.449 -22.14,22.77 v 31.23 c 0,13.316 9.99,24.207 22.14,24.297 l 27.81,0.359 c 11.61,0.184 20.88,-10.078 20.88,-22.769 v -29.969" /><path
         id="path68"
         style="fill:#ffffff;fill-opacity:1;fill-rule:nonzero;stroke:none"
         d="m 1611.45,257.598 c 0,-12.153 -8.37,-22.41 -18.81,-23.043 l -25.2,-1.528 c -10.98,-0.632 -19.98,9 -19.98,21.688 v 29.609 c 0,12.692 9,23.043 19.98,23.133 l 25.2,0.27 c 10.44,0.179 18.81,-9.539 18.81,-21.692 v -28.437" /><path
         id="path70"
         style="fill:#ffffff;fill-opacity:1;fill-rule:nonzero;stroke:none"
         d="m 1680.75,260.746 c 0,-11.609 -7.65,-21.422 -17.19,-21.961 l -22.86,-1.347 c -9.99,-0.633 -18.09,8.636 -18.09,20.609 v 28.348 c 0,11.972 8.1,21.781 18.09,21.96 l 22.86,0.27 c 9.54,0.09 17.19,-9.18 17.19,-20.699 v -27.18" /><path
         id="path72"
         style="fill:#ffffff;fill-opacity:1;fill-rule:nonzero;stroke:none"
         d="m 1743.93,263.535 c 0,-10.98 -7.02,-20.34 -15.66,-20.879 l -20.97,-1.261 c -9,-0.54 -16.47,8.281 -16.47,19.8 v 27 c 0,11.43 7.47,20.789 16.47,20.973 l 20.97,0.18 c 8.64,0.179 15.66,-8.731 15.66,-19.801 v -26.012" /><path
         id="path74"
         style="fill:#ffffff;fill-opacity:1;fill-rule:nonzero;stroke:none"
         d="m 1801.8,266.234 c 0,-10.617 -6.39,-19.617 -14.4,-20.066 l -19.17,-1.172 c -8.28,-0.449 -15.12,8.012 -15.12,18.988 v 25.832 c 0,10.981 6.84,19.981 15.12,20.071 l 19.17,0.179 c 8.01,0.09 14.4,-8.371 14.4,-18.992 v -24.84" /><path
         id="path76"
         style="fill:#ffffff;fill-opacity:1;fill-rule:nonzero;stroke:none"
         d="m 1854.99,268.574 c 0,-10.168 -5.85,-18.719 -13.23,-19.168 l -17.64,-1.082 c -7.56,-0.449 -13.86,7.742 -13.86,18.274 v 24.75 c 0,10.527 6.3,19.078 13.86,19.168 l 17.64,0.269 c 7.38,0 13.23,-8.097 13.23,-18.269 v -23.942" /><path
         id="path78"
         style="fill:#ffffff;fill-opacity:1;fill-rule:nonzero;stroke:none"
         d="m 1450.98,156.977 c 0,-13.411 -10.26,-25.379 -23.13,-26.911 l -30.96,-3.601 c -13.5,-1.527 -24.57,8.551 -24.57,22.59 v 32.941 c 0,14.039 11.07,26.192 24.57,27.09 l 30.96,2.07 c 12.87,0.899 23.13,-9.269 23.13,-22.679 v -31.5" /><path
         id="path80"
         style="fill:#ffffff;fill-opacity:1;fill-rule:nonzero;stroke:none"
         d="m 1535.31,165.527 c 0,-12.781 -9.27,-24.121 -20.88,-25.472 l -27.81,-3.239 c -12.15,-1.351 -22.14,8.282 -22.14,21.508 v 31.231 c 0,13.32 9.99,24.75 22.14,25.562 l 27.81,1.891 c 11.61,0.808 20.88,-8.91 20.88,-21.602 v -29.879" /><path
         id="path82"
         style="fill:#f36917;fill-opacity:1;fill-rule:nonzero;stroke:none"
         d="m 1611.45,173.176 c 0,-12.059 -8.37,-22.86 -18.81,-24.031 l -25.2,-2.969 c -10.98,-1.258 -19.98,7.922 -19.98,20.519 v 29.7 c 0,12.601 9,23.492 19.98,24.21 l 25.2,1.711 c 10.44,0.719 18.81,-8.55 18.81,-20.609 v -28.531" /><path
         id="path84"
         style="fill:#ffffff;fill-opacity:1;fill-rule:nonzero;stroke:none"
         d="m 1680.75,180.195 c 0,-11.519 -7.65,-21.777 -17.19,-22.859 l -22.86,-2.699 c -9.99,-1.172 -18.09,7.648 -18.09,19.711 v 28.257 c 0,11.969 8.1,22.321 18.09,22.95 l 22.86,1.621 c 9.54,0.629 17.19,-8.281 17.19,-19.801 v -27.18" /><path
         id="path86"
         style="fill:#ffffff;fill-opacity:1;fill-rule:nonzero;stroke:none"
         d="m 1743.93,186.586 c 0,-11.07 -7.02,-20.789 -15.66,-21.781 l -20.97,-2.43 c -9,-1.078 -16.47,7.383 -16.47,18.813 v 27 c 0,11.519 7.47,21.328 16.47,21.867 l 20.97,1.441 c 8.64,0.629 15.66,-7.828 15.66,-18.898 v -26.012" /><path
         id="path88"
         style="fill:#ffffff;fill-opacity:1;fill-rule:nonzero;stroke:none"
         d="m 1801.8,192.438 c 0,-10.622 -6.39,-19.891 -14.4,-20.793 l -19.17,-2.25 c -8.28,-0.989 -15.12,7.113 -15.12,18.089 v 25.832 c 0,10.981 6.84,20.34 15.12,20.879 l 19.17,1.352 c 8.01,0.539 14.4,-7.652 14.4,-18.18 v -24.929" /><path
         id="path90"
         style="fill:#ffffff;fill-opacity:1;fill-rule:nonzero;stroke:none"
         d="m 1854.99,197.836 c 0,-10.168 -5.85,-19.078 -13.23,-19.981 l -17.64,-1.98 c -7.56,-0.898 -13.86,6.93 -13.86,17.371 v 24.75 c 0,10.531 6.3,19.531 13.86,19.981 l 17.64,1.257 c 7.38,0.454 13.23,-7.379 13.23,-17.546 v -23.852" /><path
         id="path92"
         style="fill:#ffffff;fill-opacity:1;fill-rule:nonzero;stroke:none"
         d="m 1450.98,63.6445 c 0,-13.4101 -10.26,-26.0078 -23.13,-28.1679 l -30.96,-5.3086 c -13.5,-2.3438 -24.57,7.1093 -24.57,21.1484 v 32.9414 c 0,14.0391 11.07,26.8162 24.57,28.4372 l 30.96,3.871 c 12.87,1.532 23.13,-8.011 23.13,-21.4215 v -31.5" /><path
         id="path94"
         style="fill:#ffffff;fill-opacity:1;fill-rule:nonzero;stroke:none"
         d="m 1535.31,76.875 c 0,-12.6875 -9.27,-24.6602 -20.88,-26.5508 l -27.81,-4.8594 c -12.15,-2.0703 -22.14,7.0196 -22.14,20.25 v 31.3204 c 0,13.2308 9.99,25.2888 22.14,26.7308 l 27.81,3.511 c 11.61,1.348 20.88,-7.742 20.88,-20.519 V 76.875" /><path
         id="path96"
         style="fill:#ffffff;fill-opacity:1;fill-rule:nonzero;stroke:none"
         d="m 1611.45,88.8477 c 0,-12.1524 -8.37,-23.4024 -18.81,-25.2032 l -25.2,-4.3203 c -10.98,-1.8867 -19.98,6.8438 -19.98,19.4414 v 29.6994 c 0,12.601 9,23.941 19.98,25.293 l 25.2,3.148 c 10.44,1.262 18.81,-7.468 18.81,-19.621 V 88.8477" /><path
         id="path98"
         style="fill:#ffffff;fill-opacity:1;fill-rule:nonzero;stroke:none"
         d="m 1680.75,99.6445 c 0,-11.5195 -7.65,-22.2265 -17.19,-23.8476 l -22.86,-3.8711 c -9.99,-1.711 -18.09,6.6601 -18.09,18.6289 v 28.2613 c 0,12.059 8.1,22.77 18.09,24.032 l 22.86,2.789 c 9.54,1.168 17.19,-7.199 17.19,-18.813 V 99.6445" /><path
         id="path100"
         style="fill:#ffffff;fill-opacity:1;fill-rule:nonzero;stroke:none"
         d="m 1743.93,109.547 c 0,-10.9806 -7.02,-21.1525 -15.66,-22.6798 l -20.97,-3.5117 c -9,-1.6211 -16.47,6.4804 -16.47,17.9105 v 27 c 0,11.429 7.47,21.691 16.47,22.769 l 20.97,2.61 c 8.64,1.082 15.66,-7.02 15.66,-18.09 v -26.008" /><path
         id="path102"
         style="fill:#ffffff;fill-opacity:1;fill-rule:nonzero;stroke:none"
         d="m 1801.8,118.637 c 0,-10.532 -6.39,-20.2503 -14.4,-21.6018 l -19.17,-3.2383 c -8.28,-1.4414 -15.12,6.3011 -15.12,17.2771 v 25.742 c 0,10.981 6.84,20.789 15.12,21.782 l 19.17,2.34 c 8.01,0.988 14.4,-6.75 14.4,-17.372 v -24.929" /><path
         id="path104"
         style="fill:#ffffff;fill-opacity:1;fill-rule:nonzero;stroke:none"
         d="m 1854.99,127.008 c 0,-10.172 -5.85,-19.352 -13.23,-20.613 l -17.64,-3.059 c -7.56,-1.262 -13.86,6.121 -13.86,16.648 v 24.75 c 0,10.532 6.3,19.801 13.86,20.793 l 17.64,2.161 c 7.38,0.898 13.23,-6.571 13.23,-16.743 v -23.937" /><path
         id="path106"
         style="fill:#f36917;fill-opacity:1;fill-rule:nonzero;stroke:none"
         d="m 1854.63,522.465 c 0,10.082 -5.94,19.351 -13.23,20.609 l -447.48,75.602 c -13.5,2.34 -24.66,-7.199 -24.66,-21.238 v -53.372 c 0,-14.039 11.16,-26.64 24.66,-28.171 l 447.48,-49.047 c 7.29,-0.813 13.23,6.84 13.23,16.918 v 38.699" /><g
         id="g108"><g
           clip-path="url(#clipPath114)"
           id="g110"><path
             id="path122"
             style="fill:url(#linearGradient120);fill-opacity:1;fill-rule:nonzero;stroke:none"
             d="m 1564.47,64.0977 c -6.93,0 -11.97,6.207 -11.97,14.6679 v 29.6994 c 0,9.992 7.11,19.351 15.57,20.34 l 25.2,3.152 1.44,0.09 c 6.66,0 11.79,-6.301 11.79,-14.762 V 88.8477 c 0,-9.6329 -6.75,-18.9024 -14.67,-20.25 l -25.2,-4.3204 -2.16,-0.1796" /></g></g><g
         id="g124"><g
           clip-path="url(#clipPath130)"
           id="g126"><path
             id="path138"
             style="fill:url(#linearGradient136);fill-opacity:1;fill-rule:nonzero;stroke:none"
             d="m 1515.51,414.375 h -0.81 l -27.81,1.531 c -9.63,0.449 -17.37,9.539 -17.37,20.16 v 31.231 c 0,9.719 6.48,17.008 15.12,17.008 l 1.44,-0.09 27.9,-2.789 c 9,-0.899 16.29,-9.899 16.29,-20.16 v -29.879 c 0,-4.77 -1.62,-9.09 -4.41,-12.242 -2.79,-3.059 -6.48,-4.77 -10.35,-4.77" /></g></g><g
         id="g140"><g
           clip-path="url(#clipPath146)"
           id="g142"><path
             id="path154"
             style="fill:url(#linearGradient152);fill-opacity:1;fill-rule:nonzero;stroke:none"
             d="m 1640.07,159.586 h -1.08 c -6.57,0 -11.43,6.301 -11.43,14.762 v 28.257 c 0,9.27 6.21,17.461 13.5,18 l 22.86,1.532 c 6.93,0 11.79,-6.481 11.79,-14.762 v -27.18 c 0,-8.91 -5.76,-17.097 -12.69,-17.91 l -22.95,-2.699" /></g></g><g
         id="g156"><g
           clip-path="url(#clipPath162)"
           id="g158"><path
             id="path170"
             style="fill:url(#linearGradient168);fill-opacity:1;fill-rule:nonzero;stroke:none"
             d="m 1593.54,410.324 -0.63,0.094 -25.2,1.258 c -8.28,0.449 -15.21,9.09 -15.21,18.898 v 29.703 c 0,9.09 5.67,15.93 13.23,15.93 l 1.17,-0.09 25.29,-2.429 c 7.83,-0.813 14.31,-9.27 14.31,-18.903 v -28.437 c 0,-4.5 -1.44,-8.641 -4.05,-11.703 -2.34,-2.7 -5.58,-4.321 -8.91,-4.321" /></g></g><g
         id="g172"><g
           clip-path="url(#clipPath178)"
           id="g174"><path
             id="path186"
             style="fill:url(#linearGradient184);fill-opacity:1;fill-rule:nonzero;stroke:none"
             d="m 1486.62,324.555 h -0.09 c -9.36,0 -17.01,8.461 -17.01,18.902 v 31.32 c 0,10.078 7.11,18.09 16.2,18.09 l 28.53,-1.262 c 8.82,-0.359 16.02,-8.91 16.02,-18.898 v -29.973 c 0,-9.898 -7.11,-18.089 -15.84,-18.089 l -27.81,-0.09" /></g></g><g
         id="g188"><g
           clip-path="url(#clipPath194)"
           id="g190"><path
             id="path202"
             style="fill:url(#linearGradient200);fill-opacity:1;fill-rule:nonzero;stroke:none"
             d="m 1567.44,324.824 h -0.09 c -8.19,0 -14.85,8.012 -14.85,17.821 v 29.703 c 0,9.449 6.21,16.918 14.13,16.918 l 25.83,-1.078 c 7.74,-0.364 14.04,-8.282 14.04,-17.731 v -28.531 c 0,-9.36 -6.21,-16.918 -13.86,-16.918 l -25.2,-0.184" /></g></g><g
         id="g204"><g
           clip-path="url(#clipPath210)"
           id="g206"><path
             id="path218"
             style="fill:url(#linearGradient216);fill-opacity:1;fill-rule:nonzero;stroke:none"
             d="m 1567.17,237.977 h -0.72 c -7.83,0 -13.95,7.378 -13.95,16.738 v 29.609 c 0,9.903 6.75,18 15.03,18.094 l 25.2,0.359 c 7.65,0 13.77,-7.472 13.77,-16.742 v -28.437 c 0,-9.543 -6.3,-17.641 -14.13,-18.09 l -25.2,-1.531" /></g></g><g
         id="g220"><g
           clip-path="url(#clipPath226)"
           id="g222"><path
             id="path234"
             style="fill:url(#linearGradient232);fill-opacity:1;fill-rule:nonzero;stroke:none"
             d="m 1638.09,76.6953 c -6.12,0 -10.53,5.8516 -10.53,13.8594 v 28.2613 c 0,9.45 6.3,18.09 13.68,19.079 l 22.95,2.793 1.17,0.089 c 5.94,0 10.35,-5.941 10.35,-13.953 V 99.6445 c 0,-9 -5.94,-17.6367 -12.96,-18.8984 l -22.95,-3.9609 -1.71,-0.0899" /></g></g><g
         id="g236"><g
           clip-path="url(#clipPath242)"
           id="g238"><path
             id="path250"
             style="fill:url(#linearGradient248);fill-opacity:1;fill-rule:nonzero;stroke:none"
             d="m 1396.62,227.805 h -1.08 c -10.26,0 -18.27,8.281 -18.27,18.902 v 33.027 c 0,11.25 8.82,20.524 19.71,20.704 l 30.96,0.359 c 10.17,0 18,-8.371 18,-18.992 v -31.5 c 0,-10.797 -8.19,-20.071 -18.36,-20.61 l -30.96,-1.89" /></g></g><g
         id="g252"><g
           clip-path="url(#clipPath258)"
           id="g254"><path
             id="path266"
             style="fill:url(#linearGradient264);fill-opacity:1;fill-rule:nonzero;stroke:none"
             d="m 1394.19,131.324 c -9.63,0 -16.92,7.653 -16.92,17.731 v 32.941 c 0,11.43 9,21.328 19.98,22.051 l 30.96,2.16 h 1.17 c 9.45,0 16.56,-7.652 16.56,-17.73 v -31.5 c 0,-10.891 -8.37,-20.789 -18.63,-21.961 l -30.96,-3.598 -2.16,-0.094" /></g></g><g
         id="g268"><g
           clip-path="url(#clipPath274)"
           id="g270"><path
             id="path282"
             style="fill:url(#linearGradient280);fill-opacity:1;fill-rule:nonzero;stroke:none"
             d="m 1392.84,34.8477 c -9,0 -15.57,6.9296 -15.57,16.4687 v 32.9414 c 0,11.4297 9.27,22.1372 20.25,23.4882 l 30.96,3.871 2.16,0.09 c 8.91,0 15.3,-6.93 15.3,-16.5625 v -31.5 c 0,-11.0703 -8.46,-21.5078 -18.9,-23.3086 l -30.96,-5.3086 c -1.08,-0.0898 -2.16,-0.1796 -3.24,-0.1796" /></g></g><g
         id="g284"><g
           clip-path="url(#clipPath290)"
           id="g286"><path
             id="path298"
             style="fill:url(#linearGradient296);fill-opacity:1;fill-rule:nonzero;stroke:none"
             d="m 1483.11,50.2344 c -7.83,0 -13.59,6.4804 -13.59,15.4804 v 31.3204 c 0,10.6208 8.1,20.6098 17.73,21.7808 l 27.81,3.418 1.8,0.184 c 7.65,0 13.41,-6.75 13.41,-15.66 V 76.875 c 0,-10.3477 -7.47,-20.0703 -16.65,-21.6875 l -27.9,-4.7695 -2.61,-0.1836" /></g></g><g
         id="g300"><g
           clip-path="url(#clipPath306)"
           id="g302"><path
             id="path314"
             style="fill:url(#linearGradient312);fill-opacity:1;fill-rule:nonzero;stroke:none"
             d="m 1486.35,233.207 h -0.99 c -8.91,0 -15.84,7.738 -15.84,17.731 v 31.23 c 0,10.527 7.65,19.168 17.19,19.348 l 27.81,0.269 c 8.73,0 15.75,-7.918 15.75,-17.73 v -29.969 c 0,-10.078 -7.2,-18.719 -16.11,-19.262 l -27.81,-1.617" /></g></g><g
         id="g316"><g
           clip-path="url(#clipPath322)"
           id="g318"><path
             id="path330"
             style="fill:url(#linearGradient328);fill-opacity:1;fill-rule:nonzero;stroke:none"
             d="m 1484.28,141.676 c -8.37,0 -14.76,7.199 -14.76,16.648 v 31.231 c 0,10.711 7.83,19.98 17.46,20.613 l 27.81,1.887 h 0.09 c 9.09,0 15.39,-7.289 15.39,-16.649 v -29.879 c 0,-10.261 -7.29,-19.441 -16.38,-20.519 l -27.9,-3.242 -1.71,-0.09" /></g></g><g
         id="g332"><g
           clip-path="url(#clipPath338)"
           id="g334"><path
             id="path346"
             style="fill:url(#linearGradient344);fill-opacity:1;fill-rule:nonzero;stroke:none"
             d="m 1429.11,418.875 h -0.99 l -30.96,1.621 c -10.98,0.629 -19.89,10.262 -19.89,21.692 v 32.937 c 0,10.352 7.47,18.09 17.28,18.09 l 1.89,-0.09 30.96,-3.059 c 10.26,-1.082 18.54,-10.711 18.54,-21.601 v -31.5 c 0,-4.949 -1.71,-9.629 -4.95,-12.957 -3.15,-3.332 -7.38,-5.133 -11.88,-5.133" /></g></g><g
         id="g348"><g
           clip-path="url(#clipPath354)"
           id="g350"><path
             id="path362"
             style="fill:url(#linearGradient360);fill-opacity:1;fill-rule:nonzero;stroke:none"
             d="m 1396.89,324.195 h -0.09 c -10.8,0 -19.53,9.09 -19.53,20.25 v 33.032 c 0,10.8 8.19,19.347 18.63,19.347 l 31.77,-1.437 c 10.08,-0.449 18.27,-9.539 18.27,-20.25 v -31.5 c 0,-10.621 -8.1,-19.352 -18.09,-19.352 l -30.96,-0.09" /></g></g><g
         id="g364"><g
           clip-path="url(#clipPath370)"
           id="g366"><path
             id="path378"
             style="fill:url(#linearGradient376);fill-opacity:1;fill-rule:nonzero;stroke:none"
             d="m 1707.03,246.348 h -0.45 c -5.94,0 -10.71,6.66 -10.71,14.847 v 27 c 0,8.551 5.22,15.84 11.52,15.93 l 20.88,0.27 c 5.94,0 10.62,-6.661 10.62,-14.848 v -26.012 c 0,-8.277 -4.95,-15.57 -10.89,-15.93 l -20.97,-1.257" /></g></g><g
         id="g380"><g
           clip-path="url(#clipPath386)"
           id="g382"><path
             id="path394"
             style="fill:url(#linearGradient392);fill-opacity:1;fill-rule:nonzero;stroke:none"
             d="m 1767.96,250.035 h -0.36 c -5.22,0 -9.45,6.211 -9.45,13.949 v 25.832 c 0,8.102 4.68,14.942 10.17,15.032 l 19.17,0.269 c 5.04,0 9.27,-6.39 9.27,-14.043 v -24.84 c 0,-7.828 -4.41,-14.757 -9.63,-15.027 l -19.17,-1.172" /></g></g><g
         id="g396"><g
           clip-path="url(#clipPath402)"
           id="g398"><path
             id="path410"
             style="fill:url(#linearGradient408);fill-opacity:1;fill-rule:nonzero;stroke:none"
             d="m 1788.03,400.336 h -0.36 l -19.17,0.988 c -5.58,0.274 -10.35,7.473 -10.35,15.66 v 25.743 c 0,7.378 4.05,13.41 9,13.41 l 19.8,-1.891 c 5.31,-0.539 9.81,-7.648 9.81,-15.57 v -24.93 c 0,-3.961 -0.99,-7.558 -2.97,-10.078 -0.9,-1.262 -2.88,-3.332 -5.76,-3.332" /></g></g><g
         id="g412"><g
           clip-path="url(#clipPath418)"
           id="g414"><path
             id="path426"
             style="fill:url(#linearGradient424);fill-opacity:1;fill-rule:nonzero;stroke:none"
             d="m 1822.41,108.195 c -3.96,0 -7.11,5.129 -7.11,11.789 v 24.75 c 0,8.641 4.95,15.211 9.45,15.75 l 17.64,2.25 h 0.09 c 4.41,0 7.56,-5.308 7.56,-11.789 v -23.937 c 0,-8.371 -4.77,-14.942 -9.09,-15.75 l -17.64,-2.973 -0.9,-0.09" /></g></g><g
         id="g428"><g
           clip-path="url(#clipPath434)"
           id="g430"><path
             id="path442"
             style="fill:url(#linearGradient440);fill-opacity:1;fill-rule:nonzero;stroke:none"
             d="m 1768.23,325.637 c -5.49,0 -10.08,6.84 -10.08,14.847 v 25.832 c 0,7.829 4.32,14.219 9.63,14.219 l 19.44,-0.898 c 5.22,-0.18 9.54,-7.02 9.54,-14.762 v -24.93 c 0,-7.648 -4.23,-14.218 -9.36,-14.218 l -19.17,-0.09" /></g></g><g
         id="g444"><g
           clip-path="url(#clipPath450)"
           id="g446"><path
             id="path458"
             style="fill:url(#linearGradient456);fill-opacity:1;fill-rule:nonzero;stroke:none"
             d="m 1823.58,180.824 h -0.63 c -4.23,0 -7.65,5.582 -7.65,12.422 v 24.75 c 0,8.461 4.86,14.762 9.18,15.031 l 17.64,1.168 c 4.41,0 7.92,-5.668 7.92,-12.507 v -23.852 c 0,-8.281 -4.68,-14.488 -8.82,-14.941 l -17.64,-2.071" /></g></g><g
         id="g460"><g
           clip-path="url(#clipPath466)"
           id="g462"><path
             id="path474"
             style="fill:url(#linearGradient472);fill-opacity:1;fill-rule:nonzero;stroke:none"
             d="m 1842.3,397.457 h -0.27 l -17.64,0.898 c -4.32,0.27 -9.09,6.391 -9.09,14.762 v 24.75 c 0,7.02 3.51,12.778 7.83,12.778 l 18.18,-1.797 c 4.14,-0.453 8.73,-6.571 8.73,-14.762 v -23.852 c 0,-3.777 -0.99,-7.289 -2.79,-9.718 -0.81,-1.078 -2.52,-3.059 -4.95,-3.059" /></g></g><g
         id="g476"><g
           clip-path="url(#clipPath482)"
           id="g478"><path
             id="path490"
             style="fill:url(#linearGradient488);fill-opacity:1;fill-rule:nonzero;stroke:none"
             d="m 1824.12,325.906 c -4.68,0 -8.82,6.481 -8.82,13.949 v 24.75 c 0,7.29 3.87,13.5 8.46,13.5 l 17.82,-0.808 c 3.96,-0.18 8.46,-5.942 8.46,-13.949 v -23.942 c 0,-7.109 -3.87,-13.41 -8.28,-13.41 l -17.64,-0.09" /></g></g><g
         id="g492"><g
           clip-path="url(#clipPath498)"
           id="g494"><path
             id="path506"
             style="fill:url(#linearGradient504);fill-opacity:1;fill-rule:nonzero;stroke:none"
             d="m 1640.43,242.387 h -0.63 c -6.84,0 -12.24,6.84 -12.24,15.66 v 28.258 c 0,9.179 6.03,16.922 13.14,17.011 l 22.95,0.27 c 6.75,0 12.06,-7.02 12.06,-15.66 v -27.18 c 0,-8.82 -5.67,-16.558 -12.42,-17.012 l -22.86,-1.347" /></g></g><g
         id="g508"><g
           clip-path="url(#clipPath514)"
           id="g510"><path
             id="path522"
             style="fill:url(#linearGradient520);fill-opacity:1;fill-rule:nonzero;stroke:none"
             d="m 1823.85,253.367 h -0.27 c -4.5,0 -8.28,6.028 -8.28,13.231 v 24.75 c 0,8.277 4.68,14.129 8.91,14.218 l 17.64,0.18 c 4.41,0 8.19,-6.031 8.19,-13.23 v -23.942 c 0,-8.008 -4.5,-13.859 -8.55,-14.129 l -17.64,-1.078" /></g></g><g
         id="g524"><g
           clip-path="url(#clipPath530)"
           id="g526"><path
             id="path538"
             style="fill:url(#linearGradient536);fill-opacity:1;fill-rule:nonzero;stroke:none"
             d="m 1705.77,167.234 c -5.58,0 -9.9,6.121 -9.9,13.954 v 27 c 0,8.73 5.4,16.468 11.79,16.917 l 20.88,1.442 c 6.03,0 10.35,-6.121 10.35,-13.949 v -26.012 c 0,-8.461 -5.13,-16.109 -11.25,-16.828 l -20.88,-2.434 -0.99,-0.09" /></g></g><g
         id="g540"><g
           clip-path="url(#clipPath546)"
           id="g542"><path
             id="path554"
             style="fill:url(#linearGradient552);fill-opacity:1;fill-rule:nonzero;stroke:none"
             d="m 1664.37,406.727 h -0.54 l -22.86,1.168 c -7.29,0.363 -13.41,8.46 -13.41,17.73 v 28.262 c 0,8.371 5.13,15.031 11.61,15.031 l 0.99,-0.094 22.95,-2.25 c 6.84,-0.719 12.6,-8.726 12.6,-17.636 v -27.18 c 0,-4.32 -1.26,-8.192 -3.6,-11.07 -2.07,-2.614 -4.86,-3.961 -7.74,-3.961" /></g></g><g
         id="g556"><g
           clip-path="url(#clipPath562)"
           id="g558"><path
             id="path570"
             style="fill:url(#linearGradient568);fill-opacity:1;fill-rule:nonzero;stroke:none"
             d="m 1705.14,88.125 c -5.31,0 -9.27,5.6719 -9.27,13.141 v 27 c 0,8.82 5.49,17.011 12.06,17.82 l 20.97,2.609 h 0.09 c 5.94,0 9.9,-5.757 9.9,-13.14 v -26.008 c 0,-8.551 -5.22,-16.6525 -11.52,-17.7306 l -20.88,-3.6016 -1.35,-0.0898" /></g></g><g
         id="g572"><g
           clip-path="url(#clipPath578)"
           id="g574"><path
             id="path586"
             style="fill:url(#linearGradient584);fill-opacity:1;fill-rule:nonzero;stroke:none"
             d="m 1640.7,325.188 h -0.09 c -7.2,0 -13.05,7.468 -13.05,16.648 v 28.262 c 0,8.82 5.58,16.019 12.42,16.019 l 23.4,-0.992 c 6.84,-0.359 12.33,-7.828 12.33,-16.738 v -27.18 c 0,-8.73 -5.4,-15.93 -12.15,-15.93 l -22.86,-0.089" /></g></g><g
         id="g588"><g
           clip-path="url(#clipPath594)"
           id="g590"><path
             id="path602"
             style="fill:url(#linearGradient600);fill-opacity:1;fill-rule:nonzero;stroke:none"
             d="m 1767.69,174.348 h -0.81 c -4.86,0 -8.73,5.757 -8.73,13.136 v 25.832 c 0,8.282 4.77,15.571 10.44,15.93 l 19.17,1.262 c 0.04,0 0.08,0 0.12,0 5.16,0 8.88,-5.906 8.88,-13.141 v -24.929 c 0,-8.012 -4.5,-15.211 -9.9,-15.84 l -19.17,-2.25" /></g></g><g
         id="g604"><g
           clip-path="url(#clipPath610)"
           id="g606"><path
             id="path618"
             style="fill:url(#linearGradient616);fill-opacity:1;fill-rule:nonzero;stroke:none"
             d="m 1766.34,98.5664 c -4.59,0 -8.19,5.4886 -8.19,12.4176 v 25.922 c 0,8.192 5.04,16.02 10.71,16.739 l 19.17,2.339 h 0.09 c 5.22,0 8.64,-5.488 8.64,-12.418 v -24.929 c 0,-8.102 -4.59,-15.66 -10.17,-16.653 l -19.17,-3.3277 -1.08,-0.0899" /></g></g><g
         id="g620"><g
           clip-path="url(#clipPath626)"
           id="g622"><path
             id="path634"
             style="fill:url(#linearGradient632);fill-opacity:1;fill-rule:nonzero;stroke:none"
             d="m 1707.3,325.457 c -6.21,0 -11.43,7.109 -11.43,15.66 v 27 c 0,8.278 4.86,15.028 10.89,15.028 l 21.24,-0.899 c 5.94,-0.269 10.89,-7.469 10.89,-15.66 v -26.012 c 0,-8.187 -4.86,-15.027 -10.71,-15.027 l -20.88,-0.09" /></g></g><g
         id="g636"><g
           clip-path="url(#clipPath642)"
           id="g638"><path
             id="path650"
             style="fill:url(#linearGradient648);fill-opacity:1;fill-rule:nonzero;stroke:none"
             d="m 1728.9,403.395 h -0.36 l -20.97,1.082 c -6.39,0.269 -11.7,7.918 -11.7,16.558 v 27 c 0,8.012 4.41,14.223 10.17,14.223 l 21.69,-2.07 c 6.03,-0.633 11.16,-8.282 11.16,-16.653 v -26.008 c 0,-4.05 -1.17,-7.832 -3.24,-10.531 -1.89,-2.34 -4.23,-3.601 -6.75,-3.601" /></g></g><g
         id="g652"><g
           clip-path="url(#clipPath658)"
           id="g654"><path
             id="path666"
             style="fill:url(#linearGradient664);fill-opacity:1;fill-rule:nonzero;stroke:none"
             d="m 1566.9,151.125 h -1.44 c -7.38,0 -12.96,6.66 -12.96,15.57 v 29.7 c 0,9.902 7.02,18.632 15.3,19.261 l 25.2,1.711 c 7.92,0 13.5,-6.929 13.5,-15.66 v -28.531 c 0,-9.629 -6.48,-18.18 -14.4,-19.078 l -25.2,-2.973" /></g></g><g
         id="g668"><g
           clip-path="url(#clipPath674)"
           id="g670"><path
             id="path682"
             style="fill:url(#linearGradient680);fill-opacity:1;fill-rule:nonzero;stroke:none"
             d="m 1842.48,471.797 h -0.54 l -447.39,49.141 c -10.98,1.167 -20.25,11.789 -20.25,23.128 v 53.372 c 0,9.628 6.57,16.648 15.66,16.648 1.08,0 2.07,-0.18 3.15,-0.27 l 447.48,-75.691 c 4.23,-0.719 9,-7.379 9,-15.66 v -38.699 c 0,-3.598 -0.9,-6.84 -2.52,-9.18 -0.99,-1.262 -2.52,-2.789 -4.59,-2.789" /></g></g></g></g></svg>