<?xml version="1.0" encoding="UTF-8" standalone="no"?>
<svg
   xmlns:dc="http://purl.org/dc/elements/1.1/"
   xmlns:cc="http://creativecommons.org/ns#"
   xmlns:rdf="http://www.w3.org/1999/02/22-rdf-syntax-ns#"
   xmlns:svg="http://www.w3.org/2000/svg"
   xmlns="http://www.w3.org/2000/svg"
   viewBox="0 0 457.65332 86.360001"
   height="86.360001"
   width="457.65332"
   xml:space="preserve"
   id="svg2"
   version="1.1"><metadata
     id="metadata8"><rdf:RDF><cc:Work
         rdf:about=""><dc:format>image/svg+xml</dc:format><dc:type
           rdf:resource="http://purl.org/dc/dcmitype/StillImage" /></cc:Work></rdf:RDF></metadata><defs
     id="defs6"><clipPath
       id="clipPath20"
       clipPathUnits="userSpaceOnUse"><path
         id="path18"
         d="M 0,0 V 648 H 3430 V 0 Z" /></clipPath></defs><g
     transform="matrix(1.3333333,0,0,-1.3333333,0,86.36)"
     id="g10"><g
       transform="scale(0.1)"
       id="g12"><g
         id="g14"><g
           clip-path="url(#clipPath20)"
           id="g16"><path
             id="path22"
             style="fill:#ea6e14;fill-opacity:1;fill-rule:nonzero;stroke:none"
             d="m 358.004,324.691 h -65.508 c -27.687,3.692 -0.019,35.989 30.449,35.989 22.145,0 34.129,-10.153 41.524,-23.067 7.371,-12.922 -6.465,-12.922 -6.465,-12.922 z m -31.371,76.586 c -99.66,0 -119.953,-107.039 -86.731,-158.718 33.207,-51.661 142.09,-73.809 180.836,14.765 h -53.504 c 0,0 -9.222,-20.293 -38.754,-20.293 -29.531,0 -47.976,16.621 -47.976,55.371 h 142.094 c 0,0 3.695,108.875 -95.965,108.875 z M 465.039,205.664 h 55.352 v 332.168 h -55.352 z m -346.93,195.613 c 0,0 -40.1363,1.211 -64.5895,-32.64 V 537.832 H 0 V 205.664 H 53.5195 V 329.02 c 6.4805,11.175 21.4571,31.66 44.2891,31.66 31.3714,0 36.9104,-29.512 36.9104,-44.289 0,-14.75 0,-110.727 0,-110.727 h 46.136 v 149.477 c 0,0 -9.246,46.136 -62.746,46.136 z m 654.18,-149.949 c -29.285,0 -53.027,21.699 -53.027,48.457 0,26.742 23.742,48.438 53.027,48.438 29.281,0 53.024,-21.696 53.024,-48.438 0,-26.758 -23.743,-48.457 -53.024,-48.457 z m 0,150.867 c -61.906,0 -112.109,-45.851 -112.109,-102.41 0,-56.562 50.203,-102.422 112.109,-102.422 61.914,0 112.109,45.86 112.109,102.422 0,56.559 -50.195,102.41 -112.109,102.41 z M 564.688,205.664 h 55.371 v 191.918 h -55.371 z m 33.207,303.106 c -17.579,0 -31.832,-14.25 -31.832,-31.832 0,-17.579 14.253,-31.825 31.832,-31.825 17.593,0 31.832,14.246 31.832,31.825 0,17.582 -14.239,31.832 -31.832,31.832 z M 1003.89,321.93 c -29.859,6.883 -37.835,37.363 -14.312,41.515 23.532,4.157 34.602,-12.453 34.602,-12.453 l 24.92,26.297 c -51.213,42.91 -114.19,20.188 -122.717,-11.074 -11.074,-40.606 9.226,-63.656 49.359,-78.891 40.138,-15.215 35.978,-45.683 11.067,-48.437 -24.899,-2.774 -42.903,23.515 -42.903,23.515 L 912.078,233.34 c 12.465,-22.129 27.688,-34.59 49.832,-38.75 22.137,-4.141 80.26,0 94.11,47.051 13.83,47.07 -16.14,71.976 -52.13,80.289" /><path
             id="path24"
             style="fill:#ea6e14;fill-opacity:1;fill-rule:nonzero;stroke:none"
             d="m 2213.05,205.664 h 53.51 v 332.168 h -53.51 z m -102.42,76.387 c -6.27,-11.778 -13.76,-19.61 -20.41,-24.668 0,0 0,0 -0.01,0 -0.52,-0.391 -1.02,-0.723 -1.54,-1.094 -21.12,-14.16 -58.66,-20.918 -74.92,19.512 -19.3,47.972 16.6,79.34 37.27,77.496 16.39,-1.457 28.08,-4.875 35.68,-9.379 0.19,-0.129 0.4,-0.25 0.59,-0.383 0.86,-0.531 1.66,-1.09 2.41,-1.652 0.51,-0.383 0.97,-0.801 1.47,-1.195 0.69,-0.586 1.38,-1.168 1.95,-1.778 v 0.195 c 9.01,-7.984 14.38,-18.003 17.51,-26.21 z m 0,91.527 c -11.05,8.063 -14.31,7.91 -29.06,16.164 l -0.03,-0.039 c -58.93,29.399 -128.89,-17.773 -130.52,-88.062 -1.76,-75.684 61.38,-101.504 92.97,-101.504 17.97,0 31.75,5.84 40.42,10.254 0.2,0.097 0.38,0.195 0.58,0.293 3.73,1.914 6.56,3.554 8.13,4.199 v 0.937 c 6.93,5.02 12.71,11.016 17.51,17.285 v -27.441 h 47.05 v 191 h -47.05 z m -342.32,-71.937 c -1.82,-75.684 64.59,-101.504 97.81,-101.504 27.7,0 46.21,6.347 51.67,8.476 v 50.938 c -20.88,-16.172 -73.9,-27.188 -92.28,16.25 -20.3,47.972 16.63,79.34 48.01,77.496 23.22,-1.363 37.47,-7.457 44.27,-14.387 v 52.106 c -66.11,33.257 -147.65,-14.418 -149.48,-89.375 z m 673.57,23.05 h -65.52 c -27.69,3.692 -0.01,35.989 30.46,35.989 22.14,0 34.14,-10.153 41.51,-23.067 7.38,-12.922 -6.45,-12.922 -6.45,-12.922 z m -31.38,76.586 c -99.63,0 -119.94,-107.039 -86.72,-158.718 33.21,-51.661 142.09,-73.809 180.85,14.765 h -53.53 c 0,0 -9.21,-20.293 -38.76,-20.293 -29.52,0 -47.96,16.621 -47.96,55.371 h 142.08 c 0,0 3.7,108.875 -95.96,108.875 z M 2932.75,280.43 c -6.6,-11.758 -14.37,-19.395 -21.08,-24.16 -21.12,-14.161 -58.62,-20.879 -74.87,19.531 -19.32,47.972 16.6,79.34 37.25,77.496 16.41,-1.461 28.12,-4.883 35.72,-9.402 0.15,-0.106 0.33,-0.204 0.48,-0.313 0.91,-0.555 1.73,-1.137 2.51,-1.727 0.49,-0.355 0.92,-0.746 1.39,-1.117 0.69,-0.601 1.41,-1.203 1.99,-1.828 v 0.199 c 8.2,-7.257 13.37,-16.23 16.61,-23.968 z m 0,93.793 c -10.31,7.379 -13.82,7.504 -28.15,15.519 l -0.03,-0.035 c -58.93,29.395 -128.9,-17.777 -130.52,-88.066 -1.76,-75.684 61.39,-101.504 92.98,-101.504 18.07,0 31.92,5.898 40.57,10.332 0.1,0.058 0.2,0.097 0.31,0.156 3.79,1.953 6.66,3.613 8.23,4.258 v 0.937 c 6.52,4.727 11.99,10.352 16.61,16.211 v -26.367 h 53.51 v 332.168 h -53.51 z m 251.9,-92.192 c -6.81,-12.754 -15.05,-20.84 -22.08,-25.82 -21.15,-14.121 -58.58,-20.781 -74.83,19.59 -19.27,47.972 16.64,79.34 37.28,77.496 16.37,-1.457 28.07,-4.863 35.65,-9.363 0.24,-0.149 0.49,-0.297 0.72,-0.45 0.82,-0.511 1.58,-1.039 2.29,-1.574 0.54,-0.402 1.03,-0.836 1.53,-1.25 0.68,-0.578 1.36,-1.148 1.92,-1.75 v 0.195 c 9.01,-7.988 14.37,-18.046 17.52,-26.25 z m 0,91.543 c -11.07,8.067 -14.31,7.914 -29.07,16.168 l -0.03,-0.035 c -58.94,29.391 -128.92,-17.777 -130.53,-88.066 -1.75,-75.684 61.41,-101.504 92.98,-101.504 18.02,0 31.81,5.859 40.48,10.273 0.15,0.098 0.32,0.156 0.48,0.254 3.75,1.934 6.6,3.574 8.17,4.219 v 0.937 c 6.94,5.02 12.7,11.075 17.52,17.364 v -27.52 h 47.06 v 191 h -47.06 z M 2667,401.277 c 0,0 -46.81,1.442 -70.11,-41.457 v 34.071 h -51.67 V 205.664 h 51.67 v 122.699 l 1.84,-6.433 c 0,0 16.61,38.75 47.99,38.75 31.36,0 36.89,-29.512 36.89,-44.289 0,-14.75 0,-110.727 0,-110.727 h 46.15 v 149.477 c 0,0 -9.23,46.136 -62.76,46.136 z m 708.64,-1.847 c -18.01,-7.34 -29.87,-19.489 -37.37,-30.117 v 27.351 h -47.06 v -191 h 47.06 v 113.59 c 27.59,55.926 66.66,29.055 73.35,31.738 6.92,2.766 20.76,41.524 20.76,41.524 0,0 -19.37,22.132 -56.74,6.914" /><path
             id="path26"
             style="fill:#b9b7b8;fill-opacity:1;fill-rule:nonzero;stroke:none"
             d="m 1660.63,517.348 -482.98,96.109 15.41,32.125 -62.64,-33.332 0.08,-0.629 c -9.19,-7.387 -15.2,-20.09 -15.2,-35.84 V 80.0586 c 0,-18.0273 7.76,-32.8125 19.31,-40.332 l 58.45,-36.77738 c 0,0 -13.19,12.79298 -13.62,34.57028 l 481.19,54.7461 c 22.78,2.2071 41.4,19.9614 41.4,39.5114 V 474.16 c 0,19.528 -18.62,38.969 -41.4,43.188" /><path
             id="path28"
             style="fill:#696767;fill-opacity:1;fill-rule:nonzero;stroke:none"
             d="m 1660.46,514.41 -485,95.141 24.01,35.648 -31.56,-15.312 c -5.47,-9.219 -5.94,-25.828 -5.94,-30.492 V 52.1484 c 0,-2.4609 0.19,-12.9101 0.52,-28.6523 l 37.89,-21.66016 c 0,0 -22.69,19.57036 -23.11,40.99606 l 483.19,53.4375 c 22.87,2.1289 41.57,19.5705 41.57,38.8085 v 336.801 c 0,19.215 -18.7,38.351 -41.57,42.531" /><path
             id="path30"
             style="fill:#747272;fill-opacity:1;fill-rule:nonzero;stroke:none"
             d="m 1661.12,519.801 -479.83,95.476 14.02,29.223 c 0.47,0.973 0.41,0.105 -0.37,0.855 -0.77,0.747 -4.67,0.977 -5.62,0.469 0,0 -61.11,-32.418 -61.24,-33.152 -9.67,-8.32 -15.28,-21.613 -15.28,-36.891 V 80.0586 c 0,-18.2227 7.64,-34.082 20.45,-42.4219 0.03,-0.0195 55.75,-34.62889 55.75,-34.62889 1.09,-0.66406 6.72,0.83985 5.79,1.73828 -0.11,0.11719 -11.41,11.56251 -12.65,30.56641 l 478.77,54.4727 c 24.04,2.3242 43.62,21.1528 43.62,41.9918 V 474.16 c 0,20.731 -19.49,41.211 -43.41,45.641 z m 38.41,-388.024 c 0,-18.32 -17.56,-34.9411 -39.14,-37.0114 C 1660.35,94.7461 1179.16,40 1179.16,40 c -1.28,-0.1367 -2.25,-1.2305 -2.22,-2.5195 0.21,-10.8985 3.45,-19.5508 6.79,-25.7032 l -47.78,30.0782 c -11.36,7.3828 -18.15,21.6797 -18.15,38.2031 V 575.781 c 0,14.254 5.2,26.602 14.27,33.891 0.34,0.273 55.44,30.129 55.44,30.129 l -12.12,-25.266 c -0.33,-0.691 -0.33,-1.504 0.02,-2.195 0.35,-0.692 0.99,-1.184 1.75,-1.336 l 482.98,-96.106 c 21.74,-4.031 39.39,-22.3 39.39,-40.738 V 131.777" /><path
             id="path32"
             style="fill:#918f90;fill-opacity:1;fill-rule:nonzero;stroke:none"
             d="m 1702.03,113.633 c 0,-21.6994 -16.91,-41.5236 -37.63,-44.1213 L 1206.57,2.46094 C 1185.88,-1.05469 1168.94,21.25 1168.94,52.0508 V 598.375 c 0,30.805 16.94,51.902 37.63,46.914 L 1664.4,542.441 c 20.72,-4.32 37.63,-25.597 37.63,-47.273 V 113.633" /><path
             id="path34"
             style="fill:#747272;fill-opacity:1;fill-rule:nonzero;stroke:none"
             d="m 1699.53,113.633 c 0,-20.508 -15.9,-39.1799 -35.44,-41.6408 -0.05,0 -457.88,-67.07032 -457.88,-67.07032 -6.85,-1.15235 -13.45,0.76171 -19.13,5.56642 -9.79,8.2617 -15.64,23.8086 -15.64,41.5625 V 598.375 c 0,17.582 5.75,32.602 15.37,40.18 5.68,4.472 12.31,5.957 19.18,4.3 0.04,-0.007 457.87,-102.855 457.87,-102.855 19.68,-4.105 35.67,-24.215 35.67,-44.832 z m 5,381.535 c 0,22.859 -17.77,45.164 -39.61,49.719 0.03,-0.004 -457.8,102.843 -457.8,102.843 -8.37,2.016 -16.48,0.204 -23.4,-5.246 -10.82,-8.519 -17.28,-25.007 -17.28,-44.109 V 52.0508 c 0,-19.2188 6.51,-36.1914 17.42,-45.39064 6.83,-5.781254 14.83,-8.08594 23.13,-6.66016 -0.06,-0.0195313 457.78,67.0508 457.78,67.0508 21.9,2.7344 39.76,23.6328 39.76,46.5822 v 381.535" /><path
             id="path36"
             style="fill:#f48412;fill-opacity:1;fill-rule:nonzero;stroke:none"
             d="m 1686.07,455.73 c 0,-11.542 -8.87,-19.804 -19.72,-18.371 l -456.07,59.465 c -10.85,1.602 -19.72,15.906 -19.72,31.754 v 65.035 c 0,15.864 8.87,26.91 19.72,24.547 l 456.07,-91.308 c 10.85,-2.102 19.72,-13.231 19.72,-24.766 V 455.73" /><path
             id="path38"
             style="fill:#f2f2f2;fill-opacity:1;fill-rule:nonzero;stroke:none"
             d="m 1693.49,398.973 c 0,5.457 -4.43,10.359 -9.85,10.886 l -45,4.317 c -5.42,0.519 -9.83,-3.731 -9.83,-9.434 v -37.629 c 0,-5.683 4.41,-10.613 9.83,-10.933 l 45,-2.61 c 5.42,-0.324 9.85,3.91 9.85,9.356 v 36.047" /><path
             id="path40"
             style="fill:#f2f2f2;fill-opacity:1;fill-rule:nonzero;stroke:none"
             d="m 1693.49,332.926 c 0,5.469 -4.43,10.144 -9.85,10.418 l -45,2.308 c -5.42,0.293 -9.83,-4.164 -9.83,-9.867 v -37.601 c 0,-5.684 4.41,-10.43 9.83,-10.508 l 45,-0.606 c 5.42,-0.078 9.85,4.336 9.85,9.805 v 36.051" /><path
             id="path42"
             style="fill:#f2f2f2;fill-opacity:1;fill-rule:nonzero;stroke:none"
             d="m 1693.49,266.855 c 0,5.45 -4.43,9.942 -9.85,9.981 l -45,0.332 c -5.42,0.02 -9.83,-4.629 -9.83,-10.313 v -37.617 c 0,-5.722 4.41,-10.234 9.83,-10.078 l 45,1.426 c 5.42,0.156 9.85,4.766 9.85,10.215 v 36.054" /><path
             id="path44"
             style="fill:#f2f2f2;fill-opacity:1;fill-rule:nonzero;stroke:none"
             d="m 1693.49,200.781 c 0,5.469 -4.43,9.785 -9.85,9.59 l -45,-1.719 c -5.42,-0.214 -9.83,-5.039 -9.83,-10.761 v -37.578 c 0,-5.723 4.41,-10.059 9.83,-9.649 l 45,3.399 c 5.42,0.41 9.85,5.234 9.85,10.683 v 36.035" /><path
             id="path46"
             style="fill:#f2f2f2;fill-opacity:1;fill-rule:nonzero;stroke:none"
             d="m 1693.49,134.707 c 0,5.469 -4.43,9.57 -9.85,9.141 l -45,-3.711 c -5.42,-0.43 -9.83,-5.508 -9.83,-11.192 V 91.3477 c 0,-5.7032 4.41,-9.8438 9.83,-9.1993 l 45,5.4102 c 5.42,0.6445 9.85,5.6641 9.85,11.1328 v 36.0156" /><path
             id="path48"
             style="fill:#f2f2f2;fill-opacity:1;fill-rule:nonzero;stroke:none"
             d="m 1618.31,405.512 c 0,5.746 -4.45,10.859 -9.86,11.371 l -45.01,4.375 c -5.4,0.543 -9.86,-3.926 -9.86,-9.914 v -39.446 c 0,-5.957 4.46,-11.117 9.86,-11.449 l 45.01,-2.636 c 5.41,-0.297 9.86,4.136 9.86,9.871 v 37.828" /><path
             id="path50"
             style="fill:#f2f2f2;fill-opacity:1;fill-rule:nonzero;stroke:none"
             d="m 1618.31,336.176 c 0,5.722 -4.45,10.656 -9.86,10.929 l -45.01,2.309 c -5.4,0.281 -9.86,-4.398 -9.86,-10.355 V 299.59 c 0,-5.957 4.46,-10.918 9.86,-10.977 l 45.01,-0.586 c 5.41,-0.058 9.86,4.571 9.86,10.313 v 37.836" /><path
             id="path52"
             style="fill:#f2f2f2;fill-opacity:1;fill-rule:nonzero;stroke:none"
             d="m 1618.31,266.855 c 0,5.723 -4.45,10.45 -9.86,10.469 l -45.01,0.235 c -5.4,0.039 -9.86,-4.844 -9.86,-10.821 v -39.453 c 0,-5.976 4.46,-10.722 9.86,-10.527 l 45.01,1.504 c 5.41,0.176 9.86,5.019 9.86,10.742 v 37.851" /><path
             id="path54"
             style="fill:#f2f2f2;fill-opacity:1;fill-rule:nonzero;stroke:none"
             d="m 1618.31,197.5 c 0,5.762 -4.45,10.254 -9.86,10.059 l -45.01,-1.856 c -5.4,-0.195 -9.86,-5.293 -9.86,-11.269 V 154.98 c 0,-5.976 4.46,-10.507 9.86,-10.078 l 45.01,3.594 c 5.41,0.41 9.86,5.449 9.86,11.192 V 197.5" /><path
             id="path56"
             style="fill:#f2f2f2;fill-opacity:1;fill-rule:nonzero;stroke:none"
             d="m 1618.31,128.145 c 0,5.742 -4.45,10.078 -9.86,9.609 l -45.01,-3.906 c -5.4,-0.45 -9.86,-5.762 -9.86,-11.758 V 82.6563 c 0,-5.9766 4.46,-10.2735 9.86,-9.6094 l 45.01,5.6445 c 5.41,0.6836 9.86,5.8984 9.86,11.6602 v 37.7934" /><path
             id="path58"
             style="fill:#f2f2f2;fill-opacity:1;fill-rule:nonzero;stroke:none"
             d="m 1543.08,412.133 c 0,6.019 -4.47,11.351 -9.89,11.906 l -44.98,4.441 c -5.41,0.543 -9.85,-4.156 -9.85,-10.429 v -41.332 c 0,-6.254 4.44,-11.664 9.85,-11.973 l 44.98,-2.637 c 5.42,-0.316 9.89,4.36 9.89,10.352 v 39.672" /><path
             id="path60"
             style="fill:#f2f2f2;fill-opacity:1;fill-rule:nonzero;stroke:none"
             d="m 1543.08,339.418 c 0,6.02 -4.47,11.156 -9.89,11.461 l -44.98,2.289 c -5.41,0.285 -9.85,-4.617 -9.85,-10.887 v -41.324 c 0,-6.269 4.44,-11.426 9.85,-11.484 l 44.98,-0.528 c 5.42,-0.078 9.89,4.805 9.89,10.84 v 39.633" /><path
             id="path62"
             style="fill:#f2f2f2;fill-opacity:1;fill-rule:nonzero;stroke:none"
             d="m 1543.08,266.719 c 0,6.015 -4.47,10.957 -9.89,10.976 l -44.98,0.215 c -5.41,0 -9.85,-5.137 -9.85,-11.406 v -41.328 c 0,-6.25 4.44,-11.231 9.85,-11.016 l 44.98,1.602 c 5.42,0.195 9.89,5.273 9.89,11.289 v 39.668" /><path
             id="path64"
             style="fill:#f2f2f2;fill-opacity:1;fill-rule:nonzero;stroke:none"
             d="m 1543.08,194.004 c 0,6.016 -4.47,10.781 -9.89,10.527 l -44.98,-1.933 c -5.41,-0.254 -9.85,-5.586 -9.85,-11.856 v -41.308 c 0,-6.27 4.44,-11.036 9.85,-10.567 l 44.98,3.75 c 5.42,0.41 9.89,5.742 9.89,11.719 v 39.668" /><path
             id="path66"
             style="fill:#f2f2f2;fill-opacity:1;fill-rule:nonzero;stroke:none"
             d="m 1543.08,121.289 c 0,6.035 -4.47,10.566 -9.89,10.098 l -44.98,-4.102 c -5.41,-0.469 -9.85,-6.055 -9.85,-12.324 V 73.6523 c 0,-6.289 4.44,-10.8203 9.85,-10.0976 l 44.98,5.8984 c 5.42,0.6836 9.89,6.1914 9.89,12.1875 v 39.6484" /><path
             id="path68"
             style="fill:#f2f2f2;fill-opacity:1;fill-rule:nonzero;stroke:none"
             d="m 1467.83,418.832 c 0,6.301 -4.43,11.914 -9.84,12.453 l -45.01,4.496 c -5.4,0.563 -9.85,-4.386 -9.85,-10.937 v -43.285 c 0,-6.563 4.45,-12.188 9.85,-12.508 l 45.01,-2.656 c 5.41,-0.305 9.84,4.585 9.84,10.894 v 41.543" /><path
             id="path70"
             style="fill:#f2f2f2;fill-opacity:1;fill-rule:nonzero;stroke:none"
             d="m 1467.83,342.66 c 0,6.289 -4.43,11.699 -9.84,11.969 l -45.01,2.301 c -5.4,0.285 -9.85,-4.86 -9.85,-11.403 v -43.3 c 0,-6.563 4.45,-11.973 9.85,-12.032 l 45.01,-0.429 c 5.41,-0.078 9.84,5.039 9.84,11.328 v 41.566" /><path
             id="path72"
             style="fill:#f2f2f2;fill-opacity:1;fill-rule:nonzero;stroke:none"
             d="m 1467.83,266.465 c 0,6.308 -4.43,11.484 -9.84,11.504 l -45.01,0.117 c -5.4,0 -9.85,-5.352 -9.85,-11.914 V 222.91 c 0,-6.582 4.45,-11.758 9.85,-11.562 l 45.01,1.718 c 5.41,0.235 9.84,5.547 9.84,11.856 v 41.543" /><path
             id="path74"
             style="fill:#f2f2f2;fill-opacity:1;fill-rule:nonzero;stroke:none"
             d="m 1467.83,190.273 c 0,6.329 -4.43,11.309 -9.84,11.055 l -45.01,-2.09 c -5.4,-0.254 -9.85,-5.82 -9.85,-12.402 v -43.281 c 0,-6.524 4.45,-11.504 9.85,-11.035 l 45.01,3.925 c 5.41,0.489 9.84,5.996 9.84,12.305 v 41.523" /><path
             id="path76"
             style="fill:#f2f2f2;fill-opacity:1;fill-rule:nonzero;stroke:none"
             d="m 1467.83,114.102 c 0,6.308 -4.43,11.074 -9.84,10.566 l -45.01,-4.277 c -5.4,-0.508 -9.85,-6.328 -9.85,-12.911 V 64.2383 c 0,-6.582 4.45,-11.3281 9.85,-10.586 l 45.01,6.1133 c 5.41,0.7422 9.84,6.4844 9.84,12.8125 v 41.5239" /><path
             id="path78"
             style="fill:#f48412;fill-opacity:1;fill-rule:nonzero;stroke:none"
             d="m 1392.61,186.367 c 0,6.602 -4.44,11.778 -9.87,11.524 l -44.98,-2.188 c -5.43,-0.273 -9.84,-6.113 -9.84,-12.988 v -45.274 c 0,-6.855 4.41,-12.07 9.84,-11.582 l 44.98,4.102 c 5.43,0.508 9.87,6.328 9.87,12.91 v 43.496" /><path
             id="path80"
             style="fill:#f2f2f2;fill-opacity:1;fill-rule:nonzero;stroke:none"
             d="m 1392.61,425.641 c 0,6.605 -4.44,12.461 -9.87,12.996 l -44.98,4.566 c -5.43,0.551 -9.84,-4.609 -9.84,-11.484 v -45.27 c 0,-6.875 4.41,-12.758 9.84,-13.074 l 44.98,-2.672 c 5.43,-0.312 9.87,4.832 9.87,11.426 v 43.512" /><path
             id="path82"
             style="fill:#f2f2f2;fill-opacity:1;fill-rule:nonzero;stroke:none"
             d="m 1392.61,345.867 c 0,6.621 -4.44,12.246 -9.87,12.516 l -44.98,2.324 c -5.43,0.273 -9.84,-5.133 -9.84,-11.98 v -45.289 c 0,-6.856 4.41,-12.52 9.84,-12.579 l 44.98,-0.371 c 5.43,-0.078 9.87,5.293 9.87,11.895 v 43.484" /><path
             id="path84"
             style="fill:#f2f2f2;fill-opacity:1;fill-rule:nonzero;stroke:none"
             d="m 1392.61,266.133 c 0,6.582 -4.44,11.992 -9.87,12.031 l -44.98,0.039 c -5.43,0 -9.84,-5.625 -9.84,-12.48 v -45.274 c 0,-6.875 4.41,-12.304 9.84,-12.109 l 44.98,1.855 c 5.43,0.254 9.87,5.84 9.87,12.422 v 43.516" /><path
             id="path86"
             style="fill:#f2f2f2;fill-opacity:1;fill-rule:nonzero;stroke:none"
             d="m 1392.61,106.602 c 0,6.621 -4.44,11.582 -9.87,11.035 l -44.98,-4.434 c -5.43,-0.566 -9.84,-6.64 -9.84,-13.5155 V 54.4336 c 0,-6.875 4.41,-11.8555 9.84,-11.0938 l 44.98,6.3868 c 5.43,0.7617 9.87,6.7773 9.87,13.3789 v 43.4965" /><path
             id="path88"
             style="fill:#f2f2f2;fill-opacity:1;fill-rule:nonzero;stroke:none"
             d="m 1317.43,432.555 c 0,6.886 -4.46,12.988 -9.87,13.547 l -45.01,4.625 c -5.41,0.562 -9.86,-4.848 -9.86,-12.032 v -47.324 c 0,-7.176 4.45,-13.336 9.86,-13.652 l 45.01,-2.672 c 5.41,-0.32 9.87,5.074 9.87,11.98 v 45.528" /><path
             id="path90"
             style="fill:#f2f2f2;fill-opacity:1;fill-rule:nonzero;stroke:none"
             d="m 1317.43,349.098 c 0,6.902 -4.46,12.777 -9.87,13.039 l -45.01,2.324 c -5.41,0.293 -9.86,-5.375 -9.86,-12.543 V 304.57 c 0,-7.168 4.45,-13.086 9.86,-13.125 l 45.01,-0.332 c 5.41,-0.039 9.87,5.567 9.87,12.461 v 45.524" /><path
             id="path92"
             style="fill:#f2f2f2;fill-opacity:1;fill-rule:nonzero;stroke:none"
             d="m 1317.43,265.664 c 0,6.895 -4.46,12.539 -9.87,12.539 h -45.01 c -5.41,0 -9.86,-5.898 -9.86,-13.086 v -47.324 c 0,-7.188 4.45,-12.871 9.86,-12.617 l 45.01,1.992 c 5.41,0.234 9.87,6.074 9.87,12.969 v 45.527" /><path
             id="path94"
             style="fill:#f2f2f2;fill-opacity:1;fill-rule:nonzero;stroke:none"
             d="m 1317.43,182.207 c 0,6.914 -4.46,12.344 -9.87,12.051 l -45.01,-2.324 c -5.41,-0.293 -9.86,-6.407 -9.86,-13.594 v -47.344 c 0,-7.168 4.45,-12.617 9.86,-12.09 l 45.01,4.297 c 5.41,0.508 9.87,6.602 9.87,13.496 v 45.508" /><path
             id="path96"
             style="fill:#f2f2f2;fill-opacity:1;fill-rule:nonzero;stroke:none"
             d="m 1317.43,98.7695 c 0,6.8755 -4.46,12.1095 -9.87,11.5435 l -45.01,-4.668 c -5.41,-0.586 -9.86,-6.9145 -9.86,-14.0825 V 44.1992 c 0,-7.1679 4.45,-12.3828 9.86,-11.5625 l 45.01,6.6211 c 5.41,0.7813 9.87,7.0703 9.87,13.9844 v 45.5273" /><path
             id="path98"
             style="fill:#f2f2f2;fill-opacity:1;fill-rule:nonzero;stroke:none"
             d="m 1242.16,439.516 c 0,7.218 -4.42,13.589 -9.85,14.156 l -44.99,4.691 c -5.42,0.586 -9.85,-5.101 -9.85,-12.597 v -49.469 c 0,-7.5 4.43,-13.887 9.85,-14.211 l 44.99,-2.684 c 5.43,-0.32 9.85,5.305 9.85,12.547 v 47.567" /><path
             id="path100"
             style="fill:#f2f2f2;fill-opacity:1;fill-rule:nonzero;stroke:none"
             d="m 1242.16,352.285 c 0,7.203 -4.42,13.348 -9.85,13.633 l -44.99,2.312 c -5.42,0.282 -9.85,-5.648 -9.85,-13.167 v -49.458 c 0,-7.48 4.43,-13.652 9.85,-13.671 l 44.99,-0.293 c 5.43,-0.039 9.85,5.839 9.85,13.047 v 47.597" /><path
             id="path102"
             style="fill:#f2f2f2;fill-opacity:1;fill-rule:nonzero;stroke:none"
             d="m 1242.16,265.039 c 0,7.207 -4.42,13.125 -9.85,13.125 l -44.99,-0.098 c -5.42,0 -9.85,-6.152 -9.85,-13.671 v -49.434 c 0,-7.5 4.43,-13.457 9.85,-13.203 l 44.99,2.109 c 5.43,0.274 9.85,6.387 9.85,13.613 v 47.559" /><path
             id="path104"
             style="fill:#f2f2f2;fill-opacity:1;fill-rule:nonzero;stroke:none"
             d="m 1242.16,177.832 c 0,7.207 -4.42,12.852 -9.85,12.598 l -44.99,-2.52 c -5.42,-0.273 -9.85,-6.66 -9.85,-14.16 v -49.492 c 0,-7.481 4.43,-13.184 9.85,-12.637 l 44.99,4.512 c 5.43,0.527 9.85,6.894 9.85,14.121 v 47.578" /><path
             id="path106"
             style="fill:#f2f2f2;fill-opacity:1;fill-rule:nonzero;stroke:none"
             d="m 1242.16,90.5859 c 0,7.2071 -4.42,12.6371 -9.85,12.0511 l -44.99,-4.8636 c -5.42,-0.5859 -9.85,-7.2265 -9.85,-14.707 V 33.5938 c 0,-7.5196 4.43,-12.9688 9.85,-12.1094 l 44.99,6.8945 c 5.43,0.8203 9.85,7.4024 9.85,14.6094 v 47.5976" /></g></g></g></g></svg>