<?xml version="1.0" encoding="UTF-8" standalone="no"?>
<svg
   xmlns:dc="http://purl.org/dc/elements/1.1/"
   xmlns:cc="http://creativecommons.org/ns#"
   xmlns:rdf="http://www.w3.org/1999/02/22-rdf-syntax-ns#"
   xmlns:svg="http://www.w3.org/2000/svg"
   xmlns="http://www.w3.org/2000/svg"
   viewBox="0 0 459.54666 104.44"
   height="104.44"
   width="459.54666"
   xml:space="preserve"
   id="svg2"
   version="1.1"><metadata
     id="metadata8"><rdf:RDF><cc:Work
         rdf:about=""><dc:format>image/svg+xml</dc:format><dc:type
           rdf:resource="http://purl.org/dc/dcmitype/StillImage" /></cc:Work></rdf:RDF></metadata><defs
     id="defs6"><clipPath
       id="clipPath20"
       clipPathUnits="userSpaceOnUse"><path
         id="path18"
         d="M 0,3 V 783 H 3447 V 3 Z" /></clipPath></defs><g
     transform="matrix(1.3333333,0,0,-1.3333333,0,104.44)"
     id="g10"><g
       transform="scale(0.1)"
       id="g12"><g
         id="g14"><g
           clip-path="url(#clipPath20)"
           id="g16"><path
             id="path22"
             style="fill:#62b92c;fill-opacity:1;fill-rule:nonzero;stroke:none"
             d="M 1031.58,446.363 H 993.176 V 272.566 c 0,-22.871 -5.028,-39.734 -15.071,-50.562 -10.035,-10.805 -23.132,-16.223 -39.292,-16.223 -17.395,0 -30.86,5.664 -40.418,16.973 -9.555,11.309 -14.325,27.922 -14.325,49.812 v 416.227 c 0,23.605 5.278,40.711 15.852,51.289 10.566,10.578 27.641,15.871 51.234,15.871 H 1129.2 c 24.56,0 45.57,-1.055 63.03,-3.14 17.44,-2.079 33.16,-6.309 47.17,-12.684 16.97,-7.141 31.96,-17.356 44.98,-30.645 13.03,-13.289 22.92,-28.73 29.69,-46.316 6.76,-17.605 10.14,-36.234 10.14,-55.922 0,-40.359 -11.39,-72.605 -34.12,-96.719 -22.74,-24.117 -57.21,-41.218 -103.41,-51.297 19.4,-10.332 37.97,-25.585 55.67,-45.753 17.69,-20.164 33.48,-41.629 47.38,-64.375 13.89,-22.754 24.7,-43.282 32.45,-61.614 7.74,-18.328 11.61,-30.933 11.61,-37.808 0,-7.141 -2.29,-14.211 -6.83,-21.211 -4.55,-7.016 -10.75,-12.539 -18.62,-16.606 -7.87,-4.05 -16.98,-6.082 -27.29,-6.082 -12.3,0 -22.63,2.903 -30.99,8.672 -8.37,5.774 -15.55,13.086 -21.56,21.953 -6.03,8.86 -14.21,21.883 -24.54,39.114 l -43.89,73.066 c -15.76,26.805 -29.85,47.215 -42.28,61.234 -12.42,14.012 -25.05,23.618 -37.84,28.789 -12.8,5.161 -28.93,7.754 -48.37,7.754 z m 62.77,227.524 H 993.176 V 524.691 h 98.214 c 26.34,0 48.49,2.274 66.47,6.848 17.97,4.559 31.69,12.34 41.16,23.324 9.47,10.989 14.22,26.098 14.22,45.356 0,15.039 -3.82,28.312 -11.45,39.797 -7.63,11.476 -18.21,20.043 -31.75,25.73 -12.81,5.422 -38.04,8.141 -75.69,8.141" /><path
             id="path24"
             style="fill:#62b92c;fill-opacity:1;fill-rule:nonzero;stroke:none"
             d="M 1652.45,385.754 H 1455.5 c 0.25,-22.981 4.86,-43.234 13.83,-60.774 8.98,-17.546 20.89,-30.769 35.77,-39.667 14.88,-8.887 31.3,-13.329 49.25,-13.329 12.03,0 23.03,1.414 33,4.254 9.96,2.844 19.61,7.285 28.95,13.352 9.34,6.047 17.95,12.527 25.81,19.441 7.88,6.914 18.08,16.313 30.62,28.176 5.16,4.441 12.54,6.672 22.13,6.672 10.32,0 18.68,-2.824 25.08,-8.488 6.39,-5.657 9.6,-13.621 9.6,-23.914 0,-9.106 -3.57,-19.719 -10.71,-31.868 -7.14,-12.16 -17.89,-23.828 -32.27,-34.98 -14.39,-11.184 -32.45,-20.449 -54.2,-27.805 -21.77,-7.359 -46.78,-11.043 -75.05,-11.043 -64.68,0 -114.92,18.438 -150.7,55.332 -35.78,36.895 -53.68,86.953 -53.68,150.176 0,29.758 4.4,57.363 13.23,82.832 8.83,25.469 21.7,47.293 38.61,65.492 16.9,18.2 37.77,32.16 62.58,41.875 24.79,9.723 52.32,14.59 82.57,14.59 39.34,0 73.08,-8.308 101.24,-24.922 28.14,-16.605 49.24,-38.082 63.26,-64.41 14.01,-26.332 21.02,-53.152 21.02,-80.457 0,-25.351 -7.25,-41.785 -21.77,-49.285 -14.51,-7.512 -34.91,-11.25 -61.22,-11.25 z m -196.95,57.805 h 182.57 c -2.46,34.316 -11.74,59.992 -27.85,77.023 -16.11,17.031 -37.31,25.563 -63.61,25.563 -25.09,0 -45.68,-8.649 -61.78,-25.93 -16.11,-17.274 -25.88,-42.836 -29.33,-76.656" /><path
             id="path26"
             style="fill:#62b92c;fill-opacity:1;fill-rule:nonzero;stroke:none"
             d="m 1781.93,606.746 h 23.95 v 30.231 c 0,31.445 3.99,56.453 12.01,75.015 7.97,18.559 21.5,32.086 40.56,40.563 19.05,8.48 45.2,12.718 78.38,12.718 58.75,0 88.16,-14.414 88.16,-43.203 0,-9.351 -3.1,-17.351 -9.24,-23.992 -6.15,-6.648 -13.38,-9.973 -21.74,-9.973 -3.94,0 -10.69,0.735 -20.28,2.219 -9.58,1.473 -17.72,2.211 -24.36,2.211 -18.18,0 -29.87,-5.347 -35.03,-16.019 -5.16,-10.688 -7.75,-25.953 -7.75,-45.825 v -23.945 h 24.71 c 38.34,0 57.55,-11.566 57.55,-34.699 0,-16.5 -5.13,-26.957 -15.33,-31.387 -10.19,-4.433 -24.27,-6.644 -42.22,-6.644 h -24.71 V 267.078 c 0,-19.949 -4.73,-35.144 -14.19,-45.601 -9.48,-10.461 -21.71,-15.696 -36.72,-15.696 -14.25,0 -26.1,5.235 -35.58,15.696 -9.47,10.457 -14.22,25.652 -14.22,45.601 v 266.938 h -27.65 c -15.01,0 -26.56,3.382 -34.67,10.156 -8.11,6.762 -12.17,15.558 -12.17,26.394 0,24.118 16.85,36.18 50.54,36.18" /><path
             id="path28"
             style="fill:#62b92c;fill-opacity:1;fill-rule:nonzero;stroke:none"
             d="m 2111.03,351.055 v -84.063 c 0,-20.398 -4.8,-35.722 -14.38,-45.906 -9.59,-10.195 -21.78,-15.305 -36.52,-15.305 -14.52,0 -26.44,5.176 -35.79,15.489 -9.34,10.312 -14.01,25.566 -14.01,45.734 v 280.285 c 0,45.227 16.34,67.852 49.06,67.852 16.72,0 28.77,-5.293 36.14,-15.868 7.38,-10.578 11.45,-26.21 12.18,-46.871 12.04,20.661 24.39,36.293 37.06,46.871 12.66,10.575 29.55,15.868 50.71,15.868 21.15,0 41.67,-5.293 61.6,-15.868 19.91,-10.578 29.88,-24.605 29.88,-42.062 0,-12.313 -4.25,-22.465 -12.75,-30.453 -8.47,-7.996 -17.63,-11.992 -27.45,-11.992 -3.71,0 -12.62,2.273 -26.76,6.828 -14.12,4.539 -26.62,6.824 -37.43,6.824 -14.74,0 -26.79,-3.879 -36.13,-11.609 -9.36,-7.75 -16.61,-19.235 -21.77,-34.477 -5.15,-15.23 -8.73,-33.371 -10.69,-54.387 -1.96,-21.027 -2.95,-46.644 -2.95,-76.89" /><path
             id="path30"
             style="fill:#62b92c;fill-opacity:1;fill-rule:nonzero;stroke:none"
             d="m 2573.81,385.754 h -196.95 c 0.26,-22.981 4.86,-43.234 13.84,-60.774 8.96,-17.546 20.89,-30.769 35.77,-39.667 14.86,-8.887 31.3,-13.329 49.24,-13.329 12.03,0 23.04,1.414 33.01,4.254 9.96,2.844 19.61,7.285 28.95,13.352 9.34,6.047 17.94,12.527 25.82,19.441 7.86,6.914 18.07,16.313 30.61,28.176 5.15,4.441 12.54,6.672 22.12,6.672 10.33,0 18.68,-2.824 25.08,-8.488 6.4,-5.657 9.6,-13.621 9.6,-23.914 0,-9.106 -3.57,-19.719 -10.71,-31.868 -7.14,-12.16 -17.89,-23.828 -32.27,-34.98 -14.38,-11.184 -32.45,-20.449 -54.2,-27.805 -21.77,-7.359 -46.78,-11.043 -75.04,-11.043 -64.69,0 -114.93,18.438 -150.71,55.332 -35.79,36.895 -53.68,86.953 -53.68,150.176 0,29.758 4.41,57.363 13.22,82.832 8.84,25.469 21.7,47.293 38.63,65.492 16.89,18.2 37.76,32.16 62.58,41.875 24.79,9.723 52.32,14.59 82.55,14.59 39.35,0 73.09,-8.308 101.25,-24.922 28.15,-16.605 49.24,-38.082 63.26,-64.41 14.01,-26.332 21.02,-53.152 21.02,-80.457 0,-25.351 -7.25,-41.785 -21.77,-49.285 -14.5,-7.512 -34.91,-11.25 -61.22,-11.25 z m -196.95,57.805 h 182.57 c -2.46,34.316 -11.74,59.992 -27.84,77.023 -16.13,17.031 -37.32,25.563 -63.62,25.563 -25.08,0 -45.67,-8.649 -61.77,-25.93 -16.12,-17.274 -25.89,-42.836 -29.34,-76.656" /><path
             id="path32"
             style="fill:#62b92c;fill-opacity:1;fill-rule:nonzero;stroke:none"
             d="m 3035,337.395 c 0,-27.778 -6.78,-51.555 -20.28,-71.34 -13.51,-19.785 -33.46,-34.785 -59.85,-44.969 -26.4,-10.207 -58.52,-15.305 -96.33,-15.305 -36.1,0 -67.05,5.528 -92.83,16.582 -25.8,11.055 -44.83,24.883 -57.09,41.477 -12.29,16.582 -18.43,33.23 -18.43,49.969 0,11.054 3.92,20.507 11.74,28.371 7.8,7.871 17.7,11.804 29.68,11.804 10.5,0 18.56,-2.586 24.19,-7.746 5.62,-5.164 11,-12.422 16.12,-21.734 10.35,-17.949 22.71,-31.352 37.13,-40.188 14.41,-8.847 34.05,-13.261 58.93,-13.261 20.2,0 36.75,4.472 49.68,13.449 12.95,8.973 19.41,19.226 19.41,30.769 0,17.696 -6.7,30.594 -20.14,38.704 -13.45,8.101 -35.57,15.847 -66.39,23.218 -34.58,8.594 -62.71,17.645 -84.4,27.118 -21.7,9.464 -39.05,21.941 -52.03,37.445 -13,15.488 -19.49,34.547 -19.49,57.168 0,20.172 6.02,39.238 18.06,57.195 12.03,17.945 29.77,32.27 53.22,42.961 23.46,10.699 51.76,16.059 84.92,16.059 26.02,0 49.42,-2.703 70.16,-8.129 20.75,-5.418 38.07,-12.676 51.94,-21.782 13.86,-9.121 24.43,-19.218 31.68,-30.289 7.25,-11.078 10.87,-21.918 10.87,-32.496 0,-11.566 -3.87,-21.047 -11.6,-28.441 -7.74,-7.383 -18.73,-11.074 -32.96,-11.074 -10.32,0 -19.11,2.949 -26.34,8.863 -7.27,5.898 -15.55,14.762 -24.88,26.57 -7.65,9.821 -16.65,17.692 -27,23.594 -10.36,5.891 -24.4,8.844 -42.15,8.844 -18.23,0 -33.41,-3.875 -45.48,-11.61 -12.09,-7.753 -18.11,-17.398 -18.11,-28.941 0,-10.559 4.42,-19.215 13.3,-25.977 8.88,-6.757 20.83,-12.359 35.87,-16.769 15.04,-4.434 35.74,-9.832 62.13,-16.219 31.2,-7.617 56.69,-16.715 76.48,-27.269 19.76,-10.578 34.76,-23.055 44.95,-37.422 10.21,-14.375 15.32,-30.793 15.32,-49.199" /><path
             id="path34"
             style="fill:#62b92c;fill-opacity:1;fill-rule:nonzero;stroke:none"
             d="M 3188.33,704.039 V 554.617 c 12.8,14.668 25.29,26.281 37.47,34.856 12.18,8.55 25.66,14.961 40.43,19.242 14.76,4.289 30.63,6.426 47.61,6.426 25.58,0 48.3,-5.391 68.12,-16.149 19.82,-10.746 35.38,-26.394 46.7,-46.937 7.07,-12.071 11.86,-25.539 14.3,-40.434 2.46,-14.891 3.68,-32.055 3.68,-51.488 v -193.07 c 0,-20.2 -4.59,-35.442 -13.76,-45.786 -9.18,-10.32 -21.34,-15.496 -36.49,-15.496 -33.02,0 -49.53,20.418 -49.53,61.297 v 170.238 c 0,32.247 -4.82,57.039 -14.45,74.391 -9.64,17.352 -27.9,26.043 -54.82,26.043 -18.02,0 -34.26,-5.121 -48.7,-15.328 -14.46,-10.234 -25.25,-24.188 -32.4,-41.91 -5.44,-15.02 -8.16,-41.723 -8.16,-80.129 V 267.078 c 0,-19.949 -4.49,-35.144 -13.45,-45.601 -8.99,-10.461 -21.47,-15.696 -37.45,-15.696 -33.21,0 -49.81,20.41 -49.81,61.27 v 436.953 c 0,20.43 4.36,35.738 13.11,45.953 8.73,10.203 20.95,15.316 36.7,15.316 15.98,0 28.46,-5.175 37.45,-15.503 8.96,-10.325 13.45,-25.571 13.45,-45.731" /><path
             id="path36"
             style="fill:#464f44;fill-opacity:1;fill-rule:nonzero;stroke:none"
             d="M 990.281,39.3477 968.637,112.449 946.723,39.3477 c -1.703,-5.5586 -3.063,-9.5313 -4.071,-11.9532 -1.004,-2.4062 -2.757,-4.5625 -5.25,-6.4882 -2.5,-1.9024 -5.804,-2.8711 -9.957,-2.8711 -3.34,0 -6.097,0.5703 -8.261,1.7226 -2.164,1.1211 -3.918,2.7227 -5.254,4.793 -1.336,2.0898 -2.43,4.5508 -3.282,7.3906 -0.851,2.8633 -1.609,5.5078 -2.285,7.9414 l -22.285,81.9652 c -1.332,4.761 -2.008,8.386 -2.008,10.867 0,3.152 1.219,5.832 3.657,7.976 2.425,2.161 5.453,3.247 9.043,3.247 4.925,0 8.234,-1.458 9.941,-4.321 1.719,-2.879 3.199,-7.058 4.484,-12.527 l 17.532,-71.0431 19.632,66.4651 c 1.461,5.105 2.774,8.972 3.926,11.629 1.153,2.644 3.047,4.961 5.668,6.875 2.617,1.945 6.18,2.922 10.684,2.922 4.566,0 8.117,-1.028 10.64,-3.04 2.52,-2.011 4.274,-4.226 5.243,-6.601 0.984,-2.371 2.293,-6.309 3.925,-11.785 l 19.835,-66.4651 17.53,71.0431 c 0.85,3.699 1.66,6.594 2.41,8.711 0.76,2.09 2.08,3.972 3.93,5.637 1.86,1.66 4.55,2.5 8.08,2.5 3.53,0 6.54,-1.079 8.99,-3.215 2.48,-2.129 3.71,-4.785 3.71,-8.008 0,-2.266 -0.66,-5.891 -2.01,-10.867 l -22.28,-81.9652 c -1.53,-5.5351 -2.79,-9.6015 -3.8,-12.168 -1,-2.5664 -2.7,-4.832 -5.11,-6.7578 -2.41,-1.9531 -5.8,-2.9218 -10.18,-2.9218 -4.13,0 -7.46,0.9492 -9.956,2.832 -2.492,1.8984 -4.227,4.0039 -5.207,6.3672 -0.973,2.3437 -2.344,6.3984 -4.106,12.1133" /><path
             id="path38"
             style="fill:#464f44;fill-opacity:1;fill-rule:nonzero;stroke:none"
             d="M 1205.78,122.949 H 1144.7 V 93.1055 h 56.24 c 4.13,0 7.22,-0.8477 9.27,-2.5313 2.03,-1.6875 3.06,-3.9336 3.06,-6.707 0,-2.7813 -1,-5.0274 -3.02,-6.7774 -2.01,-1.746 -5.11,-2.6367 -9.31,-2.6367 H 1144.7 V 39.7266 h 63.18 c 4.26,0 7.47,-0.8985 9.62,-2.6953 2.17,-1.8047 3.25,-4.1993 3.25,-7.1875 0,-2.8711 -1.08,-5.2149 -3.25,-7 -2.15,-1.7969 -5.36,-2.6954 -9.62,-2.6954 h -73.67 c -5.9,0 -10.14,1.1914 -12.73,3.5821 -2.57,2.375 -3.87,6.2304 -3.87,11.5508 v 91.6447 c 0,3.554 0.57,6.453 1.74,8.699 1.15,2.246 2.96,3.879 5.41,4.902 2.47,1.036 5.61,1.536 9.45,1.536 h 71.57 c 4.32,0 7.54,-0.872 9.63,-2.622 2.09,-1.753 3.15,-4.05 3.15,-6.89 0,-2.903 -1.06,-5.215 -3.15,-6.977 -2.09,-1.746 -5.31,-2.625 -9.63,-2.625" /><path
             id="path40"
             style="fill:#464f44;fill-opacity:1;fill-rule:nonzero;stroke:none"
             d="m 1346.12,20.1484 h -40.92 c -5.92,0 -10.13,1.1993 -12.66,3.6016 -2.54,2.4219 -3.8,6.25 -3.8,11.5313 v 91.6447 c 0,5.379 1.29,9.258 3.88,11.59 2.59,2.363 6.79,3.547 12.58,3.547 h 43.4 c 6.4,0 11.94,-0.364 16.63,-1.086 4.7,-0.711 8.91,-2.079 12.62,-4.122 3.15,-1.707 5.92,-3.894 8.35,-6.535 2.42,-2.644 4.26,-5.547 5.53,-8.75 1.28,-3.203 1.91,-6.57 1.91,-10.117 0,-12.2225 -6.65,-21.1717 -19.97,-26.8241 17.49,-5.1055 26.23,-15.0391 26.23,-29.7656 0,-6.8164 -1.9,-12.9492 -5.71,-18.4102 -3.82,-5.4687 -8.96,-9.4883 -15.44,-12.0976 -4.08,-1.5508 -8.77,-2.6367 -14.07,-3.2617 -5.3,-0.625 -11.49,-0.9454 -18.56,-0.9454 z M 1315.83,123.652 V 91.9414 h 24.89 c 6.78,0 12.01,0.5859 15.71,1.75 3.68,1.1797 6.5,3.4102 8.46,6.6996 1.54,2.336 2.3,4.953 2.3,7.871 0,6.172 -2.41,10.293 -7.22,12.324 -4.84,2.051 -12.19,3.066 -22.06,3.066 z m 28.28,-49.4215 h -28.28 V 38.5547 h 29.19 c 18.38,0 27.56,6.0351 27.56,18.0781 0,6.1719 -2.38,10.6406 -7.14,13.4258 -4.76,2.7734 -11.87,4.1719 -21.33,4.1719" /><path
             id="path42"
             style="fill:#464f44;fill-opacity:1;fill-rule:nonzero;stroke:none"
             d="m 1580.37,142.063 h 35.32 c 9.18,0 17.06,-0.786 23.64,-2.329 6.56,-1.558 12.53,-4.48 17.89,-8.757 13.84,-10.868 20.77,-27.391 20.77,-49.5707 0,-7.3243 -0.69,-14.004 -2.08,-20.0469 -1.39,-6.0469 -3.55,-11.4961 -6.45,-16.3321 -2.9,-4.871 -6.62,-9.1875 -11.15,-13.0351 -3.59,-2.9219 -7.52,-5.2617 -11.78,-7.0508 -4.26,-1.7578 -8.83,-3.0078 -13.73,-3.7187 -4.89,-0.7344 -10.41,-1.0743 -16.56,-1.0743 h -35.31 c -4.93,0 -8.64,0.6641 -11.13,2.0313 -2.5,1.3672 -4.13,3.2695 -4.88,5.7422 -0.76,2.4609 -1.15,5.664 -1.15,9.5976 v 89.4065 c 0,5.32 1.31,9.179 3.93,11.558 2.61,2.383 6.84,3.579 12.67,3.579 z m 10.49,-19.583 V 39.7266 h 20.55 c 4.51,0 8.04,0.1093 10.6,0.332 2.55,0.2227 5.19,0.7695 7.94,1.6602 2.74,0.8906 5.11,2.1406 7.12,3.7421 9.08,7 13.61,19.0118 13.61,36.1016 0,12.0313 -2,21.0465 -5.98,27.0315 -3.99,5.984 -8.91,9.797 -14.75,11.445 -5.84,1.621 -12.91,2.441 -21.19,2.441 h -17.9" /><path
             id="path44"
             style="fill:#464f44;fill-opacity:1;fill-rule:nonzero;stroke:none"
             d="m 1836.76,122.949 h -61.08 V 93.1055 h 56.24 c 4.14,0 7.23,-0.8477 9.27,-2.5313 2.04,-1.6875 3.06,-3.9336 3.06,-6.707 0,-2.7813 -1.01,-5.0274 -3.01,-6.7774 -2.01,-1.746 -5.13,-2.6367 -9.32,-2.6367 h -56.24 V 39.7266 h 63.19 c 4.24,0 7.45,-0.8985 9.62,-2.6953 2.16,-1.8047 3.23,-4.1993 3.23,-7.1875 0,-2.8711 -1.07,-5.2149 -3.23,-7 -2.17,-1.7969 -5.38,-2.6954 -9.62,-2.6954 h -73.69 c -5.89,0 -10.13,1.1914 -12.72,3.5821 -2.57,2.375 -3.87,6.2304 -3.87,11.5508 v 91.6447 c 0,3.554 0.58,6.453 1.74,8.699 1.15,2.246 2.96,3.879 5.42,4.902 2.47,1.036 5.6,1.536 9.43,1.536 h 71.58 c 4.33,0 7.53,-0.872 9.62,-2.622 2.11,-1.753 3.16,-4.05 3.16,-6.89 0,-2.903 -1.05,-5.215 -3.16,-6.977 -2.09,-1.746 -5.29,-2.625 -9.62,-2.625" /><path
             id="path46"
             style="fill:#464f44;fill-opacity:1;fill-rule:nonzero;stroke:none"
             d="m 1939.84,127.754 30.3,-81.504 30.39,82.09 c 1.58,4.308 2.78,7.312 3.57,8.996 0.78,1.687 2.12,3.211 3.92,4.559 1.84,1.367 4.32,2.043 7.49,2.043 2.31,0 4.44,-0.532 6.42,-1.575 1.98,-1.062 3.55,-2.453 4.66,-4.199 1.14,-1.75 1.69,-3.496 1.69,-5.281 0,-1.223 -0.18,-2.531 -0.55,-3.945 -0.35,-1.418 -0.82,-2.793 -1.35,-4.153 -0.57,-1.355 -1.1,-2.754 -1.66,-4.199 l -32.4,-79.5313 c -1.16,-3.0586 -2.31,-5.9453 -3.47,-8.6914 -1.14,-2.7461 -2.48,-5.1445 -4.02,-7.2149 -1.51,-2.0742 -3.53,-3.7812 -6.07,-5.1093 -2.52,-1.3164 -5.59,-2.0039 -9.26,-2.0039 -3.65,0 -6.73,0.6562 -9.27,1.9648 -2.5,1.2891 -4.57,3.0195 -6.11,5.1484 -1.55,2.1368 -2.92,4.5469 -4.05,7.2618 -1.17,2.7187 -2.31,5.5859 -3.47,8.6445 l -31.86,78.8863 c -0.55,1.438 -1.1,2.825 -1.68,4.231 -0.58,1.363 -1.07,2.867 -1.46,4.48 -0.4,1.602 -0.6,2.95 -0.6,4.063 0,2.82 1.25,5.398 3.74,7.715 2.5,2.336 5.63,3.508 9.41,3.508 4.62,0 7.88,-1.29 9.8,-3.872 1.92,-2.566 3.88,-6.668 5.89,-12.312" /><path
             id="path48"
             style="fill:#464f44;fill-opacity:1;fill-rule:nonzero;stroke:none"
             d="m 2183.42,122.949 h -61.11 V 93.1055 h 56.25 c 4.13,0 7.23,-0.8477 9.29,-2.5313 2.01,-1.6875 3.06,-3.9336 3.06,-6.707 0,-2.7813 -1.01,-5.0274 -3.03,-6.7774 -2.01,-1.746 -5.1,-2.6367 -9.32,-2.6367 h -56.25 V 39.7266 h 63.21 c 4.25,0 7.46,-0.8985 9.61,-2.6953 2.16,-1.8047 3.24,-4.1993 3.24,-7.1875 0,-2.8711 -1.08,-5.2149 -3.24,-7 -2.15,-1.7969 -5.36,-2.6954 -9.61,-2.6954 h -73.7 c -5.88,0 -10.11,1.1914 -12.7,3.5821 -2.59,2.375 -3.88,6.2304 -3.88,11.5508 v 91.6447 c 0,3.554 0.59,6.453 1.76,8.699 1.13,2.246 2.94,3.879 5.39,4.902 2.47,1.036 5.61,1.536 9.43,1.536 h 71.6 c 4.31,0 7.52,-0.872 9.61,-2.622 2.1,-1.753 3.19,-4.05 3.19,-6.89 0,-2.903 -1.09,-5.215 -3.19,-6.977 -2.09,-1.746 -5.3,-2.625 -9.61,-2.625" /><path
             id="path50"
             style="fill:#464f44;fill-opacity:1;fill-rule:nonzero;stroke:none"
             d="M 2293.22,128.984 V 40.4297 h 54.96 c 4.36,0 7.75,-0.9883 10.09,-2.918 2.35,-1.9453 3.52,-4.3672 3.52,-7.3164 0,-2.9883 -1.17,-5.4219 -3.47,-7.2656 -2.3,-1.8633 -5.72,-2.7813 -10.14,-2.7813 h -65.45 c -5.88,0 -10.14,1.1914 -12.73,3.5625 -2.56,2.3829 -3.88,6.2227 -3.88,11.5313 v 93.7418 c 0,4.981 1.23,8.711 3.7,11.211 2.45,2.481 5.71,3.743 9.7,3.743 4.09,0 7.38,-1.235 9.92,-3.704 2.5,-2.453 3.78,-6.218 3.78,-11.25" /><path
             id="path52"
             style="fill:#464f44;fill-opacity:1;fill-rule:nonzero;stroke:none"
             d="m 2475.78,143.938 c 13.84,0 25.77,-2.579 35.7,-7.676 9.91,-5.141 17.45,-12.414 22.56,-21.848 5.13,-9.441 7.66,-20.5273 7.66,-33.2538 0,-9.4141 -1.4,-17.9766 -4.2,-25.6719 -2.8,-7.6953 -7,-14.3672 -12.58,-20.0078 -5.6,-5.6446 -12.48,-9.9532 -20.6,-12.9532 -8.13,-2.9882 -17.49,-4.4921 -28.01,-4.4921 -10.44,0 -19.81,1.5546 -28.06,4.6132 -8.28,3.0743 -15.19,7.4024 -20.73,12.9883 -5.53,5.6016 -9.69,12.3321 -12.52,20.1836 -2.83,7.8516 -4.22,16.3672 -4.22,25.4961 0,9.3594 1.45,17.9414 4.42,25.7466 2.95,7.8 7.2,14.441 12.79,19.929 5.61,5.469 12.39,9.668 20.43,12.586 8.01,2.895 17.13,4.36 27.36,4.36 z m 38.62,-62.6216 c 0,8.9258 -1.6,16.6445 -4.79,23.1876 -3.18,6.519 -7.69,11.473 -13.57,14.82 -5.89,3.34 -12.66,5.024 -20.26,5.024 -5.44,0 -10.46,-0.93 -15.06,-2.785 -4.6,-1.844 -8.57,-4.551 -11.89,-8.094 -3.33,-3.547 -5.94,-8.078 -7.87,-13.5979 -1.92,-5.4961 -2.89,-11.6875 -2.89,-18.5547 0,-6.9141 0.97,-13.1719 2.89,-18.7773 1.93,-5.5977 4.63,-10.2227 8.13,-13.918 3.53,-3.6797 7.56,-6.4258 12.1,-8.2617 4.54,-1.8242 9.52,-2.7422 14.95,-2.7422 6.96,0 13.34,1.582 19.17,4.7383 5.8,3.164 10.46,8.0351 13.89,14.6289 3.45,6.582 5.2,14.6875 5.2,24.332" /><path
             id="path54"
             style="fill:#464f44;fill-opacity:1;fill-rule:nonzero;stroke:none"
             d="m 2663.56,67.4609 h -24.88 V 33.0586 c 0,-4.9219 -1.28,-8.6641 -3.81,-11.2031 -2.58,-2.5469 -5.8,-3.8203 -9.68,-3.8203 -4.08,0 -7.37,1.2734 -9.85,3.8007 -2.5,2.5196 -3.73,6.2227 -3.73,11.0938 v 93.9963 c 0,5.437 1.36,9.304 4.11,11.64 2.74,2.332 7.11,3.497 13.05,3.497 h 34.83 c 10.27,0 18.21,-0.715 23.74,-2.141 5.45,-1.406 10.17,-3.699 14.14,-6.914 3.94,-3.242 6.92,-7.18 9,-11.856 2.07,-4.66 3.1,-9.914 3.1,-15.754 0,-12.4488 -4.2,-21.8902 -12.57,-28.2964 -8.39,-6.4258 -20.86,-9.6407 -37.45,-9.6407 z m -6.58,56.1911 h -18.3 V 86.1211 h 18.3 c 6.41,0 11.77,0.5977 16.06,1.8281 4.31,1.2305 7.57,3.25 9.85,6.0352 2.23,2.7929 3.37,6.4456 3.37,10.9886 0,5.418 -1.74,9.824 -5.21,13.23 -3.9,3.633 -11.92,5.449 -24.07,5.449" /><path
             id="path56"
             style="fill:#464f44;fill-opacity:1;fill-rule:nonzero;stroke:none"
             d="m 2828.19,38.4961 -21.43,77.6879 V 32.0234 c 0,-4.6679 -1.17,-8.1445 -3.43,-10.4921 -2.28,-2.3204 -5.31,-3.4961 -9.1,-3.4961 -3.67,0 -6.65,1.164 -8.97,3.457 -2.34,2.3086 -3.47,5.8125 -3.47,10.5312 v 96.4926 c 0,5.312 1.52,8.894 4.54,10.769 3.06,1.848 7.17,2.778 12.36,2.778 h 8.39 c 5.04,0 8.71,-0.422 11.01,-1.25 2.28,-0.833 3.97,-2.329 5.05,-4.485 1.1,-2.18 2.36,-5.691 3.75,-10.594 l 19.4,-66.8942 19.48,66.8942 c 1.4,4.903 2.61,8.414 3.73,10.594 1.1,2.156 2.76,3.652 5.07,4.485 2.27,0.828 5.94,1.25 10.98,1.25 h 8.4 c 5.18,0 9.29,-0.93 12.32,-2.778 3.03,-1.875 4.57,-5.457 4.57,-10.769 V 32.0234 c 0,-4.6679 -1.15,-8.1445 -3.43,-10.4921 -2.28,-2.3204 -5.33,-3.4961 -9.18,-3.4961 -3.62,0 -6.56,1.1757 -8.89,3.4961 -2.33,2.3476 -3.47,5.8242 -3.47,10.4921 v 84.1606 l -21.41,-77.6879 c -1.4,-5.0391 -2.53,-8.7383 -3.44,-11.1016 -0.88,-2.3672 -2.48,-4.5039 -4.86,-6.4375 -2.37,-1.9336 -5.67,-2.9218 -9.87,-2.9218 -3.13,0 -5.82,0.6367 -8,1.875 -2.18,1.25 -3.9,2.8554 -5.1,4.7851 -1.23,1.9453 -2.19,4.0938 -2.89,6.4492 -0.67,2.3516 -1.39,4.8008 -2.11,7.3516" /><path
             id="path58"
             style="fill:#464f44;fill-opacity:1;fill-rule:nonzero;stroke:none"
             d="m 3073.51,122.949 h -61.07 V 93.1055 h 56.24 c 4.13,0 7.21,-0.8477 9.25,-2.5313 2.06,-1.6875 3.07,-3.9336 3.07,-6.707 0,-2.7813 -1.01,-5.0274 -3,-6.7774 -2.02,-1.746 -5.13,-2.6367 -9.32,-2.6367 h -56.24 V 39.7266 h 63.17 c 4.25,0 7.49,-0.8985 9.64,-2.6953 2.17,-1.8047 3.23,-4.1993 3.23,-7.1875 0,-2.8711 -1.06,-5.2149 -3.23,-7 -2.15,-1.7969 -5.39,-2.6954 -9.64,-2.6954 h -73.67 c -5.89,0 -10.15,1.1914 -12.73,3.5821 -2.57,2.375 -3.85,6.2304 -3.85,11.5508 v 91.6447 c 0,3.554 0.55,6.453 1.72,8.699 1.16,2.246 2.96,3.879 5.42,4.902 2.49,1.036 5.62,1.536 9.44,1.536 h 71.57 c 4.35,0 7.54,-0.872 9.65,-2.622 2.09,-1.753 3.14,-4.05 3.14,-6.89 0,-2.903 -1.05,-5.215 -3.14,-6.977 -2.11,-1.746 -5.3,-2.625 -9.65,-2.625" /><path
             id="path60"
             style="fill:#464f44;fill-opacity:1;fill-rule:nonzero;stroke:none"
             d="m 3191.97,129.148 52.09,-71.7066 v 72.3946 c 0,4.687 1.15,8.199 3.36,10.562 2.21,2.356 5.22,3.54 9,3.54 3.91,0 7,-1.184 9.24,-3.54 2.24,-2.363 3.39,-5.875 3.39,-10.593 V 34.0703 c 0,-10.6914 -4.88,-16.0351 -14.64,-16.0351 -2.42,0 -4.63,0.3242 -6.55,0.9687 -1.96,0.6367 -3.8,1.6484 -5.51,3.0352 -1.7,1.3789 -3.29,2.9882 -4.75,4.8632 -1.46,1.8477 -2.92,3.7618 -4.37,5.6954 l -50.84,70.9963 V 32.1797 c 0,-4.6602 -1.21,-8.1875 -3.57,-10.5703 -2.39,-2.3711 -5.45,-3.5742 -9.15,-3.5742 -3.84,0 -6.93,1.2109 -9.26,3.625 -2.31,2.4023 -3.47,5.8906 -3.47,10.4961 v 93.9177 c 0,3.977 0.5,7.117 1.48,9.395 1.14,2.48 3.07,4.511 5.75,6.101 2.67,1.575 5.59,2.368 8.68,2.368 2.45,0 4.51,-0.372 6.26,-1.086 1.74,-0.723 3.28,-1.692 4.58,-2.918 1.31,-1.204 2.65,-2.778 4.02,-4.707 1.37,-1.946 2.79,-3.965 4.26,-6.079" /><path
             id="path62"
             style="fill:#464f44;fill-opacity:1;fill-rule:nonzero;stroke:none"
             d="m 3432.22,121.785 h -29.57 V 33.1055 c 0,-5.0977 -1.25,-8.8867 -3.73,-11.3594 -2.48,-2.4609 -5.68,-3.7109 -9.62,-3.7109 -3.98,0 -7.24,1.2617 -9.73,3.7421 -2.53,2.5 -3.79,6.2891 -3.79,11.3282 v 88.6795 h -29.57 c -4.63,0 -8.08,0.918 -10.32,2.766 -2.25,1.847 -3.39,4.297 -3.39,7.324 0,3.152 1.18,5.645 3.5,7.441 2.36,1.844 5.75,2.747 10.21,2.747 h 86.01 c 4.67,0 8.17,-0.93 10.44,-2.805 2.31,-1.887 3.44,-4.336 3.44,-7.383 0,-3.027 -1.17,-5.477 -3.48,-7.324 -2.29,-1.848 -5.79,-2.766 -10.4,-2.766" /><path
             id="path64"
             style="fill:#62b92c;fill-opacity:1;fill-rule:nonzero;stroke:none"
             d="m 426.559,428.906 c 24.093,6.121 42.543,16.539 55.25,31.242 12.718,14.715 19.093,34.965 19.093,60.793 0,20.172 -5.14,37.942 -15.371,53.321 -10.254,15.367 -24.441,26.832 -42.625,34.468 -17.199,7.254 -51.07,10.918 -101.613,10.918 H 0 V 419.727 h 337.328 c 35.348,0 65.106,3.062 89.231,9.179" /><path
             id="path66"
             style="fill:#62b92c;fill-opacity:1;fill-rule:nonzero;stroke:none"
             d="m 648.008,30.9375 c -9.617,10.3711 -22.891,25.793 -39.762,46.2891 l -71.777,86.9064 c -25.934,31.933 -48.399,55.816 -67.453,71.707 -19.059,15.906 -45.504,36.543 -69.414,47.305 -4.954,2.238 -52.485,22.058 -78.856,31.765 -34.891,-0.379 -60.351,0.41 -60.351,0.41 v -0.078 c -1.161,0.024 -2.196,0.117 -3.375,0.117 L 0,315.359 V 88.8281 C 0,39.7656 39.7656,0 88.8203,0 H 694.473 c 3.218,0 6.386,0.195313 9.515,0.527344 C 695.512,1.14453 687.652,2.98828 680.543,6.46484 668.445,12.3828 657.629,20.5352 648.008,30.9375" /><path
             id="path68"
             style="fill:#62b92c;fill-opacity:1;fill-rule:nonzero;stroke:none"
             d="m 776.176,694.473 c 0,49.062 -39.758,88.824 -88.817,88.824 H 81.7109 C 45.0234,783.297 13.5508,761.066 0,729.328 h 380.805 c 32.984,0 61.226,-1.398 84.656,-4.168 23.441,-2.801 44.551,-8.48 63.383,-16.992 22.695,-9.555 42.773,-23.207 60.242,-40.98 17.437,-17.778 30.664,-38.422 39.73,-61.954 9.067,-23.543 13.582,-48.449 13.582,-74.761 0,-53.981 -15.226,-97.11 -45.695,-129.368 -21.387,-22.66 -50.672,-40.558 -87.566,-53.949 31.23,-15.926 91.297,-61.89 115.281,-82.129 27.129,-22.871 51.988,-47.832 74.602,-74.863 22.621,-26.961 40.793,-51.68 54.519,-74.098 11.629,-19.0152 18.535,-32.9137 21.274,-42.2652 -0.204,-1.2031 -0.579,-2.336 -0.833,-3.5195 1.293,5.9882 2.196,12.1523 2.196,18.5468 V 694.473" /></g></g></g></g></svg>