<?xml version="1.0" encoding="UTF-8" standalone="no"?>
<svg
   xmlns:dc="http://purl.org/dc/elements/1.1/"
   xmlns:cc="http://creativecommons.org/ns#"
   xmlns:rdf="http://www.w3.org/1999/02/22-rdf-syntax-ns#"
   xmlns:svg="http://www.w3.org/2000/svg"
   xmlns="http://www.w3.org/2000/svg"
   viewBox="0 0 468.14667 150.96001"
   height="150.96001"
   width="468.14667"
   xml:space="preserve"
   id="svg2"
   version="1.1"><metadata
     id="metadata8"><rdf:RDF><cc:Work
         rdf:about=""><dc:format>image/svg+xml</dc:format><dc:type
           rdf:resource="http://purl.org/dc/dcmitype/StillImage" /></cc:Work></rdf:RDF></metadata><defs
     id="defs6"><clipPath
       id="clipPath20"
       clipPathUnits="userSpaceOnUse"><path
         id="path18"
         d="M 0,2 V 1132 H 3510 V 2 Z" /></clipPath><clipPath
       id="clipPath74"
       clipPathUnits="userSpaceOnUse"><path
         id="path72"
         d="m 870.313,865.402 c 0,-136.367 -159.891,-246.914 -357.168,-246.914 -197.239,0 -357.149,110.547 -357.149,246.914 0,136.358 159.91,246.888 357.149,246.888 197.277,0 357.168,-110.53 357.168,-246.888" /></clipPath><linearGradient
       id="linearGradient86"
       spreadMethod="pad"
       gradientTransform="matrix(-1.64e-5,-375.735,-754.316,3.3e-5,890.313,1103.36)"
       gradientUnits="userSpaceOnUse"
       y2="0"
       x2="1"
       y1="0"
       x1="0"><stop
         id="stop78"
         offset="0"
         style="stop-opacity:1;stop-color:#ffffff" /><stop
         id="stop80"
         offset="0.291667"
         style="stop-opacity:1;stop-color:#ffffff" /><stop
         id="stop82"
         offset="0.880208"
         style="stop-opacity:1;stop-color:#ffffff" /><stop
         id="stop84"
         offset="1"
         style="stop-opacity:1;stop-color:#ffffff" /></linearGradient><linearGradient
       id="linearGradient98"
       gradientTransform="matrix(-1.64e-5,-375.735,-754.316,3.3e-5,890.313,1103.36)"
       gradientUnits="userSpaceOnUse"
       y2="0"
       x2="0.29166701"
       y1="0"
       x1="0"><stop
         id="stop92"
         offset="0"
         style="stop-opacity:1;stop-color:#ffffff" /><stop
         id="stop94"
         offset="0.52153686"
         style="stop-opacity:1;stop-color:#6ec72e" /><stop
         id="stop96"
         offset="1"
         style="stop-opacity:1;stop-color:#6ec72e" /></linearGradient><linearGradient
       id="linearGradient108"
       gradientTransform="matrix(-1.64e-5,-375.735,-754.316,3.3e-5,890.313,1103.36)"
       gradientUnits="userSpaceOnUse"
       y2="0"
       x2="0.88020802"
       y1="0"
       x1="0.29166701"><stop
         id="stop102"
         offset="0"
         style="stop-opacity:1;stop-color:#6ec72e" /><stop
         id="stop104"
         offset="0.49825114"
         style="stop-opacity:1;stop-color:#ffffff" /><stop
         id="stop106"
         offset="1"
         style="stop-opacity:1;stop-color:#ffffff" /></linearGradient><linearGradient
       id="linearGradient116"
       gradientTransform="matrix(-1.64e-5,-375.735,-754.316,3.3e-5,890.313,1103.36)"
       gradientUnits="userSpaceOnUse"
       y2="0"
       x2="1"
       y1="0"
       x1="0.88020802"><stop
         id="stop112"
         offset="0"
         style="stop-opacity:1;stop-color:#ffffff" /><stop
         id="stop114"
         offset="1"
         style="stop-opacity:1;stop-color:#ffffff" /></linearGradient><linearGradient
       id="linearGradient128"
       gradientTransform="matrix(-1.64e-5,-375.735,-754.316,3.3e-5,890.313,1103.36)"
       gradientUnits="userSpaceOnUse"
       y2="0"
       x2="0.29166701"
       y1="0"
       x1="0"><stop
         id="stop122"
         offset="0"
         style="stop-opacity:1;stop-color:#ffffff" /><stop
         id="stop124"
         offset="0.52153686"
         style="stop-opacity:1;stop-color:#ffffff" /><stop
         id="stop126"
         offset="1"
         style="stop-opacity:1;stop-color:#ffffff" /></linearGradient><linearGradient
       id="linearGradient138"
       gradientTransform="matrix(-1.64e-5,-375.735,-754.316,3.3e-5,890.313,1103.36)"
       gradientUnits="userSpaceOnUse"
       y2="0"
       x2="0.88020802"
       y1="0"
       x1="0.29166701"><stop
         id="stop132"
         offset="0"
         style="stop-opacity:1;stop-color:#ffffff" /><stop
         id="stop134"
         offset="0.49825114"
         style="stop-opacity:1;stop-color:#0fab4b" /><stop
         id="stop136"
         offset="1"
         style="stop-opacity:1;stop-color:#0fab4b" /></linearGradient><linearGradient
       id="linearGradient146"
       gradientTransform="matrix(-1.64e-5,-375.735,-754.316,3.3e-5,890.313,1103.36)"
       gradientUnits="userSpaceOnUse"
       y2="0"
       x2="1"
       y1="0"
       x1="0.88020802"><stop
         id="stop142"
         offset="0"
         style="stop-opacity:1;stop-color:#0fab4b" /><stop
         id="stop144"
         offset="1"
         style="stop-opacity:1;stop-color:#0fab4b" /></linearGradient><clipPath
       id="clipPath156"
       clipPathUnits="userSpaceOnUse"><path
         id="path154"
         d="m 155.996,389.184 c 0,136.367 159.91,246.91 357.149,246.91 197.277,0 357.168,-110.543 357.168,-246.91 0,-136.379 -159.891,-246.895 -357.168,-246.895 -197.239,0 -357.149,110.516 -357.149,246.895" /></clipPath><linearGradient
       id="linearGradient168"
       spreadMethod="pad"
       gradientTransform="matrix(-1.54e-5,353.066,754.316,3.3e-5,135.996,134.681)"
       gradientUnits="userSpaceOnUse"
       y2="0"
       x2="1"
       y1="0"
       x1="0"><stop
         id="stop160"
         offset="0"
         style="stop-opacity:1;stop-color:#ffffff" /><stop
         id="stop162"
         offset="0.291667"
         style="stop-opacity:1;stop-color:#ffffff" /><stop
         id="stop164"
         offset="0.880208"
         style="stop-opacity:1;stop-color:#ffffff" /><stop
         id="stop166"
         offset="1"
         style="stop-opacity:1;stop-color:#ffffff" /></linearGradient><linearGradient
       id="linearGradient180"
       gradientTransform="matrix(-1.54e-5,353.066,754.316,3.3e-5,135.996,134.681)"
       gradientUnits="userSpaceOnUse"
       y2="0"
       x2="0.29166701"
       y1="0"
       x1="0"><stop
         id="stop174"
         offset="0"
         style="stop-opacity:1;stop-color:#ffffff" /><stop
         id="stop176"
         offset="0.52153686"
         style="stop-opacity:1;stop-color:#6ec72e" /><stop
         id="stop178"
         offset="1"
         style="stop-opacity:1;stop-color:#6ec72e" /></linearGradient><linearGradient
       id="linearGradient190"
       gradientTransform="matrix(-1.54e-5,353.066,754.316,3.3e-5,135.996,134.681)"
       gradientUnits="userSpaceOnUse"
       y2="0"
       x2="0.88020802"
       y1="0"
       x1="0.29166701"><stop
         id="stop184"
         offset="0"
         style="stop-opacity:1;stop-color:#6ec72e" /><stop
         id="stop186"
         offset="0.49825114"
         style="stop-opacity:1;stop-color:#ffffff" /><stop
         id="stop188"
         offset="1"
         style="stop-opacity:1;stop-color:#ffffff" /></linearGradient><linearGradient
       id="linearGradient198"
       gradientTransform="matrix(-1.54e-5,353.066,754.316,3.3e-5,135.996,134.681)"
       gradientUnits="userSpaceOnUse"
       y2="0"
       x2="1"
       y1="0"
       x1="0.88020802"><stop
         id="stop194"
         offset="0"
         style="stop-opacity:1;stop-color:#ffffff" /><stop
         id="stop196"
         offset="1"
         style="stop-opacity:1;stop-color:#ffffff" /></linearGradient><linearGradient
       id="linearGradient210"
       gradientTransform="matrix(-1.54e-5,353.066,754.316,3.3e-5,135.996,134.681)"
       gradientUnits="userSpaceOnUse"
       y2="0"
       x2="0.29166701"
       y1="0"
       x1="0"><stop
         id="stop204"
         offset="0"
         style="stop-opacity:1;stop-color:#ffffff" /><stop
         id="stop206"
         offset="0.52153686"
         style="stop-opacity:1;stop-color:#ffffff" /><stop
         id="stop208"
         offset="1"
         style="stop-opacity:1;stop-color:#ffffff" /></linearGradient><linearGradient
       id="linearGradient220"
       gradientTransform="matrix(-1.54e-5,353.066,754.316,3.3e-5,135.996,134.681)"
       gradientUnits="userSpaceOnUse"
       y2="0"
       x2="0.88020802"
       y1="0"
       x1="0.29166701"><stop
         id="stop214"
         offset="0"
         style="stop-opacity:1;stop-color:#ffffff" /><stop
         id="stop216"
         offset="0.49825114"
         style="stop-opacity:1;stop-color:#0fab4b" /><stop
         id="stop218"
         offset="1"
         style="stop-opacity:1;stop-color:#0fab4b" /></linearGradient><linearGradient
       id="linearGradient228"
       gradientTransform="matrix(-1.54e-5,353.066,754.316,3.3e-5,135.996,134.681)"
       gradientUnits="userSpaceOnUse"
       y2="0"
       x2="1"
       y1="0"
       x1="0.88020802"><stop
         id="stop224"
         offset="0"
         style="stop-opacity:1;stop-color:#0fab4b" /><stop
         id="stop226"
         offset="1"
         style="stop-opacity:1;stop-color:#0fab4b" /></linearGradient><clipPath
       id="clipPath238"
       clipPathUnits="userSpaceOnUse"><path
         id="path236"
         d="M 0,2 H 3510 V 1132 H 0 Z" /></clipPath></defs><g
     transform="matrix(1.3333333,0,0,-1.3333333,0,150.96)"
     id="g10"><g
       transform="scale(0.1)"
       id="g12"><g
         id="g14"><g
           clip-path="url(#clipPath20)"
           id="g16"><path
             id="path22"
             style="fill:#ebebeb;fill-opacity:1;fill-rule:nonzero;stroke:none"
             d="M 746.25,50.8516 C 746.25,22.7813 638.223,0 504.949,0 371.68,0 263.645,22.7813 263.645,50.8516 c 0,28.0468 108.035,50.8084 241.304,50.8084 133.274,0 241.301,-22.7616 241.301,-50.8084" /><path
             id="path24"
             style="fill:#231f20;fill-opacity:1;fill-rule:nonzero;stroke:none"
             d="m 1085.54,482.504 v 347.762 c 0,70.089 15.02,123.488 45.08,160.207 30.04,36.207 76.15,54.307 138.3,54.307 47.77,0 87.46,-13.87 119.04,-41.59 33.9,-30.045 50.85,-68.936 50.85,-116.694 0,-25.937 -5.35,-49.691 -16.04,-71.25 -10.95,-22.082 -26.61,-38.641 -46.97,-49.672 48.12,-18.726 72.18,-55.379 72.18,-109.996 V 484.457 h -73.33 l -0.38,156.926 c -4.66,55.371 -38.13,83.078 -100.45,83.078 h -81.52 v 69.547 h 66.49 c 27.06,0 50.25,6.797 69.59,20.39 24.22,16.922 36.34,40.907 36.34,71.95 0,28.207 -10.7,50.785 -32.07,67.707 -18.55,14.117 -40.18,21.172 -64.9,21.172 -35.01,0 -62.18,-11.555 -81.5,-34.637 -17.5,-20.543 -26.26,-44.922 -26.26,-73.145 V 482.504 h -74.45" /><path
             id="path26"
             style="fill:#0fab4b;fill-opacity:1;fill-rule:nonzero;stroke:none"
             d="m 1604.45,664.707 188.41,103.848 c -11.03,10.992 -20,18.261 -26.93,21.843 -16.15,8.938 -36.52,13.403 -61.13,13.403 -37.94,0 -68.18,-14.188 -90.74,-42.528 -20.52,-25.546 -30.77,-56.972 -30.77,-94.265 0,-32.449 10.76,-60.676 32.31,-84.684 23.57,-26.054 54.34,-39.09 92.29,-39.09 38.19,0 67.3,10.465 87.28,31.438 17.95,18.121 30.78,47.113 38.45,86.973 l 69.61,-9.582 c 0,-40.653 -16.52,-78.497 -49.59,-113.512 -39.45,-41.938 -89.68,-62.903 -150.66,-62.903 -51.24,0 -96.09,18.543 -134.52,55.672 -38.45,37.137 -57.65,81.672 -57.65,133.645 0,65.543 21.63,117.5 64.95,155.902 37.15,33.031 80.19,49.547 129.13,49.547 42.8,0 79.18,-9.766 109.16,-29.297 29.46,-20.051 54.71,-50.371 75.71,-90.957 l -255.31,-140.754 -30,55.301" /><path
             id="path28"
             style="fill:#231f20;fill-opacity:1;fill-rule:nonzero;stroke:none"
             d="m 1966.44,484.457 v 413.598 c 0,48.98 15.15,85.789 45.46,110.415 23.11,18.98 49.57,28.47 79.4,28.47 h 68.2 v -66.608 h -50.17 c -25.22,0 -43.89,-6.277 -55.98,-18.797 -9.51,-9.98 -15.31,-24.168 -17.36,-42.566 v -46.391 h 113.9 v -66.613 h -113.9 V 484.457 h -69.55" /><path
             id="path30"
             style="fill:#231f20;fill-opacity:1;fill-rule:nonzero;stroke:none"
             d="m 2179.09,862.578 h 66.1 v -44.445 c 9.49,15.226 21.68,27.363 36.6,36.406 17.69,10.578 38.36,15.875 61.99,15.875 h 21.56 v -66.613 h -16.56 c -35.96,0 -62.77,-14.969 -80.49,-44.906 -13.12,-22.008 -19.65,-47.473 -19.65,-76.372 V 484.457 h -69.55 v 378.121" /><path
             id="path32"
             style="fill:#0fab4b;fill-opacity:1;fill-rule:nonzero;stroke:none"
             d="m 2480.5,664.707 188.4,103.848 c -11.04,10.992 -20.02,18.261 -26.94,21.843 -16.15,8.938 -36.52,13.403 -61.13,13.403 -37.95,0 -68.18,-14.188 -90.74,-42.528 -20.51,-25.546 -30.76,-56.972 -30.76,-94.265 0,-32.449 10.76,-60.676 32.3,-84.684 23.58,-26.054 54.34,-39.09 92.29,-39.09 38.2,0 67.28,10.465 87.3,31.438 17.93,18.121 30.76,47.113 38.44,86.973 l 69.61,-9.582 c 0,-40.653 -16.53,-78.497 -49.59,-113.512 -39.46,-41.938 -89.69,-62.903 -150.67,-62.903 -51.25,0 -96.09,18.543 -134.51,55.672 -38.46,37.137 -57.65,81.672 -57.65,133.645 0,65.543 21.64,117.5 64.94,155.902 37.15,33.031 80.19,49.547 129.14,49.547 42.79,0 79.18,-9.766 109.16,-29.297 29.47,-20.051 54.7,-50.371 75.72,-90.957 l -255.31,-140.754 -30,55.301" /><path
             id="path34"
             style="fill:#231f20;fill-opacity:1;fill-rule:nonzero;stroke:none"
             d="m 2824.44,549.113 h 189.14 l 5.77,-1.543 c 13.02,1.543 22.36,3.598 28,6.16 10.98,5.879 16.51,15.059 16.51,27.618 0,19.933 -19.83,36.429 -59.48,49.465 -31.46,8.949 -55.64,15.984 -72.51,21.093 -37.09,12.832 -63.56,26.285 -79.42,40.395 -18.67,16.668 -28.01,39.246 -28.01,67.726 0,37.192 14.34,64.504 43.03,81.95 22.03,13.066 50.7,19.625 86.06,19.625 h 162.89 v -66.618 h -176.21 c -28.93,0 -43.36,-11.246 -43.36,-33.746 1.52,-15.086 15.21,-27.625 41.07,-37.593 8.2,-3.075 32.52,-9.594 72.99,-19.555 44.55,-12.797 76.81,-29.313 96.8,-49.531 18.41,-18.95 27.65,-42.871 27.65,-71.805 0,-38.66 -15,-66.16 -44.96,-82.535 -19.47,-10.489 -45.49,-15.762 -78.03,-15.762 h -23.43 -164.5 v 64.656" /><path
             id="path36"
             style="fill:#231f20;fill-opacity:1;fill-rule:nonzero;stroke:none"
             d="m 3189.85,1036.94 h 67.58 V 832.262 c 15.12,12.64 31.13,22.183 48.05,28.648 16.68,5.68 36.07,8.528 58.16,8.528 42.62,0 77.01,-12.2 103.21,-36.567 29.53,-26.691 44.29,-64.683 44.29,-113.949 V 484.457 h -71.5 v 221.484 c 0,31.512 -7.56,55.606 -22.68,72.278 -15.64,16.402 -36.52,24.605 -62.65,24.605 -34.09,0 -59.59,-11.277 -76.51,-33.84 -13.57,-17.941 -20.37,-40.621 -20.37,-68.054 V 484.457 h -67.58 v 552.483" /><path
             id="path38"
             style="fill:#0fab4b;fill-opacity:1;fill-rule:nonzero;stroke:none"
             d="m 1085.53,386.887 h 17.32 l 34.67,-131.129 34.86,131.129 h 23.85 l 35.07,-131.129 34.66,131.129 h 17.53 L 1242.1,235.305 h -21.49 l -36.3,133.457 -35.68,-133.457 h -22.33 l -40.77,151.582" /><path
             id="path40"
             style="fill:#0fab4b;fill-opacity:1;fill-rule:nonzero;stroke:none"
             d="m 1328.93,235.305 v 151.582 h 106.46 v -16.16 h -89.78 v -49.473 h 87.24 v -15.43 h -87.24 v -54.609 h 89.78 v -15.91 h -106.46" /><path
             id="path42"
             style="fill:#0fab4b;fill-opacity:1;fill-rule:nonzero;stroke:none"
             d="m 1483.54,235.305 v 151.582 h 70.56 c 16.34,0 27.2,-2.481 32.55,-7.43 5.34,-4.934 8,-15.031 8,-30.305 0,-11.718 -1.3,-19.937 -3.94,-24.636 -2.62,-4.715 -7.25,-7.95 -13.87,-9.715 8.01,-2.043 13.59,-5.649 16.75,-10.852 3.16,-5.215 4.74,-13.945 4.74,-26.261 0,-16.7 -3.28,-27.958 -9.87,-33.719 -6.59,-5.781 -19.81,-8.664 -39.66,-8.664 z m 16.44,86.191 h 54.74 c 8.9,0 14.88,1.594 17.93,4.766 3.07,3.176 4.59,10.199 4.59,21.015 0,10.364 -1.63,16.86 -4.9,19.485 -3.26,2.644 -11.57,3.965 -24.97,3.965 h -47.39 z m 0,-70.281 h 55.35 c 10.01,0 16.73,1.551 20.17,4.637 3.46,3.086 5.17,11.132 5.17,24.121 0,10.929 -1.93,18.031 -5.78,21.25 -3.86,3.246 -13.88,4.843 -30.07,4.843 h -44.84 v -54.851" /><path
             id="path44"
             style="fill:#0fab4b;fill-opacity:1;fill-rule:nonzero;stroke:none"
             d="m 1742.05,235.305 v 151.582 h 73.18 c 19.06,0 32.46,-3.789 40.13,-11.328 7.7,-7.539 11.54,-20.692 11.54,-39.454 v -49.96 c 0,-18.79 -3.85,-31.942 -11.58,-39.5 -7.73,-7.571 -21.1,-11.34 -40.09,-11.34 z m 16.68,14.933 h 53.75 c 14.6,0 24.38,2.481 29.34,7.422 4.95,4.961 7.43,14.395 7.43,28.281 v 48.938 c 0,14.644 -2.45,24.441 -7.38,29.402 -4.92,4.942 -14.72,7.41 -29.39,7.41 h -53.75 V 250.238" /><path
             id="path46"
             style="fill:#0fab4b;fill-opacity:1;fill-rule:nonzero;stroke:none"
             d="m 1919.56,235.305 v 151.582 h 106.45 v -16.16 h -89.78 v -49.473 h 87.25 v -15.43 h -87.25 v -54.609 h 89.78 v -15.91 h -106.45" /><path
             id="path48"
             style="fill:#0fab4b;fill-opacity:1;fill-rule:nonzero;stroke:none"
             d="m 2055.75,386.887 h 17.96 l 48.48,-135.918 48.66,135.918 h 17.86 l -55.6,-151.582 h -21.75 l -55.61,151.582" /><path
             id="path50"
             style="fill:#0fab4b;fill-opacity:1;fill-rule:nonzero;stroke:none"
             d="m 2230.5,235.305 v 151.582 h 106.46 v -16.16 h -89.78 v -49.473 h 87.23 v -15.43 h -87.23 v -54.609 h 89.78 v -15.91 H 2230.5" /><path
             id="path52"
             style="fill:#0fab4b;fill-opacity:1;fill-rule:nonzero;stroke:none"
             d="m 2384.86,235.305 v 151.582 h 16.44 V 251.215 h 86.09 v -15.91 h -102.53" /><path
             id="path54"
             style="fill:#0fab4b;fill-opacity:1;fill-rule:nonzero;stroke:none"
             d="m 2525.54,336.793 c 0,19.297 4.02,32.754 12.04,40.379 8.03,7.605 22.27,11.426 42.74,11.426 h 19.16 c 20.7,0 35,-3.77 42.95,-11.282 7.91,-7.507 11.89,-21.023 11.89,-40.523 v -51.398 c 0,-19.375 -4.04,-32.852 -12.1,-40.442 -8.07,-7.566 -22.33,-11.363 -42.74,-11.363 h -19.16 c -20.47,0 -34.71,3.797 -42.74,11.363 -8.02,7.59 -12.04,21.067 -12.04,40.442 z m 68.96,36.133 h -9.39 c -10.66,0 -18.19,-0.578 -22.59,-1.731 -4.41,-1.152 -8.22,-3.097 -11.42,-5.8 -2.99,-2.579 -5.09,-6.067 -6.31,-10.442 -1.23,-4.375 -1.83,-11.894 -1.83,-22.535 v -42.949 c 0,-10.598 0.6,-18.039 1.83,-22.356 1.22,-4.308 3.32,-7.734 6.31,-10.332 3.2,-2.707 7.01,-4.648 11.42,-5.801 4.4,-1.152 11.93,-1.726 22.59,-1.726 h 9.39 c 10.66,0 18.21,0.574 22.71,1.726 4.47,1.153 8.32,3.094 11.52,5.801 2.89,2.512 4.95,5.86 6.16,10.086 1.16,4.199 1.77,11.731 1.77,22.602 v 43.164 c 0,10.652 -0.62,18.14 -1.84,22.527 -1.24,4.375 -3.33,7.86 -6.31,10.43 -3.12,2.656 -6.9,4.531 -11.3,5.652 -4.42,1.113 -12,1.684 -22.71,1.684" /><path
             id="path56"
             style="fill:#0fab4b;fill-opacity:1;fill-rule:nonzero;stroke:none"
             d="m 2706.94,235.305 v 151.582 h 63.91 c 17.11,0 28.89,-2.539 35.34,-7.617 6.44,-5.067 9.66,-14.098 9.66,-27.09 v -22.938 c 0,-13.281 -3.18,-22.461 -9.57,-27.551 -6.37,-5.078 -18.17,-7.625 -35.43,-7.625 h -47.24 v -58.761 z m 91.25,93.937 v 22.313 c 0,7.336 -1.73,12.367 -5.15,15.09 -3.43,2.714 -10.9,4.082 -22.39,4.082 h -47.04 v -60.735 h 47.04 c 11.29,0 18.69,1.391 22.23,4.184 3.53,2.769 5.31,7.793 5.31,15.066" /><path
             id="path58"
             style="fill:#0fab4b;fill-opacity:1;fill-rule:nonzero;stroke:none"
             d="m 2864.56,235.305 v 151.582 h 27.6 l 52.03,-135.094 51.53,135.094 h 27.8 V 235.305 h -16.68 v 137.422 l -52.46,-137.422 h -20.69 l -52.44,137.422 V 235.305 h -16.69" /><path
             id="path60"
             style="fill:#0fab4b;fill-opacity:1;fill-rule:nonzero;stroke:none"
             d="m 3081.11,235.305 v 151.582 h 106.46 v -16.16 h -89.77 v -49.473 h 87.23 v -15.43 h -87.23 v -54.609 h 89.77 v -15.91 h -106.46" /><path
             id="path62"
             style="fill:#0fab4b;fill-opacity:1;fill-rule:nonzero;stroke:none"
             d="m 3235.48,235.305 v 151.582 h 25.88 l 82.28,-135.313 v 135.313 h 16.69 V 235.305 h -25.9 l -82.28,135.492 V 235.305 h -16.67" /><path
             id="path64"
             style="fill:#0fab4b;fill-opacity:1;fill-rule:nonzero;stroke:none"
             d="m 3397.32,370.727 v 16.16 h 113.82 v -16.16 h -48.56 V 235.305 h -16.93 v 135.422 h -48.33" /><path
             id="path66"
             style="fill:#0fab4b;fill-opacity:1;fill-rule:nonzero;stroke:none"
             d="M 1009.89,627.289 C 1009.89,348.422 783.828,122.371 504.949,122.371 226.063,122.371 0,348.422 0,627.289 c 0,278.879 226.063,504.951 504.949,504.951 278.879,0 504.941,-226.072 504.941,-504.951" /></g></g><g
         id="g68"><g
           clip-path="url(#clipPath74)"
           id="g70"><path
             id="path76"
             style="fill:#ffffff;fill-opacity:1;fill-rule:nonzero;stroke:none"
             d="m 870.313,865.402 c 0,-136.367 -159.891,-246.914 -357.168,-246.914 -197.239,0 -357.149,110.547 -357.149,246.914 0,136.358 159.91,246.888 357.149,246.888 197.277,0 357.168,-110.53 357.168,-246.888" /><path
             id="path88"
             style="fill:url(#linearGradient86);fill-opacity:1;fill-rule:nonzero;stroke:none"
             d="m 870.313,865.402 c 0,-136.367 -159.891,-246.914 -357.168,-246.914 -197.239,0 -357.149,110.547 -357.149,246.914 0,136.358 159.91,246.888 357.149,246.888 197.277,0 357.168,-110.53 357.168,-246.888" /><path
             id="path90"
             style="fill:#ffffff;fill-opacity:1;fill-rule:nonzero;stroke:none"
             d="m 870.313,865.402 c 0,-136.367 -159.891,-246.914 -357.168,-246.914 -197.239,0 -357.149,110.547 -357.149,246.914 0,136.358 159.91,246.888 357.149,246.888 197.277,0 357.168,-110.53 357.168,-246.888" /><path
             id="path100"
             style="fill:url(#linearGradient98);fill-opacity:1;fill-rule:nonzero;stroke:none"
             d="m 870.313,865.402 c 0,-136.367 -159.891,-246.914 -357.168,-246.914 -197.239,0 -357.149,110.547 -357.149,246.914 0,136.358 159.91,246.888 357.149,246.888 197.277,0 357.168,-110.53 357.168,-246.888" /><path
             id="path110"
             style="fill:url(#linearGradient108);fill-opacity:1;fill-rule:nonzero;stroke:none"
             d="m 870.313,865.402 c 0,-136.367 -159.891,-246.914 -357.168,-246.914 -197.239,0 -357.149,110.547 -357.149,246.914 0,136.358 159.91,246.888 357.149,246.888 197.277,0 357.168,-110.53 357.168,-246.888" /><path
             id="path118"
             style="fill:url(#linearGradient116);fill-opacity:1;fill-rule:nonzero;stroke:none"
             d="m 870.313,865.402 c 0,-136.367 -159.891,-246.914 -357.168,-246.914 -197.239,0 -357.149,110.547 -357.149,246.914 0,136.358 159.91,246.888 357.149,246.888 197.277,0 357.168,-110.53 357.168,-246.888" /><path
             id="path120"
             style="fill:#ffffff;fill-opacity:1;fill-rule:nonzero;stroke:none"
             d="m 870.313,865.402 c 0,-136.367 -159.891,-246.914 -357.168,-246.914 -197.239,0 -357.149,110.547 -357.149,246.914 0,136.358 159.91,246.888 357.149,246.888 197.277,0 357.168,-110.53 357.168,-246.888" /><path
             id="path130"
             style="fill:url(#linearGradient128);fill-opacity:1;fill-rule:nonzero;stroke:none"
             d="m 870.313,865.402 c 0,-136.367 -159.891,-246.914 -357.168,-246.914 -197.239,0 -357.149,110.547 -357.149,246.914 0,136.358 159.91,246.888 357.149,246.888 197.277,0 357.168,-110.53 357.168,-246.888" /><path
             id="path140"
             style="fill:url(#linearGradient138);fill-opacity:1;fill-rule:nonzero;stroke:none"
             d="m 870.313,865.402 c 0,-136.367 -159.891,-246.914 -357.168,-246.914 -197.239,0 -357.149,110.547 -357.149,246.914 0,136.358 159.91,246.888 357.149,246.888 197.277,0 357.168,-110.53 357.168,-246.888" /><path
             id="path148"
             style="fill:url(#linearGradient146);fill-opacity:1;fill-rule:nonzero;stroke:none"
             d="m 870.313,865.402 c 0,-136.367 -159.891,-246.914 -357.168,-246.914 -197.239,0 -357.149,110.547 -357.149,246.914 0,136.358 159.91,246.888 357.149,246.888 197.277,0 357.168,-110.53 357.168,-246.888" /></g></g><g
         id="g150"><g
           clip-path="url(#clipPath156)"
           id="g152"><path
             id="path158"
             style="fill:#ffffff;fill-opacity:1;fill-rule:nonzero;stroke:none"
             d="m 155.996,389.184 c 0,136.367 159.91,246.91 357.149,246.91 197.277,0 357.168,-110.543 357.168,-246.91 0,-136.379 -159.891,-246.895 -357.168,-246.895 -197.239,0 -357.149,110.516 -357.149,246.895" /><path
             id="path170"
             style="fill:url(#linearGradient168);fill-opacity:1;fill-rule:nonzero;stroke:none"
             d="m 155.996,389.184 c 0,136.367 159.91,246.91 357.149,246.91 197.277,0 357.168,-110.543 357.168,-246.91 0,-136.379 -159.891,-246.895 -357.168,-246.895 -197.239,0 -357.149,110.516 -357.149,246.895" /><path
             id="path172"
             style="fill:#ffffff;fill-opacity:1;fill-rule:nonzero;stroke:none"
             d="m 155.996,389.184 c 0,136.367 159.91,246.91 357.149,246.91 197.277,0 357.168,-110.543 357.168,-246.91 0,-136.379 -159.891,-246.895 -357.168,-246.895 -197.239,0 -357.149,110.516 -357.149,246.895" /><path
             id="path182"
             style="fill:url(#linearGradient180);fill-opacity:1;fill-rule:nonzero;stroke:none"
             d="m 155.996,389.184 c 0,136.367 159.91,246.91 357.149,246.91 197.277,0 357.168,-110.543 357.168,-246.91 0,-136.379 -159.891,-246.895 -357.168,-246.895 -197.239,0 -357.149,110.516 -357.149,246.895" /><path
             id="path192"
             style="fill:url(#linearGradient190);fill-opacity:1;fill-rule:nonzero;stroke:none"
             d="m 155.996,389.184 c 0,136.367 159.91,246.91 357.149,246.91 197.277,0 357.168,-110.543 357.168,-246.91 0,-136.379 -159.891,-246.895 -357.168,-246.895 -197.239,0 -357.149,110.516 -357.149,246.895" /><path
             id="path200"
             style="fill:url(#linearGradient198);fill-opacity:1;fill-rule:nonzero;stroke:none"
             d="m 155.996,389.184 c 0,136.367 159.91,246.91 357.149,246.91 197.277,0 357.168,-110.543 357.168,-246.91 0,-136.379 -159.891,-246.895 -357.168,-246.895 -197.239,0 -357.149,110.516 -357.149,246.895" /><path
             id="path202"
             style="fill:#ffffff;fill-opacity:1;fill-rule:nonzero;stroke:none"
             d="m 155.996,389.184 c 0,136.367 159.91,246.91 357.149,246.91 197.277,0 357.168,-110.543 357.168,-246.91 0,-136.379 -159.891,-246.895 -357.168,-246.895 -197.239,0 -357.149,110.516 -357.149,246.895" /><path
             id="path212"
             style="fill:url(#linearGradient210);fill-opacity:1;fill-rule:nonzero;stroke:none"
             d="m 155.996,389.184 c 0,136.367 159.91,246.91 357.149,246.91 197.277,0 357.168,-110.543 357.168,-246.91 0,-136.379 -159.891,-246.895 -357.168,-246.895 -197.239,0 -357.149,110.516 -357.149,246.895" /><path
             id="path222"
             style="fill:url(#linearGradient220);fill-opacity:1;fill-rule:nonzero;stroke:none"
             d="m 155.996,389.184 c 0,136.367 159.91,246.91 357.149,246.91 197.277,0 357.168,-110.543 357.168,-246.91 0,-136.379 -159.891,-246.895 -357.168,-246.895 -197.239,0 -357.149,110.516 -357.149,246.895" /><path
             id="path230"
             style="fill:url(#linearGradient228);fill-opacity:1;fill-rule:nonzero;stroke:none"
             d="m 155.996,389.184 c 0,136.367 159.91,246.91 357.149,246.91 197.277,0 357.168,-110.543 357.168,-246.91 0,-136.379 -159.891,-246.895 -357.168,-246.895 -197.239,0 -357.149,110.516 -357.149,246.895" /></g></g><g
         id="g232"><g
           clip-path="url(#clipPath238)"
           id="g234"><path
             id="path240"
             style="fill:#006838;fill-opacity:1;fill-rule:nonzero;stroke:none"
             d="M 53.9063,696.293 306.328,696.738 180.359,558.172 53.9063,696.293" /><path
             id="path242"
             style="fill:#006838;fill-opacity:1;fill-rule:nonzero;stroke:none"
             d="m 216.379,663.523 c 5.684,163.125 139.637,293.653 304.148,293.653 146.946,0 269.59,-104.125 298.145,-242.617 -30.762,160.695 -171.984,282.148 -341.629,282.148 -188.535,0 -341.945,-149.992 -347.648,-337.144 l 86.984,3.96" /><path
             id="path244"
             style="fill:#006838;fill-opacity:1;fill-rule:nonzero;stroke:none"
             d="M 934.102,536.391 681.66,535.949 807.617,674.516 934.102,536.391" /><path
             id="path246"
             style="fill:#006838;fill-opacity:1;fill-rule:nonzero;stroke:none"
             d="M 771.633,569.164 C 765.93,406.051 631.973,275.52 467.461,275.52 c -146.953,0 -269.578,104.14 -298.152,242.628 30.75,-160.683 171.968,-282.187 341.648,-282.187 188.523,0 341.926,149.988 347.637,337.148 l -86.961,-3.945" /><path
             id="path248"
             style="fill:#ffffff;fill-opacity:1;fill-rule:nonzero;stroke:none"
             d="M 64.6289,707.023 317.051,707.469 191.094,568.922 64.6289,707.023" /><path
             id="path250"
             style="fill:#ffffff;fill-opacity:1;fill-rule:nonzero;stroke:none"
             d="m 227.102,674.258 c 5.691,163.121 139.644,293.656 304.16,293.656 146.953,0 269.578,-104.125 298.14,-242.617 C 798.633,885.98 657.434,1007.44 487.781,1007.44 299.246,1007.44 145.84,857.445 140.117,670.301 l 86.985,3.957" /><path
             id="path252"
             style="fill:#ffffff;fill-opacity:1;fill-rule:nonzero;stroke:none"
             d="M 944.824,547.121 692.395,546.691 818.359,685.254 944.824,547.121" /><path
             id="path254"
             style="fill:#ffffff;fill-opacity:1;fill-rule:nonzero;stroke:none"
             d="M 782.355,579.902 C 776.672,416.781 642.703,286.234 478.191,286.234 c -146.961,0 -269.586,104.153 -298.152,242.637 30.75,-160.676 171.973,-282.168 341.641,-282.168 188.535,0 341.933,149.973 347.656,337.152 l -86.981,-3.953" /></g></g></g></g></svg>