<?xml version="1.0" encoding="UTF-8" standalone="no"?>
<svg
   xmlns:dc="http://purl.org/dc/elements/1.1/"
   xmlns:cc="http://creativecommons.org/ns#"
   xmlns:rdf="http://www.w3.org/1999/02/22-rdf-syntax-ns#"
   xmlns:svg="http://www.w3.org/2000/svg"
   xmlns="http://www.w3.org/2000/svg"
   viewBox="0 0 471.76001 132.12"
   height="132.12"
   width="471.76001"
   xml:space="preserve"
   id="svg2"
   version="1.1"><metadata
     id="metadata8"><rdf:RDF><cc:Work
         rdf:about=""><dc:format>image/svg+xml</dc:format><dc:type
           rdf:resource="http://purl.org/dc/dcmitype/StillImage" /></cc:Work></rdf:RDF></metadata><defs
     id="defs6"><clipPath
       id="clipPath26"
       clipPathUnits="userSpaceOnUse"><path
         id="path24"
         d="M 1320.3,463.848 1436.8,956.156 1826.47,479.895 1538.52,21.3477 1320.3,463.848" /></clipPath><linearGradient
       id="linearGradient34"
       spreadMethod="pad"
       gradientTransform="matrix(-124.024,-257.593,-824.406,396.928,2005.57,331.786)"
       gradientUnits="userSpaceOnUse"
       y2="0"
       x2="1"
       y1="0"
       x1="0"><stop
         id="stop30"
         offset="0"
         style="stop-opacity:1;stop-color:#ffffff" /><stop
         id="stop32"
         offset="1"
         style="stop-opacity:1;stop-color:#d4e3f1" /></linearGradient><clipPath
       id="clipPath56"
       clipPathUnits="userSpaceOnUse"><path
         id="path54"
         d="M 1164.96,443.965 1205.17,907.23 1581.67,482.832 1522.24,2.98047 1164.96,443.965" /></clipPath><linearGradient
       id="linearGradient64"
       gradientTransform="matrix(155.074,-544.415,-671.215,-191.193,1644.39,777.24)"
       gradientUnits="userSpaceOnUse"
       y2="0"
       x2="0.679775"
       y1="0"
       x1="0"><stop
         id="stop60"
         offset="0"
         style="stop-opacity:1;stop-color:#498fc4" /><stop
         id="stop62"
         offset="1"
         style="stop-opacity:1;stop-color:#0b6fae" /></linearGradient><linearGradient
       id="linearGradient72"
       gradientTransform="matrix(155.074,-544.415,-671.215,-191.193,1644.39,777.24)"
       gradientUnits="userSpaceOnUse"
       y2="0"
       x2="1"
       y1="0"
       x1="0.679775"><stop
         id="stop68"
         offset="0"
         style="stop-opacity:1;stop-color:#0b6fae" /><stop
         id="stop70"
         offset="1"
         style="stop-opacity:1;stop-color:#0b6fae" /></linearGradient></defs><g
     transform="matrix(1.3333333,0,0,-1.3333333,0,132.12)"
     id="g10"><g
       transform="scale(0.1)"
       id="g12"><path
         id="path14"
         style="fill:#c2d7ec;fill-opacity:1;fill-rule:nonzero;stroke:none"
         d="m 1890.57,488.242 -280.66,329.27 8.12,41.605 c 3.63,21.852 0,25.684 0,25.684 l -108.5,106.094 c -6.86,6.855 -10.67,-1.524 -10.67,-1.524 l -6.87,-40.332 7.66,-2.18 -44.86,-276.808 155.52,-174.024 -65.19,-485.5192 345.45,477.7342" /><path
         id="path16"
         style="fill:#0b6fae;fill-opacity:1;fill-rule:nonzero;stroke:none"
         d="m 1550.32,15.8789 330.3,462.4221 -282.24,331.117 9.7,49.699 c 3.64,11.903 0,15.742 0,15.742 l -100.56,103.582 c -6.85,6.856 -10.66,-1.527 -10.66,-1.527 l -6.87,-40.32 -0.28,0.324 -44.87,-276.816 158.43,-175.219 -63.43,-472.4221 10.48,3.418" /><path
         id="path18"
         style="fill:#8fb8db;fill-opacity:1;fill-rule:nonzero;stroke:none"
         d="m 1225.06,907.23 c 0,0 -16.83,13.536 -19.89,0 l 4.13,-32.914 c 0,0 7.9,-7.898 15.08,-8.613 7.17,-0.723 20.1,3.59 20.1,3.59" /><g
         id="g20"><g
           clip-path="url(#clipPath26)"
           id="g22"><path
             id="path28"
             style="fill:#ffffff;fill-opacity:1;fill-rule:nonzero;stroke:none"
             d="M 1320.3,463.848 1436.8,956.156 1826.47,479.895 1538.52,21.3477 1320.3,463.848" /><path
             id="path36"
             style="fill:url(#linearGradient34);fill-opacity:1;fill-rule:nonzero;stroke:none"
             d="M 1320.3,463.848 1436.8,956.156 1826.47,479.895 1538.52,21.3477 1320.3,463.848" /></g></g><path
         id="path38"
         style="fill:#7eadd6;fill-opacity:1;fill-rule:nonzero;stroke:none"
         d="m 1325.14,462.707 116.5,492.309 -8.69,-2.004 389.69,-476.274 -0.37,5.793 -287.96,-458.5349 8.66,-0.4492 -218.2,442.5081 z m 217.58,-443.9961 287.96,458.5351 1.91,3.027 -2.28,2.754 -389.66,476.282 -6.37,7.785 -2.32,-9.789 -116.49,-492.313 -0.41,-1.73 0.78,-1.61 218.22,-442.4997 3.93,-7.9687 4.73,7.5273" /><path
         id="path40"
         style="fill:#ffffff;fill-opacity:1;fill-rule:nonzero;stroke:none"
         d="m 1270.08,459.414 91.34,490.774 368.84,-455.872 -191.18,-472.9176 -269,438.0156" /><path
         id="path42"
         style="fill:#7eadd6;fill-opacity:1;fill-rule:nonzero;stroke:none"
         d="m 1274.98,458.508 91.32,490.769 -8.75,-2.214 368.85,-455.875 -0.75,4.996 -191.18,-472.9223 8.85,0.7422 -269,438.0191 z m 268.71,-438.9767 191.19,472.9217 1.09,2.715 -1.84,2.273 -368.85,455.875 -6.78,8.379 -1.97,-10.597 -91.33,-490.766 -0.36,-1.875 1,-1.641 269,-438.0152 5.16,-8.3906 3.69,9.1211" /><path
         id="path44"
         style="fill:#ffffff;fill-opacity:1;fill-rule:nonzero;stroke:none"
         d="M 1222.59,461.262 1276.27,943 1655.69,496.719 1538.57,26.5156 1222.59,461.262" /><path
         id="path46"
         style="fill:#7eadd6;fill-opacity:1;fill-rule:nonzero;stroke:none"
         d="m 1227.53,460.723 53.68,481.722 -8.73,-2.664 379.43,-446.281 -1.04,4.426 -117.13,-470.2112 8.85,1.7305 -315.98,434.7457 z M 1543.4,25.3125 1660.52,495.52 l 0.61,2.48 -1.65,1.941 -379.43,446.282 -7.45,8.761 -1.28,-11.437 -53.67,-481.731 -0.21,-1.902 1.13,-1.574 315.98,-434.7462 6.27,-8.6211 2.58,10.3398" /><path
         id="path48"
         style="fill:#8fb8db;fill-opacity:1;fill-rule:nonzero;stroke:none"
         d="m 1184.85,443.965 40.21,463.265 376.5,-424.398 -57.9,-472.0703 c 0.07,0.5977 -3.09,4.043 -3.66,4.2774 -2.18,0.9179 -5.5,-2.4883 -7.48,-3.3008 -4.37,-1.79689 -7.1,1.1914 -8.48,4.875 -0.75,2.0117 -1.29,1.6992 -3.27,2.7422 -2.74,1.457 -5.69,5.0586 -6.02,8.1836 -0.5,4.6093 4.85,11.3086 2.41,15.2148 -1.26,2.0039 -3.17,3.8281 -4.69,5.6563 -3.4,4.1093 -6.8,8.2109 -10.2,12.3242 -7.97,9.6172 -15.94,19.2265 -23.91,28.8554 -9.17,11.0662 -18.34,22.1402 -27.51,33.2152 -10.05,12.136 -20.1,24.277 -30.15,36.414 -10.62,12.812 -21.23,25.625 -31.85,38.437 -10.86,13.117 -21.71,26.223 -32.57,39.336 -10.77,13.008 -21.55,26.016 -32.33,39.035 -10.38,12.528 -20.76,25.067 -31.14,37.598 -9.66,11.66 -19.32,23.328 -28.99,34.988 -8.61,10.41 -17.24,20.821 -25.86,31.231 -7.27,8.769 -14.53,17.551 -21.79,26.32 -5.59,6.738 -11.17,13.477 -16.76,20.223 -3.58,4.328 -7.17,8.664 -10.76,12.988 -1.27,1.523 -2.53,3.066 -3.8,4.59" /><g
         id="g50"><g
           clip-path="url(#clipPath56)"
           id="g52"><path
             id="path58"
             style="fill:#498fc4;fill-opacity:1;fill-rule:nonzero;stroke:none"
             d="M 1164.96,443.965 1205.17,907.23 1581.67,482.832 1522.24,2.98047 1164.96,443.965" /><path
             id="path66"
             style="fill:url(#linearGradient64);fill-opacity:1;fill-rule:nonzero;stroke:none"
             d="M 1164.96,443.965 1205.17,907.23 1581.67,482.832 1522.24,2.98047 1164.96,443.965" /><path
             id="path74"
             style="fill:url(#linearGradient72);fill-opacity:1;fill-rule:nonzero;stroke:none"
             d="M 1164.96,443.965 1205.17,907.23 1581.67,482.832 1522.24,2.98047 1164.96,443.965" /></g></g><path
         id="path76"
         style="fill:#0b6fae;fill-opacity:1;fill-rule:nonzero;stroke:none"
         d="m 1559.44,29.668 c 0,0 -26.28,-47.4844 -40.05,-22.83987 l 5.99,26.45317 c 0,0 -2.9,-39.12896 26.81,0" /><path
         id="path78"
         style="fill:#0b6fae;fill-opacity:1;fill-rule:nonzero;stroke:none"
         d="m 170.383,445.305 c -10.477,7.461 -33.055,12.05 -67.727,13.738 -25.7771,1.27 -40.8826,2.949 -45.3396,5.07 -4.4726,2.117 -6.6953,8.739 -6.6953,19.883 0,16.348 12.6641,24.524 38.0117,24.524 17.6912,0 28.8322,-1.165 33.4302,-3.497 4.601,-2.328 7.402,-8.21 8.39,-17.66 0.133,-0.828 0.352,-2.058 0.641,-3.699 h 47.515 c 0,22.836 -5.836,38.176 -17.5,46.024 -11.671,7.847 -34.39,11.773 -68.1793,11.773 -35.7734,0 -59.9531,-4.094 -72.5391,-12.266 C 7.80859,521.02 1.52344,505.371 1.52344,482.258 c 0,-25.801 6.89844,-42.774 20.70316,-50.957 13.8047,-8.184 42.4375,-12.258 85.9024,-12.258 19.242,0 28.879,-8.535 28.879,-25.586 0,-17.762 -15.352,-26.641 -46.0392,-26.641 -29.7149,0 -43.5704,8.938 -41.5899,26.809 0.1133,1.688 0.4844,3.934 1.1094,6.758 H 0 l 0.28125,-5.098 c 0,-23.664 6.35547,-39.805 19.07425,-48.449 12.7109,-8.641 36.3672,-12.957 70.9726,-12.957 36.0199,0 60.9809,4.754 74.9019,14.266 13.915,9.523 20.875,26.613 20.875,51.269 0,23.117 -5.242,38.41 -15.722,45.891 z m 666.433,96.156 c -32.949,0 -54.16,-12.277 -63.628,-36.828 l -1.059,0.215 1.902,34.129 h -48.047 v -202.61 h 48.481 v 120.168 c 0,30.918 16.34,46.391 49.035,46.391 21.512,0 33.395,-7.555 35.664,-22.653 l 1.063,-14.199 V 336.367 h 48.472 v 137.969 c 0,44.746 -23.969,67.125 -71.883,67.125 z M 266.332,496.719 c 5.438,5.793 17.219,8.691 35.316,8.691 18.665,0 30.786,-2.406 36.379,-7.207 5.582,-4.805 8.379,-15.254 8.379,-31.355 l 0.211,-8.047 h -88.449 c 0,19.48 2.715,32.137 8.164,37.918 z m 128.648,-67.754 -0.195,14.836 c 0,38.699 -6.133,64.64 -18.414,77.851 -12.269,13.203 -36.473,19.809 -72.586,19.809 -37.676,0 -63,-6.793 -75.972,-20.356 -12.985,-13.574 -19.477,-40.07 -19.477,-79.511 0,-44.395 6.211,-73.43 18.629,-87.141 12.41,-13.711 38.723,-20.574 78.937,-20.574 59.258,0 88.883,19.766 88.883,59.285 l 0.195,7.844 h -48.789 c 0,-12.922 -2.683,-21.328 -8.046,-25.235 -5.372,-3.898 -16.95,-5.839 -34.739,-5.839 -18.363,0 -30.613,3.328 -36.758,10.007 -6.144,6.68 -9.21,20.032 -9.21,40.079 0,1.418 0.097,4.406 0.296,8.945 z m 32.098,-92.598 h 48.481 V 625.98 H 427.078 Z M 565.23,496.719 c 5.446,5.793 17.215,8.691 35.321,8.691 18.664,0 30.789,-2.406 36.379,-7.207 5.582,-4.805 8.379,-15.254 8.379,-31.355 l 0.214,-8.047 h -88.457 c 0,19.48 2.719,32.137 8.164,37.918 z m 128.649,-67.754 -0.191,14.836 c 0,38.699 -6.137,64.64 -18.415,77.851 -12.269,13.203 -36.468,19.809 -72.582,19.809 -37.679,0 -63.007,-6.793 -75.98,-20.356 -12.984,-13.574 -19.469,-40.07 -19.469,-79.511 0,-44.395 6.203,-73.43 18.621,-87.141 12.414,-13.711 38.727,-20.574 78.942,-20.574 59.254,0 88.883,19.766 88.883,59.285 l 0.191,7.844 h -48.785 c 0,-12.922 -2.692,-21.328 -8.051,-25.235 -5.371,-3.898 -16.945,-5.839 -34.734,-5.839 -18.364,0 -30.621,3.328 -36.758,10.007 -6.149,6.68 -9.211,20.032 -9.211,40.079 0,1.418 0.098,4.406 0.301,8.945 z m 304.312,67.754 c 5.439,5.793 17.219,8.691 35.319,8.691 18.67,0 30.79,-2.406 36.38,-7.207 5.58,-4.805 8.38,-15.254 8.38,-31.355 l 0.21,-8.047 h -88.453 c 0,19.48 2.723,32.137 8.164,37.918 z M 1070,375.773 c -5.37,-3.898 -16.94,-5.839 -34.73,-5.839 -18.37,0 -30.62,3.328 -36.754,10.007 -6.149,6.68 -9.219,20.032 -9.219,40.079 0,1.418 0.101,4.406 0.305,8.945 h 137.238 l -0.19,14.836 c 0,38.699 -6.14,64.64 -18.41,77.851 -12.27,13.203 -36.48,19.809 -72.59,19.809 -37.677,0 -63.005,-6.793 -75.978,-20.356 -12.984,-13.574 -19.469,-40.07 -19.469,-79.511 0,-44.395 6.207,-73.43 18.625,-87.141 12.41,-13.711 38.727,-20.574 78.942,-20.574 59.25,0 88.88,19.766 88.88,59.285 l 0.19,7.844 h -48.78 c 0,-12.922 -2.69,-21.328 -8.06,-25.235" /><path
         id="path80"
         style="fill:#0b6fae;fill-opacity:1;fill-rule:nonzero;stroke:none"
         d="m 2142.68,336.367 h 48.47 v 202.61 h -48.47 z m 0,249.215 h 48.47 v 40.398 h -48.47 z m 1344.44,-46.605 -19.51,-85.84 -9.96,-43.02 c -0.73,-3.398 -2.22,-10.594 -4.48,-21.609 l -4.44,-21.406 h -1.06 l -6.15,21.406 c -3.27,11.582 -5.24,18.789 -5.94,21.609 l -12.74,43.02 -25.45,85.84 h -52.18 l 66.4,-202.61 h 24.8 c -5.5,-36.043 -18.59,-54.07 -39.23,-54.07 -2.83,0 -6.37,0.215 -10.6,0.594 v -35.86 c 5.93,-0.515 11.65,-0.769 17.17,-0.769 24.46,0 42.24,5.254 53.35,15.781 11.1,10.527 20.39,31.055 27.89,61.582 l 53.25,215.352 z M 3104.56,384.484 c -5.3,-8.046 -18.05,-12.07 -38.24,-12.07 -20.92,0 -33.99,3.809 -39.21,11.434 -5.23,7.629 -7.82,26.699 -7.82,57.218 0,26.688 2.73,43.68 8.25,50.946 5.51,7.269 18.37,10.914 38.56,10.914 19.92,0 32.61,-3.606 38.13,-10.813 5.52,-7.199 8.28,-23.715 8.28,-49.562 0,-30.664 -2.67,-50.012 -7.95,-58.067 z m -38.05,156.977 c -40.21,0 -66.34,-6.371 -78.34,-19.102 -12.01,-12.738 -17.98,-40.406 -17.98,-82.992 0,-44.289 6.1,-72.949 18.32,-85.957 12.19,-13.019 38.97,-19.531 80.34,-19.531 38.12,0 63.09,7 74.96,21.016 11.84,14.003 17.79,43.515 17.79,88.503 0,40.325 -6.07,66.743 -18.21,79.27 -12.15,12.527 -37.78,18.793 -76.88,18.793 z m -733.68,0.621 c -24.9,0 -43.13,-10.566 -54.72,-31.68 l -1.06,0.215 2.95,28.36 h -48.48 V 336.367 H 2280 v 119.426 c 0,31.836 12.07,47.754 36.21,47.754 16.87,0 25.32,-10.719 25.32,-32.16 0,-1.688 -0.35,-5.274 -1.07,-10.723 h 45.82 v 14.172 c 0,44.824 -17.81,67.246 -53.45,67.246 z M 2046.68,384.895 c -5.48,-8.321 -18.01,-12.481 -37.61,-12.481 -18.76,0 -30.82,4.227 -36.22,12.695 -5.39,8.457 -8.1,27.352 -8.1,56.688 0,25.383 2.71,41.906 8.1,49.605 5.4,7.68 17.19,11.524 35.37,11.524 19.03,0 31.56,-3.883 37.59,-11.633 6.06,-7.746 9.06,-24.035 9.06,-48.859 0,-30.051 -2.74,-49.219 -8.19,-57.539 z m 8.19,125.257 -0.83,-0.214 c -8.23,21.015 -28.88,31.523 -61.98,31.523 -28.58,0 -48.46,-7.043 -59.65,-21.106 -11.16,-14.062 -16.76,-39.191 -16.76,-75.375 0,-44.804 5.21,-74.531 15.6,-89.148 10.39,-14.641 31.65,-21.953 63.78,-21.953 31.84,0 52.48,11.785 61.96,35.34 l 0.85,-0.215 -1.69,-32.637 h 47.2 V 625.98 h -48.48 z m 1236.27,31.93 c -24.89,0 -43.13,-10.566 -54.73,-31.68 l -1.07,0.215 2.97,28.36 h -48.48 v -202.61 h 48.48 v 119.426 c 0,31.836 12.07,47.754 36.19,47.754 16.9,0 25.34,-10.719 25.34,-32.16 0,-1.688 -0.36,-5.274 -1.08,-10.723 h 45.83 v 14.172 c 0,44.824 -17.83,67.246 -53.45,67.246 z M 2917.4,406.613 c 0,-22.812 -7.82,-34.199 -23.43,-34.199 -14.21,0 -21.31,9.402 -21.31,28.223 v 101.668 h 78.3 v 36.672 h -78.3 v 45.363 h -48.48 v -45.363 h -26.11 v -36.672 h 26.11 v -108.7 c 0,-39.816 21.63,-59.726 64.88,-59.726 43.4,0 66.44,15.516 69.14,46.562 0.56,6.668 0.83,14.668 0.83,24.032 l 0.21,10.207 h -41.47 z m -179.64,-26.621 c -4.73,-5.058 -15.41,-7.578 -32.08,-7.578 -21.19,0 -34.49,3.633 -39.93,10.906 -5.44,7.266 -8.15,25.032 -8.15,53.293 0,29.227 2.46,47.586 7.4,55.078 4.94,7.489 17.09,11.235 36.43,11.235 27.25,0 40.88,-11.809 40.88,-35.426 h 48.17 c 0,28.766 -6.22,48.273 -18.65,58.551 -12.43,10.269 -36.16,15.41 -71.18,15.41 -36.29,0 -60.75,-7.082 -73.32,-21.231 -12.56,-14.144 -18.83,-41.605 -18.83,-82.347 0,-41.75 6.27,-69.524 18.83,-83.313 12.57,-13.789 37.94,-20.691 76.09,-20.691 51.96,0 80.9,14.09 86.84,42.293 l 2.83,30.859 0.14,7.024 h -48.37 c 0,-17.657 -2.37,-29.024 -7.1,-34.063 z m -282.55,116.727 c 5.43,5.793 17.2,8.691 35.31,8.691 18.66,0 30.78,-2.406 36.37,-7.207 5.59,-4.805 8.38,-15.254 8.38,-31.355 l 0.22,-8.047 h -88.46 c 0,19.48 2.72,32.137 8.18,37.918 z m 128.65,-67.754 -0.21,14.836 c 0,38.699 -6.12,64.64 -18.41,77.851 -12.27,13.203 -36.47,19.809 -72.59,19.809 -37.69,0 -63,-6.793 -75.98,-20.356 -12.97,-13.574 -19.46,-40.07 -19.46,-79.511 0,-44.395 6.2,-73.43 18.63,-87.141 12.4,-13.711 38.72,-20.574 78.93,-20.574 59.25,0 88.88,19.766 88.88,59.285 l 0.21,7.844 h -48.79 c 0,-12.922 -2.7,-21.328 -8.07,-25.235 -5.35,-3.898 -16.93,-5.839 -34.72,-5.839 -18.37,0 -30.62,3.328 -36.76,10.007 -6.14,6.68 -9.21,20.032 -9.21,40.079 0,1.418 0.1,4.406 0.29,8.945 h 137.26" /></g></g></svg>